<?xml version="1.0" encoding="utf-8"?>
<!-- Generator: Adobe Illustrator 19.2.0, SVG Export Plug-In . SVG Version: 6.00 Build 0)  -->
<svg version="1.1" id="Layer_1" xmlns="http://www.w3.org/2000/svg" xmlns:xlink="http://www.w3.org/1999/xlink" x="0px" y="0px"
	 viewBox="0 0 144.5 144.4" style="enable-background:new 0 0 144.5 144.4;" xml:space="preserve">
<style type="text/css">
	.st0{fill:#FFFFFF;}
</style>
<g id="IyBYVV.tif">
	<g>
		<path class="st0" d="M72.3,144.4C32.7,144.9,0,111.8,0,72.4C-0.1,32.9,32.5,0.1,72.1,0c39.7-0.1,72.7,32.8,72.4,72.5
			C144.2,112.3,112.2,144.4,72.3,144.4z M72,138.1c37-0.5,65.9-28.9,65.9-65.7c0-36.9-28.9-65.9-66-65.8C35.3,6.7,6.6,35.5,6.5,72.2
			C6.5,108.8,35.2,137.4,72,138.1z"/>
		<path class="st0" d="M69.6,114.5C55,114,41.8,105.8,31.1,92.8c-1.3-1.6-1.6-3.4,0.1-4.9c1.4-1.3,3.5-0.9,5,0.9
			c5.6,6.7,12.1,12.2,20.1,15.7c14.7,6.4,28.3,3.8,41-5.2c3.6-2.6,6.9-5.5,9.7-9c0.5-0.6,1.1-1.3,1.7-1.9c1.3-1.4,2.9-1.8,4.4-0.6
			c1.7,1.3,1.6,3,0.5,4.7c-1.7,2.5-3.8,4.7-6,6.7C97.7,108.4,86.3,114.4,69.6,114.5z"/>
		<path class="st0" d="M48,72.4c-5.2-0.1-9-4.2-8.9-9.4c0.1-5.1,4.2-9,9.5-8.9c5,0.1,8.9,4.2,8.8,9.3C57.3,68.6,53.3,72.5,48,72.4z"
			/>
		<path class="st0" d="M96.3,72.4c-5.2,0-9.2-4-9.1-9.2c0-5.2,4-9.1,9.3-9.1c5.1,0,9,4,9,9.1C105.4,68.4,101.5,72.4,96.3,72.4z"/>
	</g>
</g>
</svg>
