<?xml version="1.0" encoding="utf-8"?>
<!-- Generator: Adobe Illustrator 19.2.0, SVG Export Plug-In . SVG Version: 6.00 Build 0)  -->
<svg version="1.1" id="Layer_1" xmlns="http://www.w3.org/2000/svg" xmlns:xlink="http://www.w3.org/1999/xlink" x="0px" y="0px"
	 viewBox="0 0 144.5 144.4" style="enable-background:new 0 0 144.5 144.4;" xml:space="preserve">
<style type="text/css">
	.st0{fill:#FFFFFF;}
</style>
<g id="Qjxcu2.tif">
	<g>
		<path class="st0" d="M72.2,0c39.6-0.5,72.5,32.7,72.3,72.5c-0.2,39.2-32.8,72.2-72.8,71.9c-39.2-0.3-72-32.9-71.7-72.7
			C0.4,32.1,32.4,0,72.2,0z M72.1,6.3C35.4,7,6.5,35.3,6.5,72.1c0,36.5,28.6,65.5,65.3,65.7c37.2,0.2,66.1-28.8,66.1-65.7
			C137.9,35.3,109.1,6.9,72.1,6.3z"/>
		<path class="st0" d="M72.2,99.3c-9.5,0-19,0-28.5,0c-0.7,0-1.5,0-2.2-0.1c-1.7-0.2-2.7-1.4-2.7-3.1s0.9-2.8,2.7-3.1
			c0.8-0.1,1.7-0.1,2.5-0.1c18.7,0,37.5,0,56.2,0c0.7,0,1.5,0,2.2,0c1.8,0.2,2.9,1.2,2.9,3.1s-1,2.9-2.9,3.1
			c-0.7,0.1-1.5,0.1-2.2,0.1C90.9,99.3,81.6,99.3,72.2,99.3z"/>
		<path class="st0" d="M57.4,63.3c0,5.2-4.1,9.1-9.3,9.1c-5.2-0.1-9.1-4.1-9-9.4c0.1-5.1,4.1-8.9,9.2-8.9C53.5,54,57.4,58,57.4,63.3
			z"/>
		<path class="st0" d="M96.1,72.3c-5.2,0-9.1-4.1-9-9.3s4.1-9.1,9.4-9c5.1,0.1,8.9,4.1,8.9,9.2C105.4,68.4,101.3,72.4,96.1,72.3z"/>
	</g>
</g>
</svg>
