<?xml version="1.0" standalone="no"?>
<!DOCTYPE svg PUBLIC "-//W3C//DTD SVG 20010904//EN"
 "http://www.w3.org/TR/2001/REC-SVG-20010904/DTD/svg10.dtd">
<svg version="1.0" xmlns="http://www.w3.org/2000/svg"
 width="700.000000pt" height="700.000000pt" viewBox="0 0 700.000000 700.000000"
 preserveAspectRatio="xMidYMid meet">
<metadata>
Created by potrace 1.11, written by Peter Selinger 2001-2013
</metadata>
<g transform="translate(0.000000,700.000000) scale(0.100000,-0.100000)"
fill="#000000" stroke="none">
<path d="M2785 5952 c-59 -7 -201 -43 -270 -69 -268 -101 -491 -292 -644 -552
-68 -115 -132 -307 -146 -436 -9 -85 -12 -92 -43 -100 -31 -8 -101 -38 -157
-67 -179 -95 -352 -274 -447 -463 -25 -50 -74 -187 -83 -235 -16 -81 -20 -126
-20 -220 1 -131 9 -198 40 -299 124 -417 479 -706 913 -747 84 -8 3258 -7
3333 1 35 3 82 11 104 17 22 6 45 12 50 14 36 9 109 40 165 70 281 154 457
464 445 784 -4 116 -12 161 -47 260 -76 215 -224 382 -433 488 -61 30 -177 69
-227 75 -35 4 -39 8 -45 54 -9 66 -53 205 -88 279 -145 302 -415 511 -747 580
-101 22 -285 22 -380 1 l-66 -14 -51 71 c-149 209 -380 380 -613 456 -67 21
-74 23 -182 44 -62 13 -283 18 -361 8z m246 -236 c219 -15 443 -119 604 -280
56 -57 110 -123 139 -170 36 -59 87 -151 92 -167 5 -15 18 -13 105 17 54 18
122 37 150 42 53 10 213 8 264 -2 301 -63 532 -270 625 -559 26 -81 28 -92 36
-232 3 -60 7 -111 9 -113 1 -1 47 -5 101 -7 110 -4 137 -9 207 -31 246 -80
419 -313 426 -574 5 -169 -59 -329 -179 -451 -109 -111 -226 -170 -362 -185
-35 -4 -792 -7 -1683 -7 -1490 0 -1627 1 -1704 17 -285 58 -519 267 -610 545
-28 87 -35 138 -35 261 0 145 37 274 115 407 43 73 177 210 252 257 65 42 212
101 272 110 22 4 53 10 69 14 l28 8 3 119 c3 136 15 211 50 315 125 368 465
636 845 666 41 4 77 8 78 10 2 1 9 1 15 -1 7 -2 46 -6 88 -9z"/>
<path d="M2448 1978 c-2 -7 -4 -170 -4 -363 l1 -349 38 -1 c20 -1 37 1 38 4 0
3 1 80 3 171 3 182 13 224 62 256 33 22 121 24 157 5 43 -23 50 -59 51 -254
l1 -181 37 -1 c26 -1 38 3 40 14 2 9 3 96 2 193 -1 185 -8 222 -49 264 -26 28
-86 47 -147 45 -51 -1 -125 -32 -135 -56 -14 -38 -21 -6 -21 93 0 184 3 172
-36 172 -19 0 -36 -6 -38 -12z"/>
<path d="M5220 1948 c-1 -53 -1 -634 0 -665 0 -28 28 -31 38 -4 5 15 8 665 3
704 -1 4 -10 7 -21 7 -17 0 -20 -7 -20 -42z"/>
<path d="M6906 1981 c-3 -5 -5 -72 -3 -149 l2 -141 -34 34 c-40 42 -97 59
-165 51 -71 -8 -119 -44 -151 -113 -24 -49 -28 -71 -28 -148 -1 -139 43 -220
139 -252 73 -25 171 -1 220 55 l23 27 2 -27 c3 -50 4 -53 20 -56 15 -3 17 29
17 362 0 347 -1 366 -19 366 -10 0 -20 -4 -23 -9z m-78 -262 c42 -26 65 -87
69 -177 5 -149 -26 -215 -112 -236 -124 -32 -207 40 -214 184 -5 115 34 208
99 234 40 16 129 13 158 -5z"/>
<path d="M3039 1949 c-29 -29 -8 -89 31 -89 26 0 42 25 38 61 -4 43 -40 57
-69 28z"/>
<path d="M4855 1949 c-103 -19 -170 -70 -217 -167 -31 -63 -33 -73 -33 -172 0
-130 19 -190 81 -259 61 -68 128 -93 238 -90 94 2 148 18 152 43 2 16 -3 17
-49 10 -143 -20 -225 -5 -288 54 -105 98 -113 339 -17 456 64 78 188 106 307
70 58 -17 58 -17 63 10 2 16 -6 22 -42 33 -55 17 -141 22 -195 12z"/>
<path d="M61 1940 c-5 -3 -8 -156 -7 -340 l1 -335 146 1 c87 0 165 6 192 14
82 22 130 89 131 181 0 75 -33 121 -104 146 l-50 18 48 21 c63 28 86 72 80
152 -5 51 -9 60 -47 93 -32 28 -54 39 -94 45 -61 9 -284 12 -296 4z m303 -85
c54 -23 72 -85 41 -144 -20 -40 -63 -54 -173 -55 l-97 -1 -2 100 c-1 55 0 105
2 111 5 17 183 8 229 -11z m18 -292 c39 -23 58 -55 58 -103 0 -49 -31 -96 -74
-110 -36 -11 -201 -21 -223 -13 -8 3 -12 42 -12 128 l0 124 109 -3 c86 -3 116
-8 142 -23z"/>
<path d="M2154 1892 c-6 -4 -19 -30 -28 -59 -15 -44 -22 -54 -52 -63 -23 -8
-34 -18 -34 -31 0 -18 14 -23 53 -20 11 2 17 -5 18 -21 0 -13 1 -95 3 -183 2
-181 11 -211 70 -239 37 -17 122 -21 145 -7 8 5 15 20 15 34 1 23 -1 24 -44
22 -47 -3 -77 7 -97 34 -8 11 -11 68 -10 186 l2 170 70 0 70 0 0 30 0 30 -70
0 -70 0 -5 59 c-5 58 -14 73 -36 58z"/>
<path d="M3434 1775 c-16 -6 -43 -24 -61 -39 l-32 -27 -3 33 c-3 29 -7 33 -35
36 l-33 3 0 -255 c0 -277 -2 -268 56 -258 20 4 21 10 21 148 1 191 7 226 44
264 30 30 37 32 114 35 49 1 70 -8 91 -41 21 -31 21 -34 23 -239 l1 -171 28 2
c15 1 32 3 38 3 6 1 10 66 9 194 -1 230 -7 255 -77 301 -34 22 -142 29 -184
11z"/>
<path d="M662 1523 c3 -239 4 -258 21 -257 56 4 52 -9 53 162 1 141 3 161 23
200 29 58 73 84 133 80 40 -3 48 0 52 17 13 49 9 55 -43 55 -66 0 -97 -13
-137 -57 -28 -31 -34 -34 -35 -17 -1 10 -1 23 0 28 5 26 -12 46 -40 46 l-29 0
2 -257z"/>
<path d="M1160 1769 c-46 -19 -87 -58 -111 -106 -19 -40 -23 -64 -23 -143 -1
-80 3 -102 22 -140 43 -84 119 -122 238 -122 40 0 87 7 108 16 31 13 36 20 36
47 0 34 5 33 -80 11 -131 -34 -231 19 -246 128 l-6 45 173 0 174 0 1 50 c2 93
-42 175 -110 206 -45 20 -135 24 -176 8z m149 -69 c25 -13 47 -53 54 -98 l5
-32 -134 0 c-74 0 -134 4 -134 9 0 43 47 115 85 132 24 10 97 4 124 -11z"/>
<path d="M1662 1761 c-65 -22 -65 -22 -53 -55 12 -31 11 -30 58 -11 70 30 154
24 184 -11 14 -17 28 -89 20 -102 -3 -6 -47 -13 -96 -17 -104 -7 -183 -37
-212 -81 -22 -34 -24 -119 -4 -158 47 -86 222 -95 292 -15 23 26 27 24 35 -16
5 -30 10 -35 35 -35 l29 0 0 194 c0 234 -9 269 -78 306 -40 20 -151 21 -210 1z
m209 -254 c9 -13 -1 -77 -18 -114 -30 -64 -158 -93 -203 -47 -35 36 -25 112
16 139 37 24 192 41 205 22z"/>
<path d="M3030 1520 l0 -257 33 2 c17 2 34 3 38 4 7 1 7 501 0 502 -3 1 -21 2
-38 4 l-33 3 0 -258z"/>
<path d="M3942 1768 c-104 -34 -137 -192 -57 -274 l35 -35 -27 -23 c-21 -18
-27 -32 -26 -61 1 -21 8 -45 17 -53 15 -15 14 -18 -16 -32 -95 -46 -98 -168
-4 -221 36 -21 54 -24 146 -24 85 1 114 5 151 22 112 50 141 183 54 248 -30
23 -45 27 -142 32 -119 6 -143 14 -143 44 0 36 40 61 102 64 64 3 122 29 151
67 27 36 33 114 14 161 l-16 37 33 0 c37 0 69 20 58 36 -10 16 -288 26 -330
12z m148 -62 c42 -17 56 -112 24 -161 -26 -40 -104 -52 -160 -24 -48 24 -60
119 -21 164 34 40 91 48 157 21z m82 -456 c25 -31 22 -63 -7 -99 -34 -40 -69
-51 -168 -52 -112 -1 -160 61 -111 144 16 27 66 36 174 32 83 -2 96 -5 112
-25z"/>
<path d="M5545 1765 c-105 -37 -160 -168 -133 -315 23 -128 95 -190 221 -190
85 0 159 48 193 127 24 55 27 177 7 240 -39 123 -163 182 -288 138z m162 -48
c65 -35 95 -112 88 -229 -2 -37 -11 -80 -19 -96 -53 -102 -190 -123 -268 -41
-82 87 -74 286 16 354 17 12 40 25 51 27 38 9 100 1 132 -15z"/>
<path d="M5988 1758 c-3 -7 -4 -98 -3 -203 2 -211 7 -234 67 -276 22 -16 48
-23 90 -25 74 -3 112 8 160 46 21 17 38 28 37 23 -1 -4 -1 -20 0 -35 1 -21 6
-28 21 -28 19 0 20 7 20 254 0 249 0 255 -20 253 -11 -1 -21 -4 -21 -7 -1 -3
-2 -81 -3 -175 -3 -198 -13 -233 -77 -266 -43 -22 -120 -27 -161 -10 -32 12
-58 48 -63 88 -2 15 -4 106 -4 201 -1 162 -2 172 -20 172 -10 0 -21 -6 -23
-12z"/>
</g>
</svg>
