<?xml version="1.0" encoding="utf-8"?>
<!-- Generator: Adobe Illustrator 19.2.0, SVG Export Plug-In . SVG Version: 6.00 Build 0)  -->
<svg version="1.1" id="Layer_1" xmlns="http://www.w3.org/2000/svg" xmlns:xlink="http://www.w3.org/1999/xlink" x="0px" y="0px"
	 viewBox="0 0 114 103.7" style="enable-background:new 0 0 114 103.7;" xml:space="preserve">
<style type="text/css">
	.st0{fill:#4CE51D;}
</style>
<g id="NWthPm.tif">
	<g>
		<path class="st0" d="M47.6,96.2c8.9-13.9,17.7-27.4,26.4-41C85.4,37.6,96.7,20,108.1,2.3c0.4-0.6,0.6-1.4,1.2-1.6
			c1.1-0.4,2.8-1,3.5-0.5c0.8,0.6,1.1,2.3,1.2,3.6c0.1,0.5-0.6,1.1-1,1.7c-20.5,31.8-41,63.6-61.6,95.4c-2.3,3.5-3.6,3.7-6.7,0.9
			C30.6,89,16.4,76.2,2.2,63.3c-0.4-0.3-0.7-0.7-1.1-1c-1.3-1.3-1.6-2.8-0.3-4.2S3.6,56.8,5,58c4.2,3.8,8.4,7.6,12.6,11.4
			c9.3,8.4,18.7,16.8,28,25.2C46.2,95.1,46.8,95.6,47.6,96.2z"/>
	</g>
</g>
</svg>
