<?xml version="1.0" encoding="utf-8"?>
<!-- Generator: Adobe Illustrator 19.2.0, SVG Export Plug-In . SVG Version: 6.00 Build 0)  -->
<svg version="1.1" id="Layer_1" xmlns="http://www.w3.org/2000/svg" xmlns:xlink="http://www.w3.org/1999/xlink" x="0px" y="0px"
	 viewBox="0 0 112.4 112.3" style="enable-background:new 0 0 112.4 112.3;" xml:space="preserve">
<style type="text/css">
	.st0{fill:#E51D1F;}
</style>
<g id="ii1rC2.tif">
	<g>
		<path class="st0" d="M112.4,107.7c-1.7,1.7-3,3-4.2,4.3C91,94.8,73.8,77.6,56.7,60.6C39.3,78,22.1,95.2,5,112.3
			c-1.7-1.8-3-3.1-4.3-4.5c16.9-16.9,34.1-34.1,51.1-51.1C34.3,39.3,17.1,22.1,0,4.9c1.8-1.7,3.2-3,4.5-4.2
			c16.8,16.8,34,34,51.2,51.2C73.3,34.4,90.5,17.2,107.6,0c1.7,1.6,3.1,2.9,4.7,4.4C95.1,21.7,77.9,38.9,60.7,56
			C78,73.2,95.1,90.4,112.4,107.7z"/>
	</g>
</g>
</svg>
