<?xml version="1.0" encoding="utf-8"?>
<!-- Generator: Adobe Illustrator 19.2.0, SVG Export Plug-In . SVG Version: 6.00 Build 0)  -->
<svg version="1.1" id="Layer_1" xmlns="http://www.w3.org/2000/svg" xmlns:xlink="http://www.w3.org/1999/xlink" x="0px" y="0px"
	 viewBox="0 0 640 1202.4" style="enable-background:new 0 0 640 1202.4;" xml:space="preserve">
<style type="text/css">
	.st0{enable-background:new    ;}
	.st1{fill:#222222;}
	.st2{fill:none;stroke:#CECECE;stroke-miterlimit:10;}
	.st3{fill:#888888;}
	.st4{fill:#CECECE;}
</style>
<g class="st0">
	<path class="st1" d="M55,47.3c7.3-7.3,11.4-11.6,11.4-15.5c0-2.8-1.5-4.7-4.6-4.7c-2,0-3.8,1.3-5.2,2.9l-1.8-1.8
		c2-2.2,4.2-3.7,7.3-3.7c4.5,0,7.3,2.8,7.3,7.1c0,4.6-4.1,9.1-9.9,15.1c1.3-0.1,2.8-0.2,4.1-0.2h7v2.7H55V47.3z"/>
	<path class="st1" d="M75.4,46.6H81V28.7h-4.4v-2c2.2-0.4,3.8-1,5.1-1.8h2.4v21.7h5v2.6H75.4V46.6z"/>
</g>
<line class="st2" x1="0" y1="112.6" x2="640" y2="112.6"/>
<line class="st2" x1="148.5" y1="35.3" x2="148.5" y2="89.4"/>
<g class="st0">
	<path class="st3" d="M209.8,49.7h-7.6v-2.7h18.3v2.7H213V72h-3.2V49.7z"/>
	<path class="st3" d="M222.9,53.5h2.6l0.3,3.3h0.1c1.3-2.3,3.2-3.8,5.2-3.8c0.8,0,1.4,0.1,2,0.4l-0.6,2.7c-0.6-0.2-1-0.3-1.8-0.3
		c-1.6,0-3.4,1.1-4.7,4.3V72h-3.1V53.5z"/>
	<path class="st3" d="M245.6,60.3c0-2.4-0.8-4.6-3.8-4.6c-2.2,0-4.1,1-5.5,2l-1.3-2.2c1.7-1.1,4.3-2.4,7.3-2.4c4.5,0,6.4,3,6.4,7.6
		V72h-2.6l-0.3-2.2h-0.1c-1.8,1.4-3.8,2.7-6.1,2.7c-3.1,0-5.4-1.9-5.4-5.2C234.2,63.2,237.7,61.2,245.6,60.3z M240.5,69.9
		c1.8,0,3.3-0.9,5.1-2.5v-5.1c-6.2,0.8-8.3,2.3-8.3,4.6C237.3,69.1,238.7,69.9,240.5,69.9z"/>
	<path class="st3" d="M254,47.7c0-1.2,1-2,2.2-2s2.2,0.8,2.2,2c0,1.2-0.9,2-2.2,2S254,48.9,254,47.7z M254.6,53.5h3.1V72h-3.1V53.5z
		"/>
	<path class="st3" d="M263.9,53.5h2.6l0.3,2.7h0.1c1.7-1.7,3.6-3.1,6.2-3.1c3.9,0,5.6,2.5,5.6,7.2V72h-3.1V60.7
		c0-3.5-1.1-4.9-3.5-4.9c-1.9,0-3.2,1-5.1,2.8V72h-3.1V53.5z"/>
	<path class="st3" d="M284.1,47.7c0-1.2,1-2,2.2-2s2.2,0.8,2.2,2c0,1.2-0.9,2-2.2,2S284.1,48.9,284.1,47.7z M284.7,53.5h3.1V72h-3.1
		V53.5z"/>
	<path class="st3" d="M294.1,53.5h2.6l0.3,2.7h0.1c1.7-1.7,3.6-3.1,6.2-3.1c3.9,0,5.6,2.5,5.6,7.2V72h-3.1V60.7
		c0-3.5-1.1-4.9-3.5-4.9c-1.9,0-3.2,1-5.1,2.8V72h-3.1V53.5z"/>
	<path class="st3" d="M316.1,71.3v-0.2c-0.9-0.6-1.6-1.6-1.6-3c0-1.6,1.1-2.8,2-3.4v-0.2c-1.2-1-2.4-2.8-2.4-5c0-4,3.2-6.6,7-6.6
		c1,0,1.9,0.2,2.6,0.5h6.4v2.4h-3.8c0.9,0.8,1.5,2.2,1.5,3.8c0,4-3,6.4-6.8,6.4c-0.9,0-1.9-0.2-2.8-0.6c-0.6,0.6-1.2,1.2-1.2,2.2
		c0,1.2,0.8,2,3.3,2h3.6c4.3,0,6.5,1.3,6.5,4.4c0,3.4-3.6,6.4-9.3,6.4c-4.5,0-7.6-1.8-7.6-5C313.4,74,314.5,72.5,316.1,71.3z
		 M321.5,78.3c3.5,0,5.9-1.8,5.9-3.8c0-1.7-1.3-2.3-3.7-2.3h-3.2c-0.7,0-1.6-0.1-2.4-0.3c-1.3,1-1.9,2.1-1.9,3.1
		C316.2,77.1,318.2,78.3,321.5,78.3z M325,59.6c0-2.7-1.7-4.3-3.9-4.3c-2.2,0-3.9,1.6-3.9,4.3c0,2.7,1.8,4.4,3.9,4.4
		C323.2,64,325,62.3,325,59.6z"/>
</g>
<g>
	<path class="st4" d="M582.4,54c0.6,0.6,1,1,1.4,1.4c-5.1,5.1-10.2,10.2-15.2,15.2c-5-5-10.1-10.1-15.2-15.2
		c0.4-0.4,0.8-0.8,1.3-1.3c4.6,4.6,9.2,9.2,13.8,13.8C573.2,63.3,577.8,58.7,582.4,54z"/>
</g>
<g class="st0">
	<path class="st1" d="M55.8,155.9c8-8.1,12-12.6,12-16.8c0-3-1.6-5.4-5.3-5.4c-2.2,0-4.2,1.4-5.7,3.2l-1.1-1.1c1.8-2,4-3.6,6.9-3.6
		c4.3,0,6.8,2.7,6.8,6.8c0,4.8-4.4,9.5-11.1,16.6c1.3-0.1,2.7-0.2,4.1-0.2h8.3v1.5H55.8V155.9z"/>
	<path class="st1" d="M74,155.9c8-8.1,12-12.6,12-16.8c0-3-1.6-5.4-5.3-5.4c-2.2,0-4.2,1.4-5.7,3.2l-1.1-1.1c1.8-2,4-3.6,6.9-3.6
		c4.3,0,6.8,2.7,6.8,6.8c0,4.8-4.4,9.5-11.1,16.6c1.3-0.1,2.7-0.2,4.1-0.2h8.3v1.5H74V155.9z"/>
</g>
<g class="st0">
	<path class="st1" d="M52.5,184.3h1.7v21.6c0,3.6-1.3,5.3-4.1,5.3c-0.9,0-1.8-0.2-2.4-0.5l0.4-1.4c0.5,0.2,1.2,0.4,1.9,0.4
		c2.1,0,2.4-1.7,2.4-4V184.3z M51.9,178.4c0-1,0.7-1.5,1.5-1.5c0.8,0,1.6,0.6,1.6,1.5c0,0.9-0.7,1.5-1.6,1.5
		C52.6,179.9,51.9,179.3,51.9,178.4z"/>
	<path class="st1" d="M72,191.1c0.1-2.8-0.7-5.8-4.3-5.8c-2.5,0-4.6,1.2-5.8,2.1l-0.8-1.3c1.3-0.9,3.8-2.4,6.8-2.4
		c4.3,0,5.8,3.1,5.8,7v11.7h-1.4l-0.2-2.4H72c-1.9,1.5-4.1,2.8-6.5,2.8c-2.9,0-5.3-1.6-5.3-5C60.2,194,63.9,192,72,191.1z
		 M65.8,201.6c2.1,0,4-1,6.2-3v-6.2c-7.5,0.9-10,2.6-10,5.5C61.9,200.5,63.7,201.6,65.8,201.6z"/>
	<path class="st1" d="M80.2,184.3h1.4l0.2,2.8h0.1c1.9-1.9,3.8-3.3,6.3-3.3c3.8,0,5.5,2.3,5.5,7v11.7H92v-11.5
		c0-3.9-1.2-5.7-4.2-5.7c-2.2,0-3.7,1.1-6,3.4v13.8h-1.7V184.3z"/>
</g>
<line class="st2" x1="0" y1="220.3" x2="640" y2="220.3"/>
<line class="st2" x1="148.5" y1="143.1" x2="148.5" y2="197.1"/>
<g class="st0">
	<path class="st3" d="M210.3,156.2h-8v-1.5H220v1.5H212v23.5h-1.7V156.2z"/>
	<path class="st3" d="M222.6,161.5h1.4l0.2,3.4h0.1c1.2-2.2,3-3.8,5.2-3.8c0.7,0,1.2,0.1,1.8,0.4l-0.4,1.5c-0.6-0.2-1-0.3-1.7-0.3
		c-1.6,0-3.6,1.3-5,4.7v12.4h-1.7V161.5z"/>
	<path class="st3" d="M244.5,168.3c0.1-2.8-0.7-5.8-4.3-5.8c-2.5,0-4.6,1.2-5.8,2.1l-0.8-1.3c1.3-0.9,3.8-2.4,6.8-2.4
		c4.3,0,5.8,3.1,5.8,7v11.7h-1.4l-0.2-2.4h-0.1c-1.9,1.5-4.1,2.8-6.5,2.8c-2.9,0-5.3-1.6-5.3-5C232.8,171.2,236.4,169.2,244.5,168.3
		z M238.3,178.8c2.1,0,4-1,6.2-3v-6.2c-7.5,0.9-10,2.6-10,5.5C234.5,177.7,236.3,178.8,238.3,178.8z"/>
	<path class="st3" d="M252.1,155.6c0-1,0.7-1.5,1.5-1.5c0.8,0,1.5,0.6,1.5,1.5c0,0.9-0.7,1.5-1.5,1.5
		C252.8,157.1,252.1,156.5,252.1,155.6z M252.7,161.5h1.7v18.2h-1.7V161.5z"/>
	<path class="st3" d="M261.4,161.5h1.4l0.2,2.8h0.1c1.9-1.9,3.8-3.3,6.3-3.3c3.8,0,5.5,2.3,5.5,7v11.7h-1.7v-11.5
		c0-3.9-1.2-5.7-4.2-5.7c-2.2,0-3.7,1.1-6,3.4v13.8h-1.7V161.5z"/>
	<path class="st3" d="M281,155.6c0-1,0.7-1.5,1.5-1.5c0.8,0,1.5,0.6,1.5,1.5c0,0.9-0.7,1.5-1.5,1.5C281.7,157.1,281,156.5,281,155.6
		z M281.7,161.5h1.7v18.2h-1.7V161.5z"/>
	<path class="st3" d="M290.4,161.5h1.4l0.2,2.8h0.1c1.9-1.9,3.8-3.3,6.3-3.3c3.8,0,5.5,2.3,5.5,7v11.7h-1.7v-11.5
		c0-3.9-1.2-5.7-4.2-5.7c-2.2,0-3.7,1.1-6,3.4v13.8h-1.7V161.5z"/>
	<path class="st3" d="M311.8,179.1v-0.2c-0.9-0.5-1.6-1.5-1.6-2.9c0-1.6,1.2-2.8,2-3.3v-0.2c-1.1-1-2.3-2.8-2.3-5
		c0-3.8,2.8-6.4,6.4-6.4c1,0,1.8,0.2,2.4,0.5h6.2v1.4h-4.3c1.2,1,2,2.7,2,4.6c0,3.7-2.8,6.4-6.3,6.4c-1,0-2.2-0.3-3-0.8
		c-0.8,0.6-1.5,1.4-1.5,2.6c0,1.3,0.8,2.4,3.5,2.4h3.9c4.1,0,6,1.3,6,4.2c0,3.2-3.4,6.2-8.6,6.2c-4.6,0-7.5-2-7.5-5.1
		C309.1,181.9,310.1,180.3,311.8,179.1z M316.7,187.2c4.1,0,6.7-2.3,6.7-4.6c0-2-1.5-2.8-4.2-2.8h-3.9c-0.4,0-1.3-0.1-2.3-0.3
		c-1.7,1.1-2.4,2.5-2.4,3.8C310.7,185.6,312.9,187.2,316.7,187.2z M321,167.5c0-3.1-2.1-5.1-4.7-5.1c-2.6,0-4.7,1.9-4.7,5.1
		c0,3.1,2.2,5.1,4.7,5.1C318.8,172.6,321,170.6,321,167.5z"/>
</g>
<g class="st0">
	<path class="st1" d="M55.8,263.7c8-8.1,12-12.6,12-16.8c0-3-1.6-5.4-5.3-5.4c-2.2,0-4.2,1.4-5.7,3.2l-1.1-1.1c1.8-2,4-3.6,6.9-3.6
		c4.3,0,6.8,2.7,6.8,6.8c0,4.8-4.4,9.5-11.1,16.6c1.3-0.1,2.7-0.2,4.1-0.2h8.3v1.5H55.8V263.7z"/>
	<path class="st1" d="M74.5,260.6c1.4,1.6,3.4,3.1,6.7,3.1c3.3,0,5.7-2.1,5.7-5.4c0-3.3-2.4-5.6-8.5-5.6v-1.5c5.6,0,7.6-2.4,7.6-5.3
		c0-2.7-1.9-4.5-4.9-4.5c-2.2,0-4.2,1.2-5.6,2.7l-1-1.1c1.7-1.6,3.8-3,6.6-3c3.8,0,6.6,2.1,6.6,5.9c0,3.2-2,5.1-4.6,6v0.2
		c3,0.6,5.5,2.9,5.5,6.3c0,4.2-3.2,6.9-7.4,6.9c-3.9,0-6.2-1.8-7.7-3.4L74.5,260.6z"/>
</g>
<g class="st0">
	<path class="st1" d="M52.5,292.1h1.7v21.6c0,3.6-1.3,5.3-4.1,5.3c-0.9,0-1.8-0.2-2.4-0.5l0.4-1.4c0.5,0.2,1.2,0.4,1.9,0.4
		c2.1,0,2.4-1.7,2.4-4V292.1z M51.9,286.2c0-1,0.7-1.5,1.5-1.5c0.8,0,1.6,0.6,1.6,1.5c0,0.9-0.7,1.5-1.6,1.5
		C52.6,287.7,51.9,287.1,51.9,286.2z"/>
	<path class="st1" d="M72,298.9c0.1-2.8-0.7-5.8-4.3-5.8c-2.5,0-4.6,1.2-5.8,2.1l-0.8-1.3c1.3-0.9,3.8-2.4,6.8-2.4
		c4.3,0,5.8,3.1,5.8,7v11.7h-1.4L72,308H72c-1.9,1.5-4.1,2.8-6.5,2.8c-2.9,0-5.3-1.6-5.3-5C60.2,301.7,63.9,299.8,72,298.9z
		 M65.8,309.3c2.1,0,4-1,6.2-3v-6.2c-7.5,0.9-10,2.6-10,5.5C61.9,308.3,63.7,309.3,65.8,309.3z"/>
	<path class="st1" d="M80.2,292.1h1.4l0.2,2.8h0.1c1.9-1.9,3.8-3.3,6.3-3.3c3.8,0,5.5,2.3,5.5,7v11.7H92v-11.5
		c0-3.9-1.2-5.7-4.2-5.7c-2.2,0-3.7,1.1-6,3.4v13.8h-1.7V292.1z"/>
</g>
<line class="st2" x1="0" y1="328.1" x2="640" y2="328.1"/>
<line class="st2" x1="148.5" y1="250.9" x2="148.5" y2="304.9"/>
<g class="st0">
	<path class="st3" d="M204.9,262.5h1.7v11H220v-11h1.7v25H220V275h-13.4v12.5h-1.7V262.5z"/>
	<path class="st3" d="M235.3,268.8c4.3,0,7,3.1,7,8.4c0,0.5,0,0.9-0.1,1.4H229c0.1,4.6,2.8,7.9,6.9,7.9c2,0,3.5-0.6,4.9-1.6l0.7,1.3
		c-1.4,0.9-3.1,1.8-5.7,1.8c-4.7,0-8.4-3.6-8.4-9.5C227.3,272.5,231.2,268.8,235.3,268.8z M240.7,277.3c0-4.7-2.1-7.1-5.4-7.1
		c-3.1,0-5.9,2.7-6.3,7.1H240.7z"/>
	<path class="st3" d="M247.2,269.3h1.4l0.2,3.4h0.1c1.2-2.2,3-3.8,5.2-3.8c0.7,0,1.2,0.1,1.8,0.4l-0.4,1.5c-0.6-0.2-1-0.3-1.7-0.3
		c-1.6,0-3.6,1.3-5,4.7v12.4h-1.7V269.3z"/>
	<path class="st3" d="M257.6,284.2c1.6,1.3,3.2,2.3,5.8,2.3c2.8,0,4.3-1.7,4.3-3.6c0-2.3-2.4-3.3-4.4-4c-2.8-1-5.8-2.1-5.8-5.2
		c0-2.7,2.1-4.9,5.9-4.9c1.9,0,3.9,0.8,5.2,1.9l-0.9,1.2c-1.2-0.9-2.5-1.6-4.4-1.6c-2.8,0-4.1,1.6-4.1,3.3c0,2,2.1,2.9,4.3,3.7
		c2.8,1.1,6,2,6,5.6c0,2.7-2.2,5.1-6.2,5.1c-2.7,0-5.1-1.1-6.7-2.5L257.6,284.2z"/>
	<path class="st3" d="M274.7,270.7h-2.8v-1.3l2.9-0.2l0.2-5.3h1.4v5.3h5.3v1.4h-5.3v11.9c0,2.3,0.6,3.9,3.1,3.9
		c0.7,0,1.6-0.3,2.3-0.6l0.5,1.4c-1.1,0.4-2.2,0.7-3,0.7c-3.5,0-4.6-2.2-4.6-5.5V270.7z"/>
	<path class="st3" d="M292.2,268.8c4.3,0,7,3.1,7,8.4c0,0.5,0,0.9-0.1,1.4h-13.1c0.1,4.6,2.8,7.9,6.9,7.9c2,0,3.5-0.6,4.9-1.6
		l0.7,1.3c-1.4,0.9-3.1,1.8-5.7,1.8c-4.7,0-8.4-3.6-8.4-9.5C284.2,272.5,288.1,268.8,292.2,268.8z M297.5,277.3
		c0-4.7-2.1-7.1-5.4-7.1c-3.1,0-5.9,2.7-6.3,7.1H297.5z"/>
	<path class="st3" d="M304.1,260.2h1.7v25.1c0,0.8,0.3,1.2,0.8,1.2c0.2,0,0.3,0,0.7-0.1l0.3,1.4c-0.3,0.1-0.7,0.2-1.2,0.2
		c-1.5,0-2.2-0.9-2.2-2.9V260.2z"/>
</g>
<g class="st0">
	<path class="st1" d="M55.8,371.4c8-8.1,12-12.6,12-16.8c0-3-1.6-5.4-5.3-5.4c-2.2,0-4.2,1.4-5.7,3.2l-1.1-1.1c1.8-2,4-3.6,6.9-3.6
		c4.3,0,6.8,2.7,6.8,6.8c0,4.8-4.4,9.5-11.1,16.6c1.3-0.1,2.7-0.2,4.1-0.2h8.3v1.5H55.8V371.4z"/>
	<path class="st1" d="M89.4,365.2h-3.6v7.3h-1.6v-7.3H73v-1l11.3-16h1.5v15.6h3.6V365.2z M84.2,363.8v-8.9c0-1.1,0.1-3.1,0.2-4.2
		h-0.2c-0.6,1-1.3,1.9-2,3l-7.1,10H84.2z"/>
</g>
<g class="st0">
	<path class="st1" d="M52.5,399.8h1.7v21.6c0,3.6-1.3,5.3-4.1,5.3c-0.9,0-1.8-0.2-2.4-0.5l0.4-1.4c0.5,0.2,1.2,0.4,1.9,0.4
		c2.1,0,2.4-1.7,2.4-4V399.8z M51.9,394c0-1,0.7-1.5,1.5-1.5c0.8,0,1.6,0.6,1.6,1.5c0,0.9-0.7,1.5-1.6,1.5
		C52.6,395.4,51.9,394.8,51.9,394z"/>
	<path class="st1" d="M72,406.6c0.1-2.8-0.7-5.8-4.3-5.8c-2.5,0-4.6,1.2-5.8,2.1l-0.8-1.3c1.3-0.9,3.8-2.4,6.8-2.4
		c4.3,0,5.8,3.1,5.8,7v11.7h-1.4l-0.2-2.4H72c-1.9,1.5-4.1,2.8-6.5,2.8c-2.9,0-5.3-1.6-5.3-5C60.2,409.5,63.9,407.6,72,406.6z
		 M65.8,417.1c2.1,0,4-1,6.2-3v-6.2c-7.5,0.9-10,2.6-10,5.5C61.9,416.1,63.7,417.1,65.8,417.1z"/>
	<path class="st1" d="M80.2,399.8h1.4l0.2,2.8h0.1c1.9-1.9,3.8-3.3,6.3-3.3c3.8,0,5.5,2.3,5.5,7v11.7H92v-11.5
		c0-3.9-1.2-5.7-4.2-5.7c-2.2,0-3.7,1.1-6,3.4v13.8h-1.7V399.8z"/>
</g>
<line class="st2" x1="0" y1="435.9" x2="640" y2="435.9"/>
<line class="st2" x1="148.5" y1="358.6" x2="148.5" y2="412.7"/>
<g class="st0">
	<path class="st3" d="M210.3,371.8h-8v-1.5H220v1.5H212v23.5h-1.7V371.8z"/>
	<path class="st3" d="M222.6,377h1.4l0.2,3.4h0.1c1.2-2.2,3-3.8,5.2-3.8c0.7,0,1.2,0.1,1.8,0.4l-0.4,1.5c-0.6-0.2-1-0.3-1.7-0.3
		c-1.6,0-3.6,1.3-5,4.7v12.4h-1.7V377z"/>
	<path class="st3" d="M244.5,383.8c0.1-2.8-0.7-5.8-4.3-5.8c-2.5,0-4.6,1.2-5.8,2.1l-0.8-1.3c1.3-0.9,3.8-2.4,6.8-2.4
		c4.3,0,5.8,3.1,5.8,7v11.7h-1.4l-0.2-2.4h-0.1c-1.9,1.5-4.1,2.8-6.5,2.8c-2.9,0-5.3-1.6-5.3-5C232.8,386.7,236.4,384.8,244.5,383.8
		z M238.3,394.3c2.1,0,4-1,6.2-3v-6.2c-7.5,0.9-10,2.6-10,5.5C234.5,393.3,236.3,394.3,238.3,394.3z"/>
	<path class="st3" d="M252.1,371.2c0-1,0.7-1.5,1.5-1.5c0.8,0,1.5,0.6,1.5,1.5c0,0.9-0.7,1.5-1.5,1.5
		C252.8,372.6,252.1,372,252.1,371.2z M252.7,377h1.7v18.2h-1.7V377z"/>
	<path class="st3" d="M261.4,377h1.4l0.2,2.8h0.1c1.9-1.9,3.8-3.3,6.3-3.3c3.8,0,5.5,2.3,5.5,7v11.7h-1.7v-11.5
		c0-3.9-1.2-5.7-4.2-5.7c-2.2,0-3.7,1.1-6,3.4v13.8h-1.7V377z"/>
	<path class="st3" d="M281,371.2c0-1,0.7-1.5,1.5-1.5c0.8,0,1.5,0.6,1.5,1.5c0,0.9-0.7,1.5-1.5,1.5C281.7,372.6,281,372,281,371.2z
		 M281.7,377h1.7v18.2h-1.7V377z"/>
	<path class="st3" d="M290.4,377h1.4l0.2,2.8h0.1c1.9-1.9,3.8-3.3,6.3-3.3c3.8,0,5.5,2.3,5.5,7v11.7h-1.7v-11.5
		c0-3.9-1.2-5.7-4.2-5.7c-2.2,0-3.7,1.1-6,3.4v13.8h-1.7V377z"/>
	<path class="st3" d="M311.8,394.6v-0.2c-0.9-0.5-1.6-1.5-1.6-2.9c0-1.6,1.2-2.8,2-3.3V388c-1.1-1-2.3-2.8-2.3-5
		c0-3.8,2.8-6.4,6.4-6.4c1,0,1.8,0.2,2.4,0.5h6.2v1.4h-4.3c1.2,1,2,2.7,2,4.6c0,3.7-2.8,6.4-6.3,6.4c-1,0-2.2-0.3-3-0.8
		c-0.8,0.6-1.5,1.4-1.5,2.6c0,1.3,0.8,2.4,3.5,2.4h3.9c4.1,0,6,1.3,6,4.2c0,3.2-3.4,6.2-8.6,6.2c-4.6,0-7.5-2-7.5-5.1
		C309.1,397.4,310.1,395.8,311.8,394.6z M316.7,402.7c4.1,0,6.7-2.3,6.7-4.6c0-2-1.5-2.8-4.2-2.8h-3.9c-0.4,0-1.3-0.1-2.3-0.3
		c-1.7,1.1-2.4,2.5-2.4,3.8C310.7,401.1,312.9,402.7,316.7,402.7z M321,383c0-3.1-2.1-5.1-4.7-5.1c-2.6,0-4.7,1.9-4.7,5.1
		c0,3.1,2.2,5.1,4.7,5.1C318.8,388.1,321,386.1,321,383z"/>
</g>
<g class="st0">
	<path class="st1" d="M55.8,479.2c8-8.1,12-12.6,12-16.8c0-3-1.6-5.4-5.3-5.4c-2.2,0-4.2,1.4-5.7,3.2l-1.1-1.1c1.8-2,4-3.6,6.9-3.6
		c4.3,0,6.8,2.7,6.8,6.8c0,4.8-4.4,9.5-11.1,16.6c1.3-0.1,2.7-0.2,4.1-0.2h8.3v1.5H55.8V479.2z"/>
	<path class="st1" d="M74.4,476.3c1.4,1.5,3.3,3,6.6,3c3.2,0,6-2.6,6-6.5c0-3.9-2.3-6.3-5.9-6.3c-1.9,0-3.1,0.6-4.5,1.6l-1.2-0.7
		l0.9-11.4h11.2v1.5h-9.7l-0.8,8.8c1.3-0.8,2.5-1.3,4.3-1.3c4.1,0,7.4,2.4,7.4,7.7c0,5.2-3.8,8.1-7.8,8.1c-3.9,0-6.1-1.7-7.6-3.3
		L74.4,476.3z"/>
</g>
<g class="st0">
	<path class="st1" d="M52.5,507.6h1.7v21.6c0,3.6-1.3,5.3-4.1,5.3c-0.9,0-1.8-0.2-2.4-0.5l0.4-1.4c0.5,0.2,1.2,0.4,1.9,0.4
		c2.1,0,2.4-1.7,2.4-4V507.6z M51.9,501.7c0-1,0.7-1.5,1.5-1.5c0.8,0,1.6,0.6,1.6,1.5c0,0.9-0.7,1.5-1.6,1.5
		C52.6,503.2,51.9,502.6,51.9,501.7z"/>
	<path class="st1" d="M72,514.4c0.1-2.8-0.7-5.8-4.3-5.8c-2.5,0-4.6,1.2-5.8,2.1l-0.8-1.3c1.3-0.9,3.8-2.4,6.8-2.4
		c4.3,0,5.8,3.1,5.8,7v11.7h-1.4l-0.2-2.4H72c-1.9,1.5-4.1,2.8-6.5,2.8c-2.9,0-5.3-1.6-5.3-5C60.2,517.3,63.9,515.3,72,514.4z
		 M65.8,524.9c2.1,0,4-1,6.2-3v-6.2c-7.5,0.9-10,2.6-10,5.5C61.9,523.8,63.7,524.9,65.8,524.9z"/>
	<path class="st1" d="M80.2,507.6h1.4l0.2,2.8h0.1c1.9-1.9,3.8-3.3,6.3-3.3c3.8,0,5.5,2.3,5.5,7v11.7H92v-11.5
		c0-3.9-1.2-5.7-4.2-5.7c-2.2,0-3.7,1.1-6,3.4v13.8h-1.7V507.6z"/>
</g>
<line class="st2" x1="0" y1="543.6" x2="640" y2="543.6"/>
<line class="st2" x1="148.5" y1="466.4" x2="148.5" y2="520.4"/>
<g class="st0">
	<path class="st3" d="M210.3,479.5h-8V478H220v1.5H212v23.5h-1.7V479.5z"/>
	<path class="st3" d="M222.6,484.8h1.4l0.2,3.4h0.1c1.2-2.2,3-3.8,5.2-3.8c0.7,0,1.2,0.1,1.8,0.4l-0.4,1.5c-0.6-0.2-1-0.3-1.7-0.3
		c-1.6,0-3.6,1.3-5,4.7v12.4h-1.7V484.8z"/>
	<path class="st3" d="M244.5,491.6c0.1-2.8-0.7-5.8-4.3-5.8c-2.5,0-4.6,1.2-5.8,2.1l-0.8-1.3c1.3-0.9,3.8-2.4,6.8-2.4
		c4.3,0,5.8,3.1,5.8,7v11.7h-1.4l-0.2-2.4h-0.1c-1.9,1.5-4.1,2.8-6.5,2.8c-2.9,0-5.3-1.6-5.3-5C232.8,494.5,236.4,492.5,244.5,491.6
		z M238.3,502.1c2.1,0,4-1,6.2-3v-6.2c-7.5,0.9-10,2.6-10,5.5C234.5,501,236.3,502.1,238.3,502.1z"/>
	<path class="st3" d="M252.1,478.9c0-1,0.7-1.5,1.5-1.5c0.8,0,1.5,0.6,1.5,1.5c0,0.9-0.7,1.5-1.5,1.5
		C252.8,480.4,252.1,479.8,252.1,478.9z M252.7,484.8h1.7v18.2h-1.7V484.8z"/>
	<path class="st3" d="M261.4,484.8h1.4l0.2,2.8h0.1c1.9-1.9,3.8-3.3,6.3-3.3c3.8,0,5.5,2.3,5.5,7v11.7h-1.7v-11.5
		c0-3.9-1.2-5.7-4.2-5.7c-2.2,0-3.7,1.1-6,3.4v13.8h-1.7V484.8z"/>
	<path class="st3" d="M281,478.9c0-1,0.7-1.5,1.5-1.5c0.8,0,1.5,0.6,1.5,1.5c0,0.9-0.7,1.5-1.5,1.5C281.7,480.4,281,479.8,281,478.9
		z M281.7,484.8h1.7v18.2h-1.7V484.8z"/>
	<path class="st3" d="M290.4,484.8h1.4l0.2,2.8h0.1c1.9-1.9,3.8-3.3,6.3-3.3c3.8,0,5.5,2.3,5.5,7v11.7h-1.7v-11.5
		c0-3.9-1.2-5.7-4.2-5.7c-2.2,0-3.7,1.1-6,3.4v13.8h-1.7V484.8z"/>
	<path class="st3" d="M311.8,502.4v-0.2c-0.9-0.5-1.6-1.5-1.6-2.9c0-1.6,1.2-2.8,2-3.3v-0.2c-1.1-1-2.3-2.8-2.3-5
		c0-3.8,2.8-6.4,6.4-6.4c1,0,1.8,0.2,2.4,0.5h6.2v1.4h-4.3c1.2,1,2,2.7,2,4.6c0,3.7-2.8,6.4-6.3,6.4c-1,0-2.2-0.3-3-0.8
		c-0.8,0.6-1.5,1.4-1.5,2.6c0,1.3,0.8,2.4,3.5,2.4h3.9c4.1,0,6,1.3,6,4.2c0,3.2-3.4,6.2-8.6,6.2c-4.6,0-7.5-2-7.5-5.1
		C309.1,505.2,310.1,503.6,311.8,502.4z M316.7,510.5c4.1,0,6.7-2.3,6.7-4.6c0-2-1.5-2.8-4.2-2.8h-3.9c-0.4,0-1.3-0.1-2.3-0.3
		c-1.7,1.1-2.4,2.5-2.4,3.8C310.7,508.9,312.9,510.5,316.7,510.5z M321,490.8c0-3.1-2.1-5.1-4.7-5.1c-2.6,0-4.7,1.9-4.7,5.1
		c0,3.1,2.2,5.1,4.7,5.1C318.8,495.9,321,493.9,321,490.8z"/>
</g>
<g class="st0">
	<path class="st1" d="M55.8,587c8-8.1,12-12.6,12-16.8c0-3-1.6-5.4-5.3-5.4c-2.2,0-4.2,1.4-5.7,3.2l-1.1-1.1c1.8-2,4-3.6,6.9-3.6
		c4.3,0,6.8,2.7,6.8,6.8c0,4.8-4.4,9.5-11.1,16.6c1.3-0.1,2.7-0.2,4.1-0.2h8.3v1.5H55.8V587z"/>
	<path class="st1" d="M87.4,566.8c-1.1-1.3-2.5-2-4.1-2c-3.8,0-7.1,3-7.2,12c1.7-2.1,3.9-3.4,6.1-3.4c4.3,0,6.8,2.6,6.8,7.5
		c0,4.4-3,7.6-6.6,7.6c-4.9,0-7.9-4.1-7.9-11.5c0-10.2,4.3-13.7,8.9-13.7c2.3,0,3.9,1,5.1,2.4L87.4,566.8z M87.3,580.9
		c0-3.5-1.6-6.1-5.2-6.1c-1.7,0-3.9,1-5.9,3.6c0.3,5.1,2.3,8.6,6.2,8.6C85.2,587,87.3,584.3,87.3,580.9z"/>
</g>
<g class="st0">
	<path class="st1" d="M52.5,615.4h1.7V637c0,3.6-1.3,5.3-4.1,5.3c-0.9,0-1.8-0.2-2.4-0.5l0.4-1.4c0.5,0.2,1.2,0.4,1.9,0.4
		c2.1,0,2.4-1.7,2.4-4V615.4z M51.9,609.5c0-1,0.7-1.5,1.5-1.5c0.8,0,1.6,0.6,1.6,1.5c0,0.9-0.7,1.5-1.6,1.5
		C52.6,611,51.9,610.4,51.9,609.5z"/>
	<path class="st1" d="M72,622.2c0.1-2.8-0.7-5.8-4.3-5.8c-2.5,0-4.6,1.2-5.8,2.1l-0.8-1.3c1.3-0.9,3.8-2.4,6.8-2.4
		c4.3,0,5.8,3.1,5.8,7v11.7h-1.4l-0.2-2.4H72c-1.9,1.5-4.1,2.8-6.5,2.8c-2.9,0-5.3-1.6-5.3-5C60.2,625,63.9,623.1,72,622.2z
		 M65.8,632.6c2.1,0,4-1,6.2-3v-6.2c-7.5,0.9-10,2.6-10,5.5C61.9,631.6,63.7,632.6,65.8,632.6z"/>
	<path class="st1" d="M80.2,615.4h1.4l0.2,2.8h0.1c1.9-1.9,3.8-3.3,6.3-3.3c3.8,0,5.5,2.3,5.5,7v11.7H92v-11.5
		c0-3.9-1.2-5.7-4.2-5.7c-2.2,0-3.7,1.1-6,3.4v13.8h-1.7V615.4z"/>
</g>
<line class="st2" x1="0" y1="651.4" x2="640" y2="651.4"/>
<line class="st2" x1="148.5" y1="574.2" x2="148.5" y2="628.2"/>
<g class="st0">
	<path class="st3" d="M204.9,585.8h1.7v11H220v-11h1.7v25H220v-12.5h-13.4v12.5h-1.7V585.8z"/>
	<path class="st3" d="M235.3,592.1c4.3,0,7,3.1,7,8.4c0,0.5,0,0.9-0.1,1.4H229c0.1,4.6,2.8,7.9,6.9,7.9c2,0,3.5-0.6,4.9-1.6l0.7,1.3
		c-1.4,0.9-3.1,1.8-5.7,1.8c-4.7,0-8.4-3.6-8.4-9.5C227.3,595.8,231.2,592.1,235.3,592.1z M240.7,600.6c0-4.7-2.1-7.1-5.4-7.1
		c-3.1,0-5.9,2.7-6.3,7.1H240.7z"/>
	<path class="st3" d="M247.2,592.6h1.4l0.2,3.4h0.1c1.2-2.2,3-3.8,5.2-3.8c0.7,0,1.2,0.1,1.8,0.4l-0.4,1.5c-0.6-0.2-1-0.3-1.7-0.3
		c-1.6,0-3.6,1.3-5,4.7v12.4h-1.7V592.6z"/>
	<path class="st3" d="M257.6,607.5c1.6,1.3,3.2,2.3,5.8,2.3c2.8,0,4.3-1.7,4.3-3.6c0-2.3-2.4-3.3-4.4-4c-2.8-1-5.8-2.1-5.8-5.2
		c0-2.7,2.1-4.9,5.9-4.9c1.9,0,3.9,0.8,5.2,1.9l-0.9,1.2c-1.2-0.9-2.5-1.6-4.4-1.6c-2.8,0-4.1,1.6-4.1,3.3c0,2,2.1,2.9,4.3,3.7
		c2.8,1.1,6,2,6,5.6c0,2.7-2.2,5.1-6.2,5.1c-2.7,0-5.1-1.1-6.7-2.5L257.6,607.5z"/>
	<path class="st3" d="M274.7,594h-2.8v-1.3l2.9-0.2l0.2-5.3h1.4v5.3h5.3v1.4h-5.3v11.9c0,2.3,0.6,3.9,3.1,3.9c0.7,0,1.6-0.3,2.3-0.6
		l0.5,1.4c-1.1,0.4-2.2,0.7-3,0.7c-3.5,0-4.6-2.2-4.6-5.5V594z"/>
	<path class="st3" d="M292.2,592.1c4.3,0,7,3.1,7,8.4c0,0.5,0,0.9-0.1,1.4h-13.1c0.1,4.6,2.8,7.9,6.9,7.9c2,0,3.5-0.6,4.9-1.6
		l0.7,1.3c-1.4,0.9-3.1,1.8-5.7,1.8c-4.7,0-8.4-3.6-8.4-9.5C284.2,595.8,288.1,592.1,292.2,592.1z M297.5,600.6
		c0-4.7-2.1-7.1-5.4-7.1c-3.1,0-5.9,2.7-6.3,7.1H297.5z"/>
	<path class="st3" d="M304.1,583.5h1.7v25.1c0,0.8,0.3,1.2,0.8,1.2c0.2,0,0.3,0,0.7-0.1l0.3,1.4c-0.3,0.1-0.7,0.2-1.2,0.2
		c-1.5,0-2.2-0.9-2.2-2.9V583.5z"/>
</g>
<g class="st0">
	<path class="st1" d="M55.8,694.7c8-8.1,12-12.6,12-16.8c0-3-1.6-5.4-5.3-5.4c-2.2,0-4.2,1.4-5.7,3.2l-1.1-1.1c1.8-2,4-3.6,6.9-3.6
		c4.3,0,6.8,2.7,6.8,6.8c0,4.8-4.4,9.5-11.1,16.6c1.3-0.1,2.7-0.2,4.1-0.2h8.3v1.5H55.8V694.7z"/>
	<path class="st1" d="M86.9,673H74.1v-1.5H89v1c-5.8,7.7-7.3,13.8-7.6,23.3h-1.8C79.9,686,82,679.8,86.9,673z"/>
</g>
<g class="st0">
	<path class="st1" d="M52.5,723.1h1.7v21.6c0,3.6-1.3,5.3-4.1,5.3c-0.9,0-1.8-0.2-2.4-0.5l0.4-1.4c0.5,0.2,1.2,0.4,1.9,0.4
		c2.1,0,2.4-1.7,2.4-4V723.1z M51.9,717.3c0-1,0.7-1.5,1.5-1.5c0.8,0,1.6,0.6,1.6,1.5c0,0.9-0.7,1.5-1.6,1.5
		C52.6,718.7,51.9,718.1,51.9,717.3z"/>
	<path class="st1" d="M72,729.9c0.1-2.8-0.7-5.8-4.3-5.8c-2.5,0-4.6,1.2-5.8,2.1l-0.8-1.3c1.3-0.9,3.8-2.4,6.8-2.4
		c4.3,0,5.8,3.1,5.8,7v11.7h-1.4L72,739H72c-1.9,1.5-4.1,2.8-6.5,2.8c-2.9,0-5.3-1.6-5.3-5C60.2,732.8,63.9,730.9,72,729.9z
		 M65.8,740.4c2.1,0,4-1,6.2-3v-6.2c-7.5,0.9-10,2.6-10,5.5C61.9,739.4,63.7,740.4,65.8,740.4z"/>
	<path class="st1" d="M80.2,723.1h1.4l0.2,2.8h0.1c1.9-1.9,3.8-3.3,6.3-3.3c3.8,0,5.5,2.3,5.5,7v11.7H92v-11.5
		c0-3.9-1.2-5.7-4.2-5.7c-2.2,0-3.7,1.1-6,3.4v13.8h-1.7V723.1z"/>
</g>
<line class="st2" x1="0" y1="759.2" x2="640" y2="759.2"/>
<line class="st2" x1="148.5" y1="681.9" x2="148.5" y2="736"/>
<g class="st0">
	<path class="st3" d="M210.3,695.1h-8v-1.5H220v1.5H212v23.5h-1.7V695.1z"/>
	<path class="st3" d="M222.6,700.3h1.4l0.2,3.4h0.1c1.2-2.2,3-3.8,5.2-3.8c0.7,0,1.2,0.1,1.8,0.4l-0.4,1.5c-0.6-0.2-1-0.3-1.7-0.3
		c-1.6,0-3.6,1.3-5,4.7v12.4h-1.7V700.3z"/>
	<path class="st3" d="M244.5,707.1c0.1-2.8-0.7-5.8-4.3-5.8c-2.5,0-4.6,1.2-5.8,2.1l-0.8-1.3c1.3-0.9,3.8-2.4,6.8-2.4
		c4.3,0,5.8,3.1,5.8,7v11.7h-1.4l-0.2-2.4h-0.1c-1.9,1.5-4.1,2.8-6.5,2.8c-2.9,0-5.3-1.6-5.3-5C232.8,710,236.4,708.1,244.5,707.1z
		 M238.3,717.6c2.1,0,4-1,6.2-3v-6.2c-7.5,0.9-10,2.6-10,5.5C234.5,716.6,236.3,717.6,238.3,717.6z"/>
	<path class="st3" d="M252.1,694.5c0-1,0.7-1.5,1.5-1.5c0.8,0,1.5,0.6,1.5,1.5c0,0.9-0.7,1.5-1.5,1.5
		C252.8,695.9,252.1,695.3,252.1,694.5z M252.7,700.3h1.7v18.2h-1.7V700.3z"/>
	<path class="st3" d="M261.4,700.3h1.4l0.2,2.8h0.1c1.9-1.9,3.8-3.3,6.3-3.3c3.8,0,5.5,2.3,5.5,7v11.7h-1.7v-11.5
		c0-3.9-1.2-5.7-4.2-5.7c-2.2,0-3.7,1.1-6,3.4v13.8h-1.7V700.3z"/>
	<path class="st3" d="M281,694.5c0-1,0.7-1.5,1.5-1.5c0.8,0,1.5,0.6,1.5,1.5c0,0.9-0.7,1.5-1.5,1.5C281.7,695.9,281,695.3,281,694.5
		z M281.7,700.3h1.7v18.2h-1.7V700.3z"/>
	<path class="st3" d="M290.4,700.3h1.4l0.2,2.8h0.1c1.9-1.9,3.8-3.3,6.3-3.3c3.8,0,5.5,2.3,5.5,7v11.7h-1.7v-11.5
		c0-3.9-1.2-5.7-4.2-5.7c-2.2,0-3.7,1.1-6,3.4v13.8h-1.7V700.3z"/>
	<path class="st3" d="M311.8,717.9v-0.2c-0.9-0.5-1.6-1.5-1.6-2.9c0-1.6,1.2-2.8,2-3.3v-0.2c-1.1-1-2.3-2.8-2.3-5
		c0-3.8,2.8-6.4,6.4-6.4c1,0,1.8,0.2,2.4,0.5h6.2v1.4h-4.3c1.2,1,2,2.7,2,4.6c0,3.7-2.8,6.4-6.3,6.4c-1,0-2.2-0.3-3-0.8
		c-0.8,0.6-1.5,1.4-1.5,2.6c0,1.3,0.8,2.4,3.5,2.4h3.9c4.1,0,6,1.3,6,4.2c0,3.2-3.4,6.2-8.6,6.2c-4.6,0-7.5-2-7.5-5.1
		C309.1,720.7,310.1,719.1,311.8,717.9z M316.7,726c4.1,0,6.7-2.3,6.7-4.6c0-2-1.5-2.8-4.2-2.8h-3.9c-0.4,0-1.3-0.1-2.3-0.3
		c-1.7,1.1-2.4,2.5-2.4,3.8C310.7,724.4,312.9,726,316.7,726z M321,706.3c0-3.1-2.1-5.1-4.7-5.1c-2.6,0-4.7,1.9-4.7,5.1
		c0,3.1,2.2,5.1,4.7,5.1C318.8,711.4,321,709.4,321,706.3z"/>
</g>
<g class="st0">
	<path class="st1" d="M55.8,802.5c8-8.1,12-12.6,12-16.8c0-3-1.6-5.4-5.3-5.4c-2.2,0-4.2,1.4-5.7,3.2l-1.1-1.1c1.8-2,4-3.6,6.9-3.6
		c4.3,0,6.8,2.7,6.8,6.8c0,4.8-4.4,9.5-11.1,16.6c1.3-0.1,2.7-0.2,4.1-0.2h8.3v1.5H55.8V802.5z"/>
	<path class="st1" d="M78.8,790.5v-0.2c-1.8-1.2-3.5-3-3.5-5.6c0-3.5,2.8-5.9,6.3-5.9c4.1,0,6.6,2.7,6.6,6.3c0,2.7-2.1,5-3.5,6.2
		v0.2c2.1,1.3,4.3,2.9,4.3,6.2c0,3.5-3,6.3-7.4,6.3c-4.4,0-7.7-2.8-7.7-6.7C73.9,794.1,76.5,791.7,78.8,790.5z M81.6,802.6
		c3.4,0,5.7-2.2,5.7-5c0-3.7-3.6-5-7.4-6.5c-2.5,1.4-4.3,3.5-4.3,6.1C75.6,800.2,78.2,802.6,81.6,802.6z M86.6,785.2
		c0-2.7-1.8-5-5-5c-2.7,0-4.7,1.9-4.7,4.5c0,3.5,3.3,4.8,6.5,6.1C85.5,789.2,86.6,787.3,86.6,785.2z"/>
</g>
<g class="st0">
	<path class="st1" d="M52.5,830.9h1.7v21.6c0,3.6-1.3,5.3-4.1,5.3c-0.9,0-1.8-0.2-2.4-0.5l0.4-1.4c0.5,0.2,1.2,0.4,1.9,0.4
		c2.1,0,2.4-1.7,2.4-4V830.9z M51.9,825c0-1,0.7-1.5,1.5-1.5c0.8,0,1.6,0.6,1.6,1.5c0,0.9-0.7,1.5-1.6,1.5
		C52.6,826.5,51.9,825.9,51.9,825z"/>
	<path class="st1" d="M72,837.7c0.1-2.8-0.7-5.8-4.3-5.8c-2.5,0-4.6,1.2-5.8,2.1l-0.8-1.3c1.3-0.9,3.8-2.4,6.8-2.4
		c4.3,0,5.8,3.1,5.8,7v11.7h-1.4l-0.2-2.4H72c-1.9,1.5-4.1,2.8-6.5,2.8c-2.9,0-5.3-1.6-5.3-5C60.2,840.6,63.9,838.6,72,837.7z
		 M65.8,848.2c2.1,0,4-1,6.2-3V839c-7.5,0.9-10,2.6-10,5.5C61.9,847.1,63.7,848.2,65.8,848.2z"/>
	<path class="st1" d="M80.2,830.9h1.4l0.2,2.8h0.1c1.9-1.9,3.8-3.3,6.3-3.3c3.8,0,5.5,2.3,5.5,7v11.7H92v-11.5
		c0-3.9-1.2-5.7-4.2-5.7c-2.2,0-3.7,1.1-6,3.4v13.8h-1.7V830.9z"/>
</g>
<line class="st2" x1="0" y1="866.9" x2="640" y2="866.9"/>
<line class="st2" x1="148.5" y1="789.7" x2="148.5" y2="843.7"/>
<g class="st0">
	<path class="st3" d="M210.3,802.8h-8v-1.5H220v1.5H212v23.5h-1.7V802.8z"/>
	<path class="st3" d="M222.6,808.1h1.4l0.2,3.4h0.1c1.2-2.2,3-3.8,5.2-3.8c0.7,0,1.2,0.1,1.8,0.4l-0.4,1.5c-0.6-0.2-1-0.3-1.7-0.3
		c-1.6,0-3.6,1.3-5,4.7v12.4h-1.7V808.1z"/>
	<path class="st3" d="M244.5,814.9c0.1-2.8-0.7-5.8-4.3-5.8c-2.5,0-4.6,1.2-5.8,2.1l-0.8-1.3c1.3-0.9,3.8-2.4,6.8-2.4
		c4.3,0,5.8,3.1,5.8,7v11.7h-1.4l-0.2-2.4h-0.1c-1.9,1.5-4.1,2.8-6.5,2.8c-2.9,0-5.3-1.6-5.3-5C232.8,817.8,236.4,815.8,244.5,814.9
		z M238.3,825.4c2.1,0,4-1,6.2-3v-6.2c-7.5,0.9-10,2.6-10,5.5C234.5,824.3,236.3,825.4,238.3,825.4z"/>
	<path class="st3" d="M252.1,802.2c0-1,0.7-1.5,1.5-1.5c0.8,0,1.5,0.6,1.5,1.5c0,0.9-0.7,1.5-1.5,1.5
		C252.8,803.7,252.1,803.1,252.1,802.2z M252.7,808.1h1.7v18.2h-1.7V808.1z"/>
	<path class="st3" d="M261.4,808.1h1.4l0.2,2.8h0.1c1.9-1.9,3.8-3.3,6.3-3.3c3.8,0,5.5,2.3,5.5,7v11.7h-1.7v-11.5
		c0-3.9-1.2-5.7-4.2-5.7c-2.2,0-3.7,1.1-6,3.4v13.8h-1.7V808.1z"/>
	<path class="st3" d="M281,802.2c0-1,0.7-1.5,1.5-1.5c0.8,0,1.5,0.6,1.5,1.5c0,0.9-0.7,1.5-1.5,1.5C281.7,803.7,281,803.1,281,802.2
		z M281.7,808.1h1.7v18.2h-1.7V808.1z"/>
	<path class="st3" d="M290.4,808.1h1.4l0.2,2.8h0.1c1.9-1.9,3.8-3.3,6.3-3.3c3.8,0,5.5,2.3,5.5,7v11.7h-1.7v-11.5
		c0-3.9-1.2-5.7-4.2-5.7c-2.2,0-3.7,1.1-6,3.4v13.8h-1.7V808.1z"/>
	<path class="st3" d="M311.8,825.7v-0.2c-0.9-0.5-1.6-1.5-1.6-2.9c0-1.6,1.2-2.8,2-3.3v-0.2c-1.1-1-2.3-2.8-2.3-5
		c0-3.8,2.8-6.4,6.4-6.4c1,0,1.8,0.2,2.4,0.5h6.2v1.4h-4.3c1.2,1,2,2.7,2,4.6c0,3.7-2.8,6.4-6.3,6.4c-1,0-2.2-0.3-3-0.8
		c-0.8,0.6-1.5,1.4-1.5,2.6c0,1.3,0.8,2.4,3.5,2.4h3.9c4.1,0,6,1.3,6,4.2c0,3.2-3.4,6.2-8.6,6.2c-4.6,0-7.5-2-7.5-5.1
		C309.1,828.5,310.1,826.9,311.8,825.7z M316.7,833.8c4.1,0,6.7-2.3,6.7-4.6c0-2-1.5-2.8-4.2-2.8h-3.9c-0.4,0-1.3-0.1-2.3-0.3
		c-1.7,1.1-2.4,2.5-2.4,3.8C310.7,832.2,312.9,833.8,316.7,833.8z M321,814.1c0-3.1-2.1-5.1-4.7-5.1c-2.6,0-4.7,1.9-4.7,5.1
		c0,3.1,2.2,5.1,4.7,5.1C318.8,819.2,321,817.2,321,814.1z"/>
</g>
<g class="st0">
	<path class="st1" d="M55.8,910.3c8-8.1,12-12.6,12-16.8c0-3-1.6-5.4-5.3-5.4c-2.2,0-4.2,1.4-5.7,3.2l-1.1-1.1c1.8-2,4-3.6,6.9-3.6
		c4.3,0,6.8,2.7,6.8,6.8c0,4.8-4.4,9.5-11.1,16.6c1.3-0.1,2.7-0.2,4.1-0.2h8.3v1.5H55.8V910.3z"/>
	<path class="st1" d="M75.6,908.3c1.1,1.3,2.5,2,4.1,2c3.8,0,7.1-3,7.2-12c-1.7,2-3.9,3.3-6.2,3.3c-4.2,0-6.7-2.6-6.7-7.5
		c0-4.4,3-7.6,6.6-7.6c4.8,0,7.9,4.1,7.9,11.4c0,10.2-4.2,13.8-8.9,13.8c-2.2,0-3.9-1-5.1-2.4L75.6,908.3z M86.9,896.6
		c-0.3-5.1-2.3-8.5-6.3-8.5c-2.8,0-4.9,2.7-4.9,6.1c0,3.5,1.6,6.1,5.3,6.1C82.7,900.3,84.9,899.2,86.9,896.6z"/>
</g>
<g class="st0">
	<path class="st1" d="M52.5,938.7h1.7v21.6c0,3.6-1.3,5.3-4.1,5.3c-0.9,0-1.8-0.2-2.4-0.5l0.4-1.4c0.5,0.2,1.2,0.4,1.9,0.4
		c2.1,0,2.4-1.7,2.4-4V938.7z M51.9,932.8c0-1,0.7-1.5,1.5-1.5c0.8,0,1.6,0.6,1.6,1.5c0,0.9-0.7,1.5-1.6,1.5
		C52.6,934.3,51.9,933.7,51.9,932.8z"/>
	<path class="st1" d="M72,945.5c0.1-2.8-0.7-5.8-4.3-5.8c-2.5,0-4.6,1.2-5.8,2.1l-0.8-1.3c1.3-0.9,3.8-2.4,6.8-2.4
		c4.3,0,5.8,3.1,5.8,7v11.7h-1.4l-0.2-2.4H72c-1.9,1.5-4.1,2.8-6.5,2.8c-2.9,0-5.3-1.6-5.3-5C60.2,948.3,63.9,946.4,72,945.5z
		 M65.8,955.9c2.1,0,4-1,6.2-3v-6.2c-7.5,0.9-10,2.6-10,5.5C61.9,954.9,63.7,955.9,65.8,955.9z"/>
	<path class="st1" d="M80.2,938.7h1.4l0.2,2.8h0.1c1.9-1.9,3.8-3.3,6.3-3.3c3.8,0,5.5,2.3,5.5,7v11.7H92v-11.5
		c0-3.9-1.2-5.7-4.2-5.7c-2.2,0-3.7,1.1-6,3.4v13.8h-1.7V938.7z"/>
</g>
<line class="st2" x1="0" y1="974.7" x2="640" y2="974.7"/>
<line class="st2" x1="148.5" y1="897.5" x2="148.5" y2="951.5"/>
<g class="st0">
	<path class="st3" d="M204.9,909.1h1.7v11H220v-11h1.7v25H220v-12.5h-13.4v12.5h-1.7V909.1z"/>
	<path class="st3" d="M235.3,915.4c4.3,0,7,3.1,7,8.4c0,0.5,0,0.9-0.1,1.4H229c0.1,4.6,2.8,7.9,6.9,7.9c2,0,3.5-0.6,4.9-1.6l0.7,1.3
		c-1.4,0.9-3.1,1.8-5.7,1.8c-4.7,0-8.4-3.6-8.4-9.5C227.3,919.1,231.2,915.4,235.3,915.4z M240.7,923.9c0-4.7-2.1-7.1-5.4-7.1
		c-3.1,0-5.9,2.7-6.3,7.1H240.7z"/>
	<path class="st3" d="M247.2,915.9h1.4l0.2,3.4h0.1c1.2-2.2,3-3.8,5.2-3.8c0.7,0,1.2,0.1,1.8,0.4l-0.4,1.5c-0.6-0.2-1-0.3-1.7-0.3
		c-1.6,0-3.6,1.3-5,4.7v12.4h-1.7V915.9z"/>
	<path class="st3" d="M257.6,930.8c1.6,1.3,3.2,2.3,5.8,2.3c2.8,0,4.3-1.7,4.3-3.6c0-2.3-2.4-3.3-4.4-4c-2.8-1-5.8-2.1-5.8-5.2
		c0-2.7,2.1-4.9,5.9-4.9c1.9,0,3.9,0.8,5.2,1.9l-0.9,1.2c-1.2-0.9-2.5-1.6-4.4-1.6c-2.8,0-4.1,1.6-4.1,3.3c0,2,2.1,2.9,4.3,3.7
		c2.8,1.1,6,2,6,5.6c0,2.7-2.2,5.1-6.2,5.1c-2.7,0-5.1-1.1-6.7-2.5L257.6,930.8z"/>
	<path class="st3" d="M274.7,917.3h-2.8V916l2.9-0.2l0.2-5.3h1.4v5.3h5.3v1.4h-5.3v11.9c0,2.3,0.6,3.9,3.1,3.9
		c0.7,0,1.6-0.3,2.3-0.6l0.5,1.4c-1.1,0.4-2.2,0.7-3,0.7c-3.5,0-4.6-2.2-4.6-5.5V917.3z"/>
	<path class="st3" d="M292.2,915.4c4.3,0,7,3.1,7,8.4c0,0.5,0,0.9-0.1,1.4h-13.1c0.1,4.6,2.8,7.9,6.9,7.9c2,0,3.5-0.6,4.9-1.6
		l0.7,1.3c-1.4,0.9-3.1,1.8-5.7,1.8c-4.7,0-8.4-3.6-8.4-9.5C284.2,919.1,288.1,915.4,292.2,915.4z M297.5,923.9
		c0-4.7-2.1-7.1-5.4-7.1c-3.1,0-5.9,2.7-6.3,7.1H297.5z"/>
	<path class="st3" d="M304.1,906.8h1.7v25.1c0,0.8,0.3,1.2,0.8,1.2c0.2,0,0.3,0,0.7-0.1l0.3,1.4c-0.3,0.1-0.7,0.2-1.2,0.2
		c-1.5,0-2.2-0.9-2.2-2.9V906.8z"/>
</g>
<g class="st0">
	<path class="st1" d="M56.3,1014.9c1.4,1.6,3.4,3.1,6.7,3.1c3.3,0,5.7-2.1,5.7-5.4c0-3.3-2.4-5.6-8.5-5.6v-1.5
		c5.6,0,7.6-2.4,7.6-5.3c0-2.7-1.9-4.5-4.9-4.5c-2.2,0-4.2,1.2-5.6,2.7l-1-1.1c1.7-1.6,3.8-3,6.6-3c3.8,0,6.6,2.1,6.6,5.9
		c0,3.2-2,5.1-4.6,6v0.2c3,0.6,5.5,2.9,5.5,6.3c0,4.2-3.2,6.9-7.4,6.9c-3.9,0-6.2-1.8-7.7-3.4L56.3,1014.9z"/>
	<path class="st1" d="M74.2,1006.9c0-8.1,2.6-12.5,7.3-12.5s7.3,4.4,7.3,12.5c0,8.1-2.6,12.7-7.3,12.7S74.2,1014.9,74.2,1006.9z
		 M87,1006.9c0-7.4-2.2-11.1-5.5-11.1c-3.3,0-5.5,3.6-5.5,11.1s2.2,11.2,5.5,11.2C84.9,1018.1,87,1014.3,87,1006.9z"/>
</g>
<g class="st0">
	<path class="st1" d="M52.5,1046.4h1.7v21.6c0,3.6-1.3,5.3-4.1,5.3c-0.9,0-1.8-0.2-2.4-0.5l0.4-1.4c0.5,0.2,1.2,0.4,1.9,0.4
		c2.1,0,2.4-1.7,2.4-4V1046.4z M51.9,1040.6c0-1,0.7-1.5,1.5-1.5c0.8,0,1.6,0.6,1.6,1.5c0,0.9-0.7,1.5-1.6,1.5
		C52.6,1042,51.9,1041.4,51.9,1040.6z"/>
	<path class="st1" d="M72,1053.2c0.1-2.8-0.7-5.8-4.3-5.8c-2.5,0-4.6,1.2-5.8,2.1l-0.8-1.3c1.3-0.9,3.8-2.4,6.8-2.4
		c4.3,0,5.8,3.1,5.8,7v11.7h-1.4l-0.2-2.4H72c-1.9,1.5-4.1,2.8-6.5,2.8c-2.9,0-5.3-1.6-5.3-5C60.2,1056.1,63.9,1054.2,72,1053.2z
		 M65.8,1063.7c2.1,0,4-1,6.2-3v-6.2c-7.5,0.9-10,2.6-10,5.5C61.9,1062.7,63.7,1063.7,65.8,1063.7z"/>
	<path class="st1" d="M80.2,1046.4h1.4l0.2,2.8h0.1c1.9-1.9,3.8-3.3,6.3-3.3c3.8,0,5.5,2.3,5.5,7v11.7H92v-11.5
		c0-3.9-1.2-5.7-4.2-5.7c-2.2,0-3.7,1.1-6,3.4v13.8h-1.7V1046.4z"/>
</g>
<line class="st2" x1="0" y1="1082.5" x2="640" y2="1082.5"/>
<line class="st2" x1="148.5" y1="1005.2" x2="148.5" y2="1059.3"/>
<g class="st0">
	<path class="st3" d="M210.3,1018.4h-8v-1.5H220v1.5H212v23.5h-1.7V1018.4z"/>
	<path class="st3" d="M222.6,1023.6h1.4l0.2,3.4h0.1c1.2-2.2,3-3.8,5.2-3.8c0.7,0,1.2,0.1,1.8,0.4l-0.4,1.5c-0.6-0.2-1-0.3-1.7-0.3
		c-1.6,0-3.6,1.3-5,4.7v12.4h-1.7V1023.6z"/>
	<path class="st3" d="M244.5,1030.4c0.1-2.8-0.7-5.8-4.3-5.8c-2.5,0-4.6,1.2-5.8,2.1l-0.8-1.3c1.3-0.9,3.8-2.4,6.8-2.4
		c4.3,0,5.8,3.1,5.8,7v11.7h-1.4l-0.2-2.4h-0.1c-1.9,1.5-4.1,2.8-6.5,2.8c-2.9,0-5.3-1.6-5.3-5
		C232.8,1033.3,236.4,1031.4,244.5,1030.4z M238.3,1040.9c2.1,0,4-1,6.2-3v-6.2c-7.5,0.9-10,2.6-10,5.5
		C234.5,1039.9,236.3,1040.9,238.3,1040.9z"/>
	<path class="st3" d="M252.1,1017.8c0-1,0.7-1.5,1.5-1.5c0.8,0,1.5,0.6,1.5,1.5c0,0.9-0.7,1.5-1.5,1.5
		C252.8,1019.2,252.1,1018.6,252.1,1017.8z M252.7,1023.6h1.7v18.2h-1.7V1023.6z"/>
	<path class="st3" d="M261.4,1023.6h1.4l0.2,2.8h0.1c1.9-1.9,3.8-3.3,6.3-3.3c3.8,0,5.5,2.3,5.5,7v11.7h-1.7v-11.5
		c0-3.9-1.2-5.7-4.2-5.7c-2.2,0-3.7,1.1-6,3.4v13.8h-1.7V1023.6z"/>
	<path class="st3" d="M281,1017.8c0-1,0.7-1.5,1.5-1.5c0.8,0,1.5,0.6,1.5,1.5c0,0.9-0.7,1.5-1.5,1.5
		C281.7,1019.2,281,1018.6,281,1017.8z M281.7,1023.6h1.7v18.2h-1.7V1023.6z"/>
	<path class="st3" d="M290.4,1023.6h1.4l0.2,2.8h0.1c1.9-1.9,3.8-3.3,6.3-3.3c3.8,0,5.5,2.3,5.5,7v11.7h-1.7v-11.5
		c0-3.9-1.2-5.7-4.2-5.7c-2.2,0-3.7,1.1-6,3.4v13.8h-1.7V1023.6z"/>
	<path class="st3" d="M311.8,1041.2v-0.2c-0.9-0.5-1.6-1.5-1.6-2.9c0-1.6,1.2-2.8,2-3.3v-0.2c-1.1-1-2.3-2.8-2.3-5
		c0-3.8,2.8-6.4,6.4-6.4c1,0,1.8,0.2,2.4,0.5h6.2v1.4h-4.3c1.2,1,2,2.7,2,4.6c0,3.7-2.8,6.4-6.3,6.4c-1,0-2.2-0.3-3-0.8
		c-0.8,0.6-1.5,1.4-1.5,2.6c0,1.3,0.8,2.4,3.5,2.4h3.9c4.1,0,6,1.3,6,4.2c0,3.2-3.4,6.2-8.6,6.2c-4.6,0-7.5-2-7.5-5.1
		C309.1,1044,310.1,1042.4,311.8,1041.2z M316.7,1049.3c4.1,0,6.7-2.3,6.7-4.6c0-2-1.5-2.8-4.2-2.8h-3.9c-0.4,0-1.3-0.1-2.3-0.3
		c-1.7,1.1-2.4,2.5-2.4,3.8C310.7,1047.7,312.9,1049.3,316.7,1049.3z M321,1029.6c0-3.1-2.1-5.1-4.7-5.1c-2.6,0-4.7,1.9-4.7,5.1
		c0,3.1,2.2,5.1,4.7,5.1C318.8,1034.7,321,1032.7,321,1029.6z"/>
</g>
<g class="st0">
	<path class="st1" d="M56.3,1122.7c1.4,1.6,3.4,3.1,6.7,3.1c3.3,0,5.7-2.1,5.7-5.4c0-3.3-2.4-5.6-8.5-5.6v-1.5
		c5.6,0,7.6-2.4,7.6-5.3c0-2.7-1.9-4.5-4.9-4.5c-2.2,0-4.2,1.2-5.6,2.7l-1-1.1c1.7-1.6,3.8-3,6.6-3c3.8,0,6.6,2.1,6.6,5.9
		c0,3.2-2,5.1-4.6,6v0.2c3,0.6,5.5,2.9,5.5,6.3c0,4.2-3.2,6.9-7.4,6.9c-3.9,0-6.2-1.8-7.7-3.4L56.3,1122.7z"/>
	<path class="st1" d="M75.6,1125.4h5.7v-20.1H77v-1.1c2-0.3,3.5-0.9,4.7-1.5H83v22.8h5.3v1.5H75.6V1125.4z"/>
</g>
<g class="st0">
	<path class="st1" d="M52.5,1154.2h1.7v21.6c0,3.6-1.3,5.3-4.1,5.3c-0.9,0-1.8-0.2-2.4-0.5l0.4-1.4c0.5,0.2,1.2,0.4,1.9,0.4
		c2.1,0,2.4-1.7,2.4-4V1154.2z M51.9,1148.3c0-1,0.7-1.5,1.5-1.5c0.8,0,1.6,0.6,1.6,1.5c0,0.9-0.7,1.5-1.6,1.5
		C52.6,1149.8,51.9,1149.2,51.9,1148.3z"/>
	<path class="st1" d="M72,1161c0.1-2.8-0.7-5.8-4.3-5.8c-2.5,0-4.6,1.2-5.8,2.1l-0.8-1.3c1.3-0.9,3.8-2.4,6.8-2.4
		c4.3,0,5.8,3.1,5.8,7v11.7h-1.4l-0.2-2.4H72c-1.9,1.5-4.1,2.8-6.5,2.8c-2.9,0-5.3-1.6-5.3-5C60.2,1163.9,63.9,1161.9,72,1161z
		 M65.8,1171.5c2.1,0,4-1,6.2-3v-6.2c-7.5,0.9-10,2.6-10,5.5C61.9,1170.4,63.7,1171.5,65.8,1171.5z"/>
	<path class="st1" d="M80.2,1154.2h1.4l0.2,2.8h0.1c1.9-1.9,3.8-3.3,6.3-3.3c3.8,0,5.5,2.3,5.5,7v11.7H92V1161
		c0-3.9-1.2-5.7-4.2-5.7c-2.2,0-3.7,1.1-6,3.4v13.8h-1.7V1154.2z"/>
</g>
<line class="st2" x1="148.5" y1="1113" x2="148.5" y2="1167"/>
<g class="st0">
	<path class="st3" d="M210.3,1126.1h-8v-1.5H220v1.5H212v23.5h-1.7V1126.1z"/>
	<path class="st3" d="M222.6,1131.4h1.4l0.2,3.4h0.1c1.2-2.2,3-3.8,5.2-3.8c0.7,0,1.2,0.1,1.8,0.4l-0.4,1.5c-0.6-0.2-1-0.3-1.7-0.3
		c-1.6,0-3.6,1.3-5,4.7v12.4h-1.7V1131.4z"/>
	<path class="st3" d="M244.5,1138.2c0.1-2.8-0.7-5.8-4.3-5.8c-2.5,0-4.6,1.2-5.8,2.1l-0.8-1.3c1.3-0.9,3.8-2.4,6.8-2.4
		c4.3,0,5.8,3.1,5.8,7v11.7h-1.4l-0.2-2.4h-0.1c-1.9,1.5-4.1,2.8-6.5,2.8c-2.9,0-5.3-1.6-5.3-5
		C232.8,1141.1,236.4,1139.1,244.5,1138.2z M238.3,1148.7c2.1,0,4-1,6.2-3v-6.2c-7.5,0.9-10,2.6-10,5.5
		C234.5,1147.6,236.3,1148.7,238.3,1148.7z"/>
	<path class="st3" d="M252.1,1125.5c0-1,0.7-1.5,1.5-1.5c0.8,0,1.5,0.6,1.5,1.5c0,0.9-0.7,1.5-1.5,1.5
		C252.8,1127,252.1,1126.4,252.1,1125.5z M252.7,1131.4h1.7v18.2h-1.7V1131.4z"/>
	<path class="st3" d="M261.4,1131.4h1.4l0.2,2.8h0.1c1.9-1.9,3.8-3.3,6.3-3.3c3.8,0,5.5,2.3,5.5,7v11.7h-1.7v-11.5
		c0-3.9-1.2-5.7-4.2-5.7c-2.2,0-3.7,1.1-6,3.4v13.8h-1.7V1131.4z"/>
	<path class="st3" d="M281,1125.5c0-1,0.7-1.5,1.5-1.5c0.8,0,1.5,0.6,1.5,1.5c0,0.9-0.7,1.5-1.5,1.5
		C281.7,1127,281,1126.4,281,1125.5z M281.7,1131.4h1.7v18.2h-1.7V1131.4z"/>
	<path class="st3" d="M290.4,1131.4h1.4l0.2,2.8h0.1c1.9-1.9,3.8-3.3,6.3-3.3c3.8,0,5.5,2.3,5.5,7v11.7h-1.7v-11.5
		c0-3.9-1.2-5.7-4.2-5.7c-2.2,0-3.7,1.1-6,3.4v13.8h-1.7V1131.4z"/>
	<path class="st3" d="M311.8,1149v-0.2c-0.9-0.5-1.6-1.5-1.6-2.9c0-1.6,1.2-2.8,2-3.3v-0.2c-1.1-1-2.3-2.8-2.3-5
		c0-3.8,2.8-6.4,6.4-6.4c1,0,1.8,0.2,2.4,0.5h6.2v1.4h-4.3c1.2,1,2,2.7,2,4.6c0,3.7-2.8,6.4-6.3,6.4c-1,0-2.2-0.3-3-0.8
		c-0.8,0.6-1.5,1.4-1.5,2.6c0,1.3,0.8,2.4,3.5,2.4h3.9c4.1,0,6,1.3,6,4.2c0,3.2-3.4,6.2-8.6,6.2c-4.6,0-7.5-2-7.5-5.1
		C309.1,1151.8,310.1,1150.2,311.8,1149z M316.7,1157.1c4.1,0,6.7-2.3,6.7-4.6c0-2-1.5-2.8-4.2-2.8h-3.9c-0.4,0-1.3-0.1-2.3-0.3
		c-1.7,1.1-2.4,2.5-2.4,3.8C310.7,1155.5,312.9,1157.1,316.7,1157.1z M321,1137.4c0-3.1-2.1-5.1-4.7-5.1c-2.6,0-4.7,1.9-4.7,5.1
		c0,3.1,2.2,5.1,4.7,5.1C318.8,1142.5,321,1140.5,321,1137.4z"/>
</g>
<text transform="matrix(1 0 0 1 -747.4318 49.183)" class="st1" style="font-family:'SourceSansPro-Regular'; font-size:38px;">21</text>
<text transform="matrix(1 0 0 1 -750.1318 94.7829)" class="st1" style="font-family:'SourceSansPro-Regular'; font-size:38px;">jan</text>
<line class="st2" x1="-801" y1="112.6" x2="-161" y2="112.6"/>
<line class="st2" x1="-652.5" y1="35.3" x2="-652.5" y2="89.4"/>
<text transform="matrix(1 0 0 1 -599.6266 71.9835)" class="st3" style="font-family:'SourceSansPro-Regular'; font-size:38px;">Training</text>
<g>
	<path class="st4" d="M-218.6,54c0.6,0.6,1,1,1.4,1.4c-5.1,5.1-10.2,10.2-15.2,15.2c-5-5-10.1-10.1-15.2-15.2
		c0.4-0.4,0.8-0.8,1.3-1.3c4.6,4.6,9.2,9.2,13.8,13.8C-227.8,63.3-223.2,58.7-218.6,54z"/>
</g>
<text transform="matrix(1 0 0 1 -746.7477 156.9498)" class="st1" style="font-family:'SourceSansPro-Light'; font-size:38px;">22</text>
<text transform="matrix(1 0 0 1 -751.9478 202.5498)" class="st1" style="font-family:'SourceSansPro-Light'; font-size:38px;">jan</text>
<line class="st2" x1="-801" y1="220.3" x2="-161" y2="220.3"/>
<line class="st2" x1="-652.5" y1="143.1" x2="-652.5" y2="197.1"/>
<text transform="matrix(1 0 0 1 -599.6266 179.7503)" class="st3" style="font-family:'SourceSansPro-Light'; font-size:38px;">Training</text>
<g>
	<path class="st4" d="M-218.6,161.8c0.6,0.6,1,1,1.4,1.4c-5.1,5.1-10.2,10.2-15.2,15.2c-5-5-10.1-10.1-15.2-15.2
		c0.4-0.4,0.8-0.8,1.3-1.3c4.6,4.6,9.2,9.2,13.8,13.8C-227.8,171.1-223.2,166.5-218.6,161.8z"/>
</g>
<text transform="matrix(1 0 0 1 -746.7477 264.7168)" class="st1" style="font-family:'SourceSansPro-Light'; font-size:38px;">23</text>
<text transform="matrix(1 0 0 1 -751.9478 310.3167)" class="st1" style="font-family:'SourceSansPro-Light'; font-size:38px;">jan</text>
<line class="st2" x1="-801" y1="328.1" x2="-161" y2="328.1"/>
<line class="st2" x1="-652.5" y1="250.9" x2="-652.5" y2="304.9"/>
<text transform="matrix(1 0 0 1 -599.6266 287.5173)" class="st3" style="font-family:'SourceSansPro-Light'; font-size:38px;">Herstel</text>
<g>
	<path class="st4" d="M-218.6,269.6c0.6,0.6,1,1,1.4,1.4c-5.1,5.1-10.2,10.2-15.2,15.2c-5-5-10.1-10.1-15.2-15.2
		c0.4-0.4,0.8-0.8,1.3-1.3c4.6,4.6,9.2,9.2,13.8,13.8C-227.8,278.9-223.2,274.2-218.6,269.6z"/>
</g>
<text transform="matrix(1 0 0 1 -746.7477 372.4836)" class="st1" style="font-family:'SourceSansPro-Light'; font-size:38px;">24</text>
<text transform="matrix(1 0 0 1 -751.9478 418.0836)" class="st1" style="font-family:'SourceSansPro-Light'; font-size:38px;">jan</text>
<line class="st2" x1="-801" y1="435.9" x2="-161" y2="435.9"/>
<line class="st2" x1="-652.5" y1="358.6" x2="-652.5" y2="412.7"/>
<text transform="matrix(1 0 0 1 -599.6266 395.284)" class="st3" style="font-family:'SourceSansPro-Light'; font-size:38px;">Training</text>
<g>
	<path class="st4" d="M-218.6,377.3c0.6,0.6,1,1,1.4,1.4c-5.1,5.1-10.2,10.2-15.2,15.2c-5-5-10.1-10.1-15.2-15.2
		c0.4-0.4,0.8-0.8,1.3-1.3c4.6,4.6,9.2,9.2,13.8,13.8C-227.8,386.6-223.2,382-218.6,377.3z"/>
</g>
<text transform="matrix(1 0 0 1 -746.7477 480.2506)" class="st1" style="font-family:'SourceSansPro-Light'; font-size:38px;">25</text>
<text transform="matrix(1 0 0 1 -751.9478 525.8506)" class="st1" style="font-family:'SourceSansPro-Light'; font-size:38px;">jan</text>
<line class="st2" x1="-801" y1="543.6" x2="-161" y2="543.6"/>
<line class="st2" x1="-652.5" y1="466.4" x2="-652.5" y2="520.4"/>
<text transform="matrix(1 0 0 1 -599.6266 503.0511)" class="st3" style="font-family:'SourceSansPro-Light'; font-size:38px;">Training</text>
<g>
	<path class="st4" d="M-218.6,485.1c0.6,0.6,1,1,1.4,1.4c-5.1,5.1-10.2,10.2-15.2,15.2c-5-5-10.1-10.1-15.2-15.2
		c0.4-0.4,0.8-0.8,1.3-1.3c4.6,4.6,9.2,9.2,13.8,13.8C-227.8,494.4-223.2,489.8-218.6,485.1z"/>
</g>
<text transform="matrix(1 0 0 1 -746.7477 588.0173)" class="st1" style="font-family:'SourceSansPro-Light'; font-size:38px;">26</text>
<text transform="matrix(1 0 0 1 -751.9478 633.6172)" class="st1" style="font-family:'SourceSansPro-Light'; font-size:38px;">jan</text>
<line class="st2" x1="-801" y1="651.4" x2="-161" y2="651.4"/>
<line class="st2" x1="-652.5" y1="574.2" x2="-652.5" y2="628.2"/>
<text transform="matrix(1 0 0 1 -599.6266 610.8177)" class="st3" style="font-family:'SourceSansPro-Light'; font-size:38px;">Herstel</text>
<g>
	<path class="st4" d="M-218.6,592.9c0.6,0.6,1,1,1.4,1.4c-5.1,5.1-10.2,10.2-15.2,15.2c-5-5-10.1-10.1-15.2-15.2
		c0.4-0.4,0.8-0.8,1.3-1.3c4.6,4.6,9.2,9.2,13.8,13.8C-227.8,602.2-223.2,597.5-218.6,592.9z"/>
</g>
<text transform="matrix(1 0 0 1 -746.7477 695.7841)" class="st1" style="font-family:'SourceSansPro-Light'; font-size:38px;">27</text>
<text transform="matrix(1 0 0 1 -751.9478 741.3841)" class="st1" style="font-family:'SourceSansPro-Light'; font-size:38px;">jan</text>
<line class="st2" x1="-801" y1="759.2" x2="-161" y2="759.2"/>
<line class="st2" x1="-652.5" y1="681.9" x2="-652.5" y2="736"/>
<text transform="matrix(1 0 0 1 -599.6266 718.5844)" class="st3" style="font-family:'SourceSansPro-Light'; font-size:38px;">Training</text>
<g>
	<path class="st4" d="M-218.6,700.6c0.6,0.6,1,1,1.4,1.4c-5.1,5.1-10.2,10.2-15.2,15.2c-5-5-10.1-10.1-15.2-15.2
		c0.4-0.4,0.8-0.8,1.3-1.3c4.6,4.6,9.2,9.2,13.8,13.8C-227.8,709.9-223.2,705.3-218.6,700.6z"/>
</g>
<text transform="matrix(1 0 0 1 -746.7477 803.5509)" class="st1" style="font-family:'SourceSansPro-Light'; font-size:38px;">28</text>
<text transform="matrix(1 0 0 1 -751.9478 849.1509)" class="st1" style="font-family:'SourceSansPro-Light'; font-size:38px;">jan</text>
<line class="st2" x1="-801" y1="866.9" x2="-161" y2="866.9"/>
<line class="st2" x1="-652.5" y1="789.7" x2="-652.5" y2="843.7"/>
<text transform="matrix(1 0 0 1 -599.6266 826.3513)" class="st3" style="font-family:'SourceSansPro-Light'; font-size:38px;">Training</text>
<g>
	<path class="st4" d="M-218.6,808.4c0.6,0.6,1,1,1.4,1.4c-5.1,5.1-10.2,10.2-15.2,15.2c-5-5-10.1-10.1-15.2-15.2
		c0.4-0.4,0.8-0.8,1.3-1.3c4.6,4.6,9.2,9.2,13.8,13.8C-227.8,817.7-223.2,813.1-218.6,808.4z"/>
</g>
<text transform="matrix(1 0 0 1 -746.7477 911.3176)" class="st1" style="font-family:'SourceSansPro-Light'; font-size:38px;">29</text>
<text transform="matrix(1 0 0 1 -751.9478 956.9176)" class="st1" style="font-family:'SourceSansPro-Light'; font-size:38px;">jan</text>
<line class="st2" x1="-801" y1="974.7" x2="-161" y2="974.7"/>
<line class="st2" x1="-652.5" y1="897.5" x2="-652.5" y2="951.5"/>
<text transform="matrix(1 0 0 1 -599.6266 934.118)" class="st3" style="font-family:'SourceSansPro-Light'; font-size:38px;">Herstel</text>
<g>
	<path class="st4" d="M-218.6,916.2c0.6,0.6,1,1,1.4,1.4c-5.1,5.1-10.2,10.2-15.2,15.2c-5-5-10.1-10.1-15.2-15.2
		c0.4-0.4,0.8-0.8,1.3-1.3c4.6,4.6,9.2,9.2,13.8,13.8C-227.8,925.5-223.2,920.8-218.6,916.2z"/>
</g>
<text transform="matrix(1 0 0 1 -746.7477 1019.0847)" class="st1" style="font-family:'SourceSansPro-Light'; font-size:38px;">30</text>
<text transform="matrix(1 0 0 1 -751.9478 1064.6847)" class="st1" style="font-family:'SourceSansPro-Light'; font-size:38px;">jan</text>
<line class="st2" x1="-801" y1="1082.5" x2="-161" y2="1082.5"/>
<line class="st2" x1="-652.5" y1="1005.2" x2="-652.5" y2="1059.3"/>
<text transform="matrix(1 0 0 1 -599.6266 1041.8853)" class="st3" style="font-family:'SourceSansPro-Light'; font-size:38px;">Training</text>
<g>
	<path class="st4" d="M-218.6,1023.9c0.6,0.6,1,1,1.4,1.4c-5.1,5.1-10.2,10.2-15.2,15.2c-5-5-10.1-10.1-15.2-15.2
		c0.4-0.4,0.8-0.8,1.3-1.3c4.6,4.6,9.2,9.2,13.8,13.8C-227.8,1033.2-223.2,1028.6-218.6,1023.9z"/>
</g>
<text transform="matrix(1 0 0 1 -746.7477 1126.8513)" class="st1" style="font-family:'SourceSansPro-Light'; font-size:38px;">31</text>
<text transform="matrix(1 0 0 1 -751.9478 1172.4513)" class="st1" style="font-family:'SourceSansPro-Light'; font-size:38px;">jan</text>
<line class="st2" x1="-652.5" y1="1113" x2="-652.5" y2="1167"/>
<text transform="matrix(1 0 0 1 -599.6266 1149.6517)" class="st3" style="font-family:'SourceSansPro-Light'; font-size:38px;">Training</text>
<g>
	<path class="st4" d="M-218.6,1131.7c0.6,0.6,1,1,1.4,1.4c-5.1,5.1-10.2,10.2-15.2,15.2c-5-5-10.1-10.1-15.2-15.2
		c0.4-0.4,0.8-0.8,1.3-1.3c4.6,4.6,9.2,9.2,13.8,13.8C-227.8,1141-223.2,1136.4-218.6,1131.7z"/>
</g>
<g class="st0">
	<path class="st1" d="M54,73.3h3.1v20.6c0,3.8-1.4,6.2-5.1,6.2c-1.1,0-2.1-0.2-2.7-0.5l0.6-2.4c0.5,0.2,1.1,0.3,1.7,0.3
		c1.8,0,2.3-1.4,2.3-3.6V73.3z M53.4,67.5c0-1.2,1-2,2.2-2c1.2,0,2.1,0.8,2.1,2c0,1.2-0.9,2-2.1,2C54.4,69.5,53.4,68.7,53.4,67.5z"
		/>
	<path class="st1" d="M73.8,80.1c0-2.4-0.8-4.6-3.8-4.6c-2.2,0-4.1,1-5.5,2l-1.3-2.2c1.7-1.1,4.3-2.4,7.3-2.4c4.5,0,6.4,3,6.4,7.6
		v11.3h-2.6L74,89.6H74c-1.8,1.4-3.8,2.7-6.1,2.7c-3.1,0-5.4-1.9-5.4-5.2C62.4,83,65.9,81,73.8,80.1z M68.7,89.7
		c1.8,0,3.3-0.9,5.1-2.5v-5.1c-6.2,0.8-8.3,2.3-8.3,4.6C65.5,88.9,66.9,89.7,68.7,89.7z"/>
	<path class="st1" d="M82.8,73.3h2.6l0.3,2.7h0.1c1.7-1.7,3.6-3.1,6.2-3.1c3.9,0,5.6,2.5,5.6,7.2v11.7h-3.1V80.5
		c0-3.5-1.1-4.9-3.5-4.9c-1.9,0-3.2,1-5.1,2.8v13.4h-3.1V73.3z"/>
</g>
</svg>
