<?xml version="1.0" encoding="utf-8"?>
<!-- Generator: Adobe Illustrator 19.2.0, SVG Export Plug-In . SVG Version: 6.00 Build 0)  -->
<svg version="1.1" id="Layer_1" xmlns="http://www.w3.org/2000/svg" xmlns:xlink="http://www.w3.org/1999/xlink" x="0px" y="0px"
	 viewBox="0 0 640 1707.8" style="enable-background:new 0 0 640 1707.8;" xml:space="preserve">
<style type="text/css">
	.st0{enable-background:new    ;}
	.st1{fill:#222222;}
	.st2{fill:none;stroke:#CECECE;stroke-miterlimit:10;}
	.st3{opacity:0.5;fill:none;stroke:#CECECE;stroke-miterlimit:10;}
	.st4{fill:#888888;}
	.st5{fill:#CECECE;}
	.st6{fill:#FFCD00;}
	.st7{fill:#4CE51D;}
	.st8{fill:#E51D1F;}
</style>
<g class="st0">
	<path d="M56.1,192.5c1.8,1.9,4.3,3.1,6.9,3.1c3.3,0,5.2-1.6,5.2-4.1c0-2.5-1.8-3.3-4.2-4.4l-3.6-1.6c-2.3-1-5.1-2.8-5.1-6.4
		c0-3.8,3.3-6.6,7.9-6.6c3,0,5.6,1.3,7.3,3.1l-1.7,2.1c-1.5-1.4-3.4-2.4-5.7-2.4c-2.8,0-4.7,1.4-4.7,3.6c0,2.4,2.2,3.3,4.1,4.1
		l3.6,1.5c2.9,1.3,5.1,3,5.1,6.6c0,4-3.3,7.1-8.5,7.1c-3.5,0-6.5-1.4-8.7-3.7L56.1,192.5z"/>
	<path d="M75.9,170.9H79v23.6c0,1,0.4,1.4,0.9,1.4c0.2,0,0.3,0,0.7-0.1l0.4,2.4c-0.4,0.2-1,0.3-1.8,0.3c-2.4,0-3.3-1.5-3.3-4.2
		V170.9z"/>
	<path d="M96,186.3c0-2.4-0.8-4.6-3.8-4.6c-2.2,0-4.1,1-5.5,2l-1.3-2.2c1.7-1.1,4.3-2.4,7.3-2.4c4.5,0,6.4,3,6.4,7.6V198h-2.6
		l-0.3-2.2h-0.1c-1.8,1.4-3.8,2.7-6.1,2.7c-3.1,0-5.4-1.9-5.4-5.2C84.6,189.1,88.1,187.1,96,186.3z M91,195.9c1.8,0,3.3-0.9,5.1-2.5
		v-5.1c-6.2,0.8-8.3,2.3-8.3,4.6C87.7,195,89.1,195.9,91,195.9z"/>
	<path d="M115.5,186.3c0-2.4-0.8-4.6-3.8-4.6c-2.2,0-4.1,1-5.5,2l-1.3-2.2c1.7-1.1,4.3-2.4,7.3-2.4c4.5,0,6.4,3,6.4,7.6V198H116
		l-0.3-2.2h-0.1c-1.8,1.4-3.8,2.7-6.1,2.7c-3.1,0-5.4-1.9-5.4-5.2C104.1,189.1,107.6,187.1,115.5,186.3z M110.4,195.9
		c1.8,0,3.3-0.9,5.1-2.5v-5.1c-6.2,0.8-8.3,2.3-8.3,4.6C107.2,195,108.6,195.9,110.4,195.9z"/>
	<path d="M127.6,199.5v6.2h-3.1v-26.3h2.6l0.3,2.1h0.1c1.7-1.4,3.7-2.6,5.9-2.6c4.7,0,7.3,3.7,7.3,9.4c0,6.3-3.8,10-8,10
		c-1.7,0-3.4-0.8-5.1-2.1L127.6,199.5z M132.1,195.8c3,0,5.3-2.8,5.3-7.3c0-4.1-1.4-6.8-4.9-6.8c-1.6,0-3.1,0.9-4.9,2.5v9.7
		C129.3,195.3,130.9,195.8,132.1,195.8z"/>
</g>
<g class="st0">
	<path d="M56,291.3h3.2v10.4h11.6v-10.4h3.2v24.9h-3.2v-11.7H59.1v11.7H56V291.3z"/>
	<path d="M80.1,297.8h3.2V309c0,3.5,1,4.9,3.5,4.9c1.9,0,3.2-1,5-3.1v-13.1h3.1v18.5h-2.6l-0.3-2.9h-0.1c-1.7,2-3.5,3.3-6.1,3.3
		c-3.9,0-5.7-2.5-5.7-7.2V297.8z"/>
	<path d="M101,297.8h2.6l0.3,2.7h0.1c1.6-1.7,3.5-3.1,5.7-3.1c2.8,0,4.3,1.3,5.1,3.5c1.9-2.1,3.8-3.5,6.1-3.5c3.8,0,5.6,2.5,5.6,7.2
		v11.7h-3.1v-11.3c0-3.5-1.1-4.9-3.4-4.9c-1.4,0-2.9,1-4.6,2.8v13.4h-3.1v-11.3c0-3.5-1.1-4.9-3.5-4.9c-1.4,0-2.9,1-4.6,2.8v13.4
		H101V297.8z"/>
	<path d="M139.4,297.3c4.7,0,7.4,3.4,7.4,8.7c0,0.6,0,1.3-0.1,1.7h-12.5c0.2,4,2.6,6.5,6.2,6.5c1.7,0,3.2-0.6,4.6-1.4l1.1,2.1
		c-1.6,1-3.6,1.9-6.1,1.9c-4.9,0-8.9-3.6-8.9-9.7S135.2,297.3,139.4,297.3z M144.1,305.6c0-3.8-1.7-5.9-4.6-5.9
		c-2.6,0-4.9,2.1-5.3,5.9H144.1z"/>
	<path d="M151.1,297.8h3.2V309c0,3.5,1,4.9,3.5,4.9c1.9,0,3.2-1,5-3.1v-13.1h3.1v18.5h-2.6l-0.3-2.9h-0.1c-1.7,2-3.5,3.3-6.1,3.3
		c-3.9,0-5.7-2.5-5.7-7.2V297.8z"/>
	<path d="M172,297.8h2.6l0.3,3.3h0.1c1.3-2.3,3.2-3.8,5.2-3.8c0.8,0,1.4,0.1,2,0.4l-0.6,2.7c-0.6-0.2-1-0.3-1.8-0.3
		c-1.6,0-3.4,1.1-4.7,4.3v11.9H172V297.8z"/>
</g>
<g class="st0">
	<path d="M56,409.6h3.2V420h11.6v-10.4h3.2v24.9h-3.2v-11.7H59.1v11.7H56V409.6z"/>
	<path d="M87.3,415.6c4.7,0,7.4,3.4,7.4,8.7c0,0.6,0,1.3-0.1,1.7H82.1c0.2,4,2.6,6.5,6.2,6.5c1.7,0,3.2-0.6,4.6-1.4l1.1,2.1
		c-1.6,1-3.6,1.9-6.1,1.9c-4.9,0-8.9-3.6-8.9-9.7S83.1,415.6,87.3,415.6z M91.9,423.9c0-3.8-1.7-5.9-4.6-5.9c-2.6,0-4.9,2.1-5.3,5.9
		H91.9z"/>
	<path d="M99.2,416h2.6l0.3,3.3h0.1c1.3-2.3,3.2-3.8,5.2-3.8c0.8,0,1.4,0.1,2,0.4l-0.6,2.7c-0.6-0.2-1-0.3-1.8-0.3
		c-1.6,0-3.4,1.1-4.7,4.3v11.9h-3.1V416z"/>
	<path d="M111.5,430.3c1.6,1.3,3.2,2.2,5.4,2.2c2.4,0,3.6-1.3,3.6-2.9c0-1.9-2.2-2.7-4.2-3.5c-2.6-1-5.5-2.2-5.5-5.3
		c0-3,2.4-5.2,6.3-5.2c2.3,0,4.3,0.9,5.7,2.1l-1.5,2c-1.3-1-2.6-1.6-4.2-1.6c-2.3,0-3.4,1.3-3.4,2.7c0,1.7,2,2.4,4.1,3.2
		c2.7,1,5.6,2.1,5.6,5.6c0,3-2.4,5.5-6.8,5.5c-2.6,0-5.1-1.1-6.9-2.5L111.5,430.3z"/>
	<path d="M128.5,418.6h-2.7v-2.4l2.9-0.2l0.4-5.2h2.6v5.2h5v2.5h-5v10.3c0,2.3,0.7,3.6,2.8,3.6c0.6,0,1.5-0.3,2.1-0.5l0.6,2.4
		c-1,0.3-2.3,0.7-3.4,0.7c-4,0-5.3-2.5-5.3-6.2V418.6z"/>
	<path d="M147.3,415.6c4.7,0,7.4,3.4,7.4,8.7c0,0.6,0,1.3-0.1,1.7h-12.5c0.2,4,2.6,6.5,6.2,6.5c1.7,0,3.2-0.6,4.6-1.4l1.1,2.1
		c-1.6,1-3.6,1.9-6.1,1.9c-4.9,0-8.9-3.6-8.9-9.7S143.1,415.6,147.3,415.6z M151.9,423.9c0-3.8-1.7-5.9-4.6-5.9
		c-2.6,0-4.9,2.1-5.3,5.9H151.9z"/>
	<path d="M159.2,407.4h3.1V431c0,1,0.4,1.4,0.9,1.4c0.2,0,0.3,0,0.7-0.1l0.4,2.4c-0.4,0.2-0.9,0.3-1.8,0.3c-2.4,0-3.3-1.5-3.3-4.2
		V407.4z"/>
</g>
<g class="st0">
	<path d="M56,534.4h3.2v10.4h11.6v-10.4h3.2v24.9h-3.2v-11.7H59.1v11.7H56V534.4z"/>
	<path d="M90.8,547.7c0-2.4-0.8-4.6-3.8-4.6c-2.2,0-4.1,1-5.5,2l-1.3-2.2c1.7-1.1,4.3-2.4,7.3-2.4c4.5,0,6.4,3,6.4,7.6v11.3h-2.6
		l-0.3-2.2H91c-1.8,1.4-3.8,2.7-6.1,2.7c-3.1,0-5.4-1.9-5.4-5.2C79.4,550.6,82.9,548.5,90.8,547.7z M85.7,557.3
		c1.8,0,3.3-0.9,5.1-2.5v-5.1c-6.2,0.8-8.3,2.3-8.3,4.6C82.5,556.4,83.9,557.3,85.7,557.3z"/>
	<path d="M99.8,540.9h2.6l0.3,3.3h0.1c1.3-2.3,3.2-3.8,5.2-3.8c0.8,0,1.4,0.1,2,0.4l-0.6,2.7c-0.6-0.2-1-0.3-1.8-0.3
		c-1.6,0-3.4,1.1-4.7,4.3v11.9h-3.1V540.9z"/>
	<path d="M113.5,543.5h-2.7v-2.4l2.9-0.2l0.4-5.2h2.6v5.2h5v2.5h-5v10.3c0,2.3,0.7,3.6,2.8,3.6c0.6,0,1.5-0.3,2.1-0.5l0.6,2.4
		c-1,0.3-2.3,0.7-3.4,0.7c-4,0-5.3-2.5-5.3-6.2V543.5z"/>
	<path d="M125.3,555.2c1.6,1.3,3.2,2.2,5.4,2.2c2.4,0,3.6-1.3,3.6-2.9c0-1.9-2.2-2.7-4.2-3.5c-2.6-1-5.5-2.2-5.5-5.3
		c0-3,2.4-5.2,6.3-5.2c2.3,0,4.3,0.9,5.7,2.1l-1.5,2c-1.3-1-2.6-1.6-4.2-1.6c-2.3,0-3.4,1.3-3.4,2.7c0,1.7,2,2.4,4.1,3.2
		c2.7,1,5.6,2.1,5.6,5.6c0,3-2.4,5.5-6.8,5.5c-2.6,0-5.1-1.1-6.9-2.5L125.3,555.2z"/>
	<path d="M141.8,532.3h3.1v23.6c0,1,0.4,1.4,0.9,1.4c0.2,0,0.3,0,0.7-0.1l0.4,2.4c-0.4,0.2-1,0.3-1.8,0.3c-2.4,0-3.3-1.5-3.3-4.2
		V532.3z"/>
	<path d="M161.9,547.7c0-2.4-0.8-4.6-3.8-4.6c-2.2,0-4.1,1-5.5,2l-1.3-2.2c1.7-1.1,4.3-2.4,7.3-2.4c4.5,0,6.4,3,6.4,7.6v11.3h-2.6
		l-0.3-2.2h-0.1c-1.8,1.4-3.8,2.7-6.1,2.7c-3.1,0-5.4-1.9-5.4-5.2C150.5,550.6,154,548.5,161.9,547.7z M156.8,557.3
		c1.8,0,3.3-0.9,5.1-2.5v-5.1c-6.2,0.8-8.3,2.3-8.3,4.6C153.6,556.4,155,557.3,156.8,557.3z"/>
	<path d="M172.2,558.7v-0.2c-0.9-0.6-1.6-1.6-1.6-3c0-1.6,1.1-2.8,2-3.4V552c-1.2-1-2.4-2.8-2.4-5c0-4,3.2-6.6,7-6.6
		c1,0,1.9,0.2,2.6,0.5h6.4v2.4h-3.8c0.9,0.8,1.5,2.2,1.5,3.8c0,4-3,6.4-6.8,6.4c-0.9,0-1.9-0.2-2.8-0.6c-0.6,0.6-1.2,1.2-1.2,2.2
		c0,1.2,0.8,2,3.3,2h3.6c4.3,0,6.5,1.3,6.5,4.4c0,3.4-3.6,6.4-9.3,6.4c-4.5,0-7.6-1.8-7.6-5C169.5,561.3,170.5,559.9,172.2,558.7z
		 M177.6,565.7c3.5,0,5.9-1.8,5.9-3.8c0-1.7-1.3-2.3-3.7-2.3h-3.2c-0.7,0-1.6-0.1-2.4-0.3c-1.3,1-1.9,2.1-1.9,3.1
		C172.2,564.5,174.2,565.7,177.6,565.7z M181.1,547c0-2.7-1.7-4.3-3.9-4.3s-3.9,1.6-3.9,4.3c0,2.7,1.8,4.4,3.9,4.4
		C179.3,551.4,181.1,549.7,181.1,547z"/>
</g>
<g class="st0">
	<path d="M354.2,187.1c0-8.1,2.6-12.5,7.3-12.5c4.6,0,7.3,4.4,7.3,12.5c0,8.1-2.6,12.7-7.3,12.7
		C356.8,199.8,354.2,195.2,354.2,187.1z M367,187.1c0-7.4-2.2-11.1-5.5-11.1c-3.3,0-5.5,3.6-5.5,11.1s2.2,11.2,5.5,11.2
		C364.8,198.3,367,194.5,367,187.1z"/>
	<path d="M377,186.3v-0.2c-1.8-1.2-3.5-3-3.5-5.6c0-3.5,2.8-5.9,6.3-5.9c4.1,0,6.6,2.7,6.6,6.3c0,2.7-2.1,5-3.5,6.2v0.2
		c2.1,1.3,4.3,2.9,4.3,6.2c0,3.5-3,6.3-7.4,6.3c-4.4,0-7.7-2.8-7.7-6.7C372.1,189.8,374.7,187.5,377,186.3z M379.8,198.4
		c3.4,0,5.7-2.2,5.7-5c0-3.7-3.6-5-7.4-6.5c-2.5,1.4-4.3,3.5-4.3,6.1C373.8,196,376.3,198.4,379.8,198.4z M384.8,181
		c0-2.7-1.8-5-5-5c-2.7,0-4.7,1.9-4.7,4.5c0,3.5,3.3,4.8,6.5,6.1C383.6,184.9,384.8,183.1,384.8,181z"/>
	<path d="M392.9,181.8c0.8,0,1.6,0.6,1.6,1.7c0,1.1-0.8,1.7-1.6,1.7c-0.8,0-1.6-0.6-1.6-1.7C391.3,182.5,392.1,181.8,392.9,181.8z
		 M392.9,196.3c0.8,0,1.6,0.6,1.6,1.7c0,1.1-0.8,1.7-1.6,1.7c-0.8,0-1.6-0.6-1.6-1.7C391.3,197,392.1,196.3,392.9,196.3z"/>
	<path d="M398.9,187.1c0-8.1,2.6-12.5,7.3-12.5c4.6,0,7.3,4.4,7.3,12.5c0,8.1-2.6,12.7-7.3,12.7
		C401.5,199.8,398.9,195.2,398.9,187.1z M411.7,187.1c0-7.4-2.2-11.1-5.5-11.1c-3.3,0-5.5,3.6-5.5,11.1s2.2,11.2,5.5,11.2
		C409.6,198.3,411.7,194.5,411.7,187.1z"/>
	<path d="M417.4,195.2c1.4,1.6,3.4,3.1,6.7,3.1c3.3,0,5.7-2.1,5.7-5.4c0-3.3-2.4-5.6-8.5-5.6v-1.5c5.6,0,7.6-2.4,7.6-5.3
		c0-2.7-1.9-4.5-4.9-4.5c-2.2,0-4.2,1.2-5.6,2.7l-1-1.1c1.7-1.6,3.8-3,6.6-3c3.8,0,6.6,2.1,6.6,5.9c0,3.2-2,5.1-4.6,6v0.2
		c3,0.6,5.5,2.9,5.5,6.3c0,4.2-3.2,6.9-7.4,6.9c-3.9,0-6.2-1.8-7.7-3.4L417.4,195.2z"/>
	<path d="M444.3,181.1h1.7v11.5c0,3.9,1.2,5.7,4.1,5.7c2.2,0,3.8-1.1,5.9-3.7v-13.5h1.7v18.2h-1.4l-0.2-3H456
		c-1.8,2.1-3.7,3.5-6.2,3.5c-3.8,0-5.5-2.3-5.5-7V181.1z"/>
	<path d="M464.4,181.1h1.7v11.5c0,3.9,1.2,5.7,4.1,5.7c2.2,0,3.8-1.1,5.9-3.7v-13.5h1.7v18.2h-1.4l-0.2-3h-0.1
		c-1.8,2.1-3.7,3.5-6.2,3.5c-3.8,0-5.5-2.3-5.5-7V181.1z"/>
	<path d="M484.8,181.1h1.4l0.2,3.4h0.1c1.2-2.2,3-3.8,5.2-3.8c0.7,0,1.2,0.1,1.8,0.4l-0.4,1.5c-0.6-0.2-1-0.3-1.7-0.3
		c-1.6,0-3.6,1.3-5,4.7v12.4h-1.7V181.1z"/>
</g>
<g class="st0">
	<path d="M394.6,537.9h-12.8v-1.5h14.9v1c-5.8,7.7-7.3,13.8-7.6,23.3h-1.8C387.7,550.9,389.7,544.8,394.6,537.9z"/>
	<path d="M399.9,559.7c8-8.1,12-12.6,12-16.8c0-3-1.6-5.4-5.3-5.4c-2.2,0-4.2,1.4-5.7,3.2l-1.1-1.1c1.8-2,4-3.6,6.9-3.6
		c4.3,0,6.8,2.7,6.8,6.8c0,4.8-4.4,9.5-11.1,16.6c1.3-0.1,2.7-0.2,4.1-0.2h8.3v1.5h-14.9V559.7z"/>
	<path d="M427.7,535.7h6.8c5,0,8.2,1.9,8.2,6.1c0,2.6-1.5,4.7-4.4,5.5v0.2c3.7,0.5,6,2.6,6,6c0,4.8-3.6,7.3-9.3,7.3h-7.3V535.7z
		 M433.7,546.7c5.2,0,7.2-1.7,7.2-5c0-3.2-2.4-4.6-7-4.6h-4.5v9.6H433.7z M434.5,559.3c5,0,8-1.8,8-5.9c0-3.6-2.9-5.3-8-5.3h-5.1
		v11.2H434.5z"/>
	<path d="M449.4,535.7h6.8c5.6,0,8.9,1.8,8.9,7c0,4.9-3.3,7.3-8.9,7.3h-5.1v10.8h-1.7V535.7z M455.8,548.5c5.1,0,7.6-1.7,7.6-5.8
		c0-4.2-2.5-5.5-7.6-5.5h-4.6v11.3H455.8z"/>
	<path d="M470.3,535.7h2.4l5.2,14.7l2,5.5h0.2l1.9-5.5l5.2-14.7h2.5v25H488v-16.5c0-2.1,0.1-4.7,0.2-6.8h-0.2l-1.9,5.5l-5.4,15h-1.5
		l-5.4-15l-2-5.5h-0.2c0.1,2.1,0.2,4.7,0.2,6.8v16.5h-1.6V535.7z"/>
</g>
<g class="st0">
	<path class="st1" d="M55,47.3c7.3-7.3,11.4-11.6,11.4-15.5c0-2.8-1.5-4.7-4.6-4.7c-2,0-3.8,1.3-5.2,2.9l-1.8-1.8
		c2-2.2,4.2-3.7,7.3-3.7c4.5,0,7.3,2.8,7.3,7.1c0,4.6-4.1,9.1-9.9,15.1c1.3-0.1,2.8-0.2,4.1-0.2h7v2.7H55V47.3z"/>
	<path class="st1" d="M75.4,46.6H81V28.7h-4.4v-2c2.2-0.4,3.8-1,5.1-1.8h2.4v21.7h5v2.6H75.4V46.6z"/>
</g>
<line class="st2" x1="0" y1="112.6" x2="640" y2="112.6"/>
<line class="st3" x1="51.7" y1="243.5" x2="588.3" y2="243.5"/>
<line class="st3" x1="51.7" y1="361.7" x2="588.3" y2="361.7"/>
<line class="st3" x1="51.7" y1="480" x2="588.3" y2="480"/>
<line class="st2" x1="0" y1="618.9" x2="640" y2="618.9"/>
<line class="st2" x1="148.5" y1="35.3" x2="148.5" y2="89.4"/>
<g class="st0">
	<path class="st4" d="M209.8,49.7h-7.6v-2.7h18.3v2.7H213V72h-3.2V49.7z"/>
	<path class="st4" d="M222.9,53.5h2.6l0.3,3.3h0.1c1.3-2.3,3.2-3.8,5.2-3.8c0.8,0,1.4,0.1,2,0.4l-0.6,2.7c-0.6-0.2-1-0.3-1.8-0.3
		c-1.6,0-3.4,1.1-4.7,4.3V72h-3.1V53.5z"/>
	<path class="st4" d="M245.6,60.3c0-2.4-0.8-4.6-3.8-4.6c-2.2,0-4.1,1-5.5,2l-1.3-2.2c1.7-1.1,4.3-2.4,7.3-2.4c4.5,0,6.4,3,6.4,7.6
		V72h-2.6l-0.3-2.2h-0.1c-1.8,1.4-3.8,2.7-6.1,2.7c-3.1,0-5.4-1.9-5.4-5.2C234.2,63.2,237.7,61.2,245.6,60.3z M240.5,69.9
		c1.8,0,3.3-0.9,5.1-2.5v-5.1c-6.2,0.8-8.3,2.3-8.3,4.6C237.3,69.1,238.7,69.9,240.5,69.9z"/>
	<path class="st4" d="M254,47.7c0-1.2,1-2,2.2-2s2.2,0.8,2.2,2c0,1.2-0.9,2-2.2,2S254,48.9,254,47.7z M254.6,53.5h3.1V72h-3.1V53.5z
		"/>
	<path class="st4" d="M263.9,53.5h2.6l0.3,2.7h0.1c1.7-1.7,3.6-3.1,6.2-3.1c3.9,0,5.6,2.5,5.6,7.2V72h-3.1V60.7
		c0-3.5-1.1-4.9-3.5-4.9c-1.9,0-3.2,1-5.1,2.8V72h-3.1V53.5z"/>
	<path class="st4" d="M284.1,47.7c0-1.2,1-2,2.2-2s2.2,0.8,2.2,2c0,1.2-0.9,2-2.2,2S284.1,48.9,284.1,47.7z M284.7,53.5h3.1V72h-3.1
		V53.5z"/>
	<path class="st4" d="M294.1,53.5h2.6l0.3,2.7h0.1c1.7-1.7,3.6-3.1,6.2-3.1c3.9,0,5.6,2.5,5.6,7.2V72h-3.1V60.7
		c0-3.5-1.1-4.9-3.5-4.9c-1.9,0-3.2,1-5.1,2.8V72h-3.1V53.5z"/>
	<path class="st4" d="M316.1,71.3v-0.2c-0.9-0.6-1.6-1.6-1.6-3c0-1.6,1.1-2.8,2-3.4v-0.2c-1.2-1-2.4-2.8-2.4-5c0-4,3.2-6.6,7-6.6
		c1,0,1.9,0.2,2.6,0.5h6.4v2.4h-3.8c0.9,0.8,1.5,2.2,1.5,3.8c0,4-3,6.4-6.8,6.4c-0.9,0-1.9-0.2-2.8-0.6c-0.6,0.6-1.2,1.2-1.2,2.2
		c0,1.2,0.8,2,3.3,2h3.6c4.3,0,6.5,1.3,6.5,4.4c0,3.4-3.6,6.4-9.3,6.4c-4.5,0-7.6-1.8-7.6-5C313.4,74,314.5,72.5,316.1,71.3z
		 M321.5,78.3c3.5,0,5.9-1.8,5.9-3.8c0-1.7-1.3-2.3-3.7-2.3h-3.2c-0.7,0-1.6-0.1-2.4-0.3c-1.3,1-1.9,2.1-1.9,3.1
		C316.2,77.1,318.2,78.3,321.5,78.3z M325,59.6c0-2.7-1.7-4.3-3.9-4.3c-2.2,0-3.9,1.6-3.9,4.3c0,2.7,1.8,4.4,3.9,4.4
		C323.2,64,325,62.3,325,59.6z"/>
</g>
<g>
	<path class="st5" d="M554.8,70.6c-0.6-0.6-1-1-1.4-1.4c5.1-5.1,10.2-10.2,15.2-15.2c5,5,10.1,10.1,15.2,15.2
		c-0.4,0.4-0.8,0.8-1.3,1.3c-4.6-4.6-9.2-9.2-13.8-13.8C564,61.3,559.4,65.9,554.8,70.6z"/>
</g>
<g class="st0">
	<path class="st1" d="M55.8,662.3c8-8.1,12-12.6,12-16.8c0-3-1.6-5.4-5.3-5.4c-2.2,0-4.2,1.4-5.7,3.2l-1.1-1.1c1.8-2,4-3.6,6.9-3.6
		c4.3,0,6.8,2.7,6.8,6.8c0,4.8-4.4,9.5-11.1,16.6c1.3-0.1,2.7-0.2,4.1-0.2h8.3v1.5H55.8V662.3z"/>
	<path class="st1" d="M74,662.3c8-8.1,12-12.6,12-16.8c0-3-1.6-5.4-5.3-5.4c-2.2,0-4.2,1.4-5.7,3.2l-1.1-1.1c1.8-2,4-3.6,6.9-3.6
		c4.3,0,6.8,2.7,6.8,6.8c0,4.8-4.4,9.5-11.1,16.6c1.3-0.1,2.7-0.2,4.1-0.2h8.3v1.5H74V662.3z"/>
</g>
<g class="st0">
	<path class="st1" d="M52.5,690.7h1.7v21.6c0,3.6-1.3,5.3-4.1,5.3c-0.9,0-1.8-0.2-2.4-0.5l0.4-1.4c0.5,0.2,1.2,0.4,1.9,0.4
		c2.1,0,2.4-1.7,2.4-4V690.7z M51.9,684.8c0-1,0.7-1.5,1.5-1.5c0.8,0,1.6,0.6,1.6,1.5c0,0.9-0.7,1.5-1.6,1.5
		C52.6,686.3,51.9,685.7,51.9,684.8z"/>
	<path class="st1" d="M72,697.5c0.1-2.8-0.7-5.8-4.3-5.8c-2.5,0-4.6,1.2-5.8,2.1l-0.8-1.3c1.3-0.9,3.8-2.4,6.8-2.4
		c4.3,0,5.8,3.1,5.8,7v11.7h-1.4l-0.2-2.4H72c-1.9,1.5-4.1,2.8-6.5,2.8c-2.9,0-5.3-1.6-5.3-5C60.2,700.4,63.9,698.4,72,697.5z
		 M65.8,708c2.1,0,4-1,6.2-3v-6.2c-7.5,0.9-10,2.6-10,5.5C61.9,706.9,63.7,708,65.8,708z"/>
	<path class="st1" d="M80.2,690.7h1.4l0.2,2.8h0.1c1.9-1.9,3.8-3.3,6.3-3.3c3.8,0,5.5,2.3,5.5,7v11.7H92v-11.5
		c0-3.9-1.2-5.7-4.2-5.7c-2.2,0-3.7,1.1-6,3.4v13.8h-1.7V690.7z"/>
</g>
<line class="st2" x1="0" y1="731.7" x2="640" y2="731.7"/>
<line class="st2" x1="148.5" y1="649.5" x2="148.5" y2="703.5"/>
<g class="st0">
	<path class="st4" d="M210.3,662.6h-8v-1.5H220v1.5H212v23.5h-1.7V662.6z"/>
	<path class="st4" d="M222.6,667.9h1.4l0.2,3.4h0.1c1.2-2.2,3-3.8,5.2-3.8c0.7,0,1.2,0.1,1.8,0.4l-0.4,1.5c-0.6-0.2-1-0.3-1.7-0.3
		c-1.6,0-3.6,1.3-5,4.7v12.4h-1.7V667.9z"/>
	<path class="st4" d="M244.5,674.7c0.1-2.8-0.7-5.8-4.3-5.8c-2.5,0-4.6,1.2-5.8,2.1l-0.8-1.3c1.3-0.9,3.8-2.4,6.8-2.4
		c4.3,0,5.8,3.1,5.8,7v11.7h-1.4l-0.2-2.4h-0.1c-1.9,1.5-4.1,2.8-6.5,2.8c-2.9,0-5.3-1.6-5.3-5C232.8,677.6,236.4,675.6,244.5,674.7
		z M238.3,685.2c2.1,0,4-1,6.2-3V676c-7.5,0.9-10,2.6-10,5.5C234.5,684.1,236.3,685.2,238.3,685.2z"/>
	<path class="st4" d="M252.1,662c0-1,0.7-1.5,1.5-1.5c0.8,0,1.5,0.6,1.5,1.5c0,0.9-0.7,1.5-1.5,1.5
		C252.8,663.5,252.1,662.9,252.1,662z M252.7,667.9h1.7v18.2h-1.7V667.9z"/>
	<path class="st4" d="M261.4,667.9h1.4l0.2,2.8h0.1c1.9-1.9,3.8-3.3,6.3-3.3c3.8,0,5.5,2.3,5.5,7v11.7h-1.7v-11.5
		c0-3.9-1.2-5.7-4.2-5.7c-2.2,0-3.7,1.1-6,3.4v13.8h-1.7V667.9z"/>
	<path class="st4" d="M281,662c0-1,0.7-1.5,1.5-1.5c0.8,0,1.5,0.6,1.5,1.5c0,0.9-0.7,1.5-1.5,1.5C281.7,663.5,281,662.9,281,662z
		 M281.7,667.9h1.7v18.2h-1.7V667.9z"/>
	<path class="st4" d="M290.4,667.9h1.4l0.2,2.8h0.1c1.9-1.9,3.8-3.3,6.3-3.3c3.8,0,5.5,2.3,5.5,7v11.7h-1.7v-11.5
		c0-3.9-1.2-5.7-4.2-5.7c-2.2,0-3.7,1.1-6,3.4v13.8h-1.7V667.9z"/>
	<path class="st4" d="M311.8,685.5v-0.2c-0.9-0.5-1.6-1.5-1.6-2.9c0-1.6,1.2-2.8,2-3.3v-0.2c-1.1-1-2.3-2.8-2.3-5
		c0-3.8,2.8-6.4,6.4-6.4c1,0,1.8,0.2,2.4,0.5h6.2v1.4h-4.3c1.2,1,2,2.7,2,4.6c0,3.7-2.8,6.4-6.3,6.4c-1,0-2.2-0.3-3-0.8
		c-0.8,0.6-1.5,1.4-1.5,2.6c0,1.3,0.8,2.4,3.5,2.4h3.9c4.1,0,6,1.3,6,4.2c0,3.2-3.4,6.2-8.6,6.2c-4.6,0-7.5-2-7.5-5.1
		C309.1,688.3,310.1,686.7,311.8,685.5z M316.7,693.5c4.1,0,6.7-2.3,6.7-4.6c0-2-1.5-2.8-4.2-2.8h-3.9c-0.4,0-1.3-0.1-2.3-0.3
		c-1.7,1.1-2.4,2.5-2.4,3.8C310.7,692,312.9,693.5,316.7,693.5z M321,673.9c0-3.1-2.1-5.1-4.7-5.1c-2.6,0-4.7,1.9-4.7,5.1
		c0,3.1,2.2,5.1,4.7,5.1C318.8,679,321,676.9,321,673.9z"/>
</g>
<g class="st0">
	<path class="st1" d="M55.8,770c8-8.1,12-12.6,12-16.8c0-3-1.6-5.4-5.3-5.4c-2.2,0-4.2,1.4-5.7,3.2l-1.1-1.1c1.8-2,4-3.6,6.9-3.6
		c4.3,0,6.8,2.7,6.8,6.8c0,4.8-4.4,9.5-11.1,16.6c1.3-0.1,2.7-0.2,4.1-0.2h8.3v1.5H55.8V770z"/>
	<path class="st1" d="M74.5,767c1.4,1.6,3.4,3.1,6.7,3.1c3.3,0,5.7-2.1,5.7-5.4c0-3.3-2.4-5.6-8.5-5.6v-1.5c5.6,0,7.6-2.4,7.6-5.3
		c0-2.7-1.9-4.5-4.9-4.5c-2.2,0-4.2,1.2-5.6,2.7l-1-1.1c1.7-1.6,3.8-3,6.6-3c3.8,0,6.6,2.1,6.6,5.9c0,3.2-2,5.1-4.6,6v0.2
		c3,0.6,5.5,2.9,5.5,6.3c0,4.2-3.2,6.9-7.4,6.9c-3.9,0-6.2-1.8-7.7-3.4L74.5,767z"/>
</g>
<g class="st0">
	<path class="st1" d="M52.5,798.5h1.7v21.6c0,3.6-1.3,5.3-4.1,5.3c-0.9,0-1.8-0.2-2.4-0.5l0.4-1.4c0.5,0.2,1.2,0.4,1.9,0.4
		c2.1,0,2.4-1.7,2.4-4V798.5z M51.9,792.6c0-1,0.7-1.5,1.5-1.5c0.8,0,1.6,0.6,1.6,1.5c0,0.9-0.7,1.5-1.6,1.5
		C52.6,794.1,51.9,793.5,51.9,792.6z"/>
	<path class="st1" d="M72,805.3c0.1-2.8-0.7-5.8-4.3-5.8c-2.5,0-4.6,1.2-5.8,2.1l-0.8-1.3c1.3-0.9,3.8-2.4,6.8-2.4
		c4.3,0,5.8,3.1,5.8,7v11.7h-1.4l-0.2-2.4H72c-1.9,1.5-4.1,2.8-6.5,2.8c-2.9,0-5.3-1.6-5.3-5C60.2,808.1,63.9,806.2,72,805.3z
		 M65.8,815.7c2.1,0,4-1,6.2-3v-6.2c-7.5,0.9-10,2.6-10,5.5C61.9,814.7,63.7,815.7,65.8,815.7z"/>
	<path class="st1" d="M80.2,798.5h1.4l0.2,2.8h0.1c1.9-1.9,3.8-3.3,6.3-3.3c3.8,0,5.5,2.3,5.5,7v11.7H92v-11.5
		c0-3.9-1.2-5.7-4.2-5.7c-2.2,0-3.7,1.1-6,3.4v13.8h-1.7V798.5z"/>
</g>
<line class="st2" x1="0" y1="834.5" x2="640" y2="834.5"/>
<line class="st2" x1="148.5" y1="757.3" x2="148.5" y2="811.3"/>
<g class="st0">
	<path class="st4" d="M204.9,768.9h1.7v11H220v-11h1.7v25H220v-12.5h-13.4v12.5h-1.7V768.9z"/>
	<path class="st4" d="M235.3,775.2c4.3,0,7,3.1,7,8.4c0,0.5,0,0.9-0.1,1.4H229c0.1,4.6,2.8,7.9,6.9,7.9c2,0,3.5-0.6,4.9-1.6l0.7,1.3
		c-1.4,0.9-3.1,1.8-5.7,1.8c-4.7,0-8.4-3.6-8.4-9.5C227.3,778.9,231.2,775.2,235.3,775.2z M240.7,783.7c0-4.7-2.1-7.1-5.4-7.1
		c-3.1,0-5.9,2.7-6.3,7.1H240.7z"/>
	<path class="st4" d="M247.2,775.7h1.4l0.2,3.4h0.1c1.2-2.2,3-3.8,5.2-3.8c0.7,0,1.2,0.1,1.8,0.4l-0.4,1.5c-0.6-0.2-1-0.3-1.7-0.3
		c-1.6,0-3.6,1.3-5,4.7v12.4h-1.7V775.7z"/>
	<path class="st4" d="M257.6,790.6c1.6,1.3,3.2,2.3,5.8,2.3c2.8,0,4.3-1.7,4.3-3.6c0-2.3-2.4-3.3-4.4-4c-2.8-1-5.8-2.1-5.8-5.2
		c0-2.7,2.1-4.9,5.9-4.9c1.9,0,3.9,0.8,5.2,1.9l-0.9,1.2c-1.2-0.9-2.5-1.6-4.4-1.6c-2.8,0-4.1,1.6-4.1,3.3c0,2,2.1,2.9,4.3,3.7
		c2.8,1.1,6,2,6,5.6c0,2.7-2.2,5.1-6.2,5.1c-2.7,0-5.1-1.1-6.7-2.5L257.6,790.6z"/>
	<path class="st4" d="M274.7,777.1h-2.8v-1.3l2.9-0.2l0.2-5.3h1.4v5.3h5.3v1.4h-5.3V789c0,2.3,0.6,3.9,3.1,3.9
		c0.7,0,1.6-0.3,2.3-0.6l0.5,1.4c-1.1,0.4-2.2,0.7-3,0.7c-3.5,0-4.6-2.2-4.6-5.5V777.1z"/>
	<path class="st4" d="M292.2,775.2c4.3,0,7,3.1,7,8.4c0,0.5,0,0.9-0.1,1.4h-13.1c0.1,4.6,2.8,7.9,6.9,7.9c2,0,3.5-0.6,4.9-1.6
		l0.7,1.3c-1.4,0.9-3.1,1.8-5.7,1.8c-4.7,0-8.4-3.6-8.4-9.5C284.2,778.9,288.1,775.2,292.2,775.2z M297.5,783.7
		c0-4.7-2.1-7.1-5.4-7.1c-3.1,0-5.9,2.7-6.3,7.1H297.5z"/>
	<path class="st4" d="M304.1,766.6h1.7v25.1c0,0.8,0.3,1.2,0.8,1.2c0.2,0,0.3,0,0.7-0.1l0.3,1.4c-0.3,0.1-0.7,0.2-1.2,0.2
		c-1.5,0-2.2-0.9-2.2-2.9V766.6z"/>
</g>
<g class="st0">
	<path class="st1" d="M55.8,877.8c8-8.1,12-12.6,12-16.8c0-3-1.6-5.4-5.3-5.4c-2.2,0-4.2,1.4-5.7,3.2l-1.1-1.1c1.8-2,4-3.6,6.9-3.6
		c4.3,0,6.8,2.7,6.8,6.8c0,4.8-4.4,9.5-11.1,16.6c1.3-0.1,2.7-0.2,4.1-0.2h8.3v1.5H55.8V877.8z"/>
	<path class="st1" d="M89.4,871.6h-3.6v7.3h-1.6v-7.3H73v-1l11.3-16h1.5v15.6h3.6V871.6z M84.2,870.2v-8.9c0-1.1,0.1-3.1,0.2-4.2
		h-0.2c-0.6,1-1.3,1.9-2,3l-7.1,10H84.2z"/>
</g>
<g class="st0">
	<path class="st1" d="M52.5,906.2h1.7v21.6c0,3.6-1.3,5.3-4.1,5.3c-0.9,0-1.8-0.2-2.4-0.5l0.4-1.4c0.5,0.2,1.2,0.4,1.9,0.4
		c2.1,0,2.4-1.7,2.4-4V906.2z M51.9,900.3c0-1,0.7-1.5,1.5-1.5c0.8,0,1.6,0.6,1.6,1.5c0,0.9-0.7,1.5-1.6,1.5
		C52.6,901.8,51.9,901.2,51.9,900.3z"/>
	<path class="st1" d="M72,913c0.1-2.8-0.7-5.8-4.3-5.8c-2.5,0-4.6,1.2-5.8,2.1l-0.8-1.3c1.3-0.9,3.8-2.4,6.8-2.4
		c4.3,0,5.8,3.1,5.8,7v11.7h-1.4l-0.2-2.4H72c-1.9,1.5-4.1,2.8-6.5,2.8c-2.9,0-5.3-1.6-5.3-5C60.2,915.9,63.9,913.9,72,913z
		 M65.8,923.5c2.1,0,4-1,6.2-3v-6.2c-7.5,0.9-10,2.6-10,5.5C61.9,922.5,63.7,923.5,65.8,923.5z"/>
	<path class="st1" d="M80.2,906.2h1.4l0.2,2.8h0.1c1.9-1.9,3.8-3.3,6.3-3.3c3.8,0,5.5,2.3,5.5,7v11.7H92V913c0-3.9-1.2-5.7-4.2-5.7
		c-2.2,0-3.7,1.1-6,3.4v13.8h-1.7V906.2z"/>
</g>
<line class="st2" x1="0" y1="942.3" x2="640" y2="942.3"/>
<line class="st2" x1="148.5" y1="865" x2="148.5" y2="919.1"/>
<g class="st0">
	<path class="st4" d="M210.3,878.2h-8v-1.5H220v1.5H212v23.5h-1.7V878.2z"/>
	<path class="st4" d="M222.6,883.4h1.4l0.2,3.4h0.1c1.2-2.2,3-3.8,5.2-3.8c0.7,0,1.2,0.1,1.8,0.4l-0.4,1.5c-0.6-0.2-1-0.3-1.7-0.3
		c-1.6,0-3.6,1.3-5,4.7v12.4h-1.7V883.4z"/>
	<path class="st4" d="M244.5,890.2c0.1-2.8-0.7-5.8-4.3-5.8c-2.5,0-4.6,1.2-5.8,2.1l-0.8-1.3c1.3-0.9,3.8-2.4,6.8-2.4
		c4.3,0,5.8,3.1,5.8,7v11.7h-1.4l-0.2-2.4h-0.1c-1.9,1.5-4.1,2.8-6.5,2.8c-2.9,0-5.3-1.6-5.3-5C232.8,893.1,236.4,891.2,244.5,890.2
		z M238.3,900.7c2.1,0,4-1,6.2-3v-6.2c-7.5,0.9-10,2.6-10,5.5C234.5,899.7,236.3,900.7,238.3,900.7z"/>
	<path class="st4" d="M252.1,877.5c0-1,0.7-1.5,1.5-1.5c0.8,0,1.5,0.6,1.5,1.5c0,0.9-0.7,1.5-1.5,1.5
		C252.8,879,252.1,878.4,252.1,877.5z M252.7,883.4h1.7v18.2h-1.7V883.4z"/>
	<path class="st4" d="M261.4,883.4h1.4l0.2,2.8h0.1c1.9-1.9,3.8-3.3,6.3-3.3c3.8,0,5.5,2.3,5.5,7v11.7h-1.7v-11.5
		c0-3.9-1.2-5.7-4.2-5.7c-2.2,0-3.7,1.1-6,3.4v13.8h-1.7V883.4z"/>
	<path class="st4" d="M281,877.5c0-1,0.7-1.5,1.5-1.5c0.8,0,1.5,0.6,1.5,1.5c0,0.9-0.7,1.5-1.5,1.5C281.7,879,281,878.4,281,877.5z
		 M281.7,883.4h1.7v18.2h-1.7V883.4z"/>
	<path class="st4" d="M290.4,883.4h1.4l0.2,2.8h0.1c1.9-1.9,3.8-3.3,6.3-3.3c3.8,0,5.5,2.3,5.5,7v11.7h-1.7v-11.5
		c0-3.9-1.2-5.7-4.2-5.7c-2.2,0-3.7,1.1-6,3.4v13.8h-1.7V883.4z"/>
	<path class="st4" d="M311.8,901v-0.2c-0.9-0.5-1.6-1.5-1.6-2.9c0-1.6,1.2-2.8,2-3.3v-0.2c-1.1-1-2.3-2.8-2.3-5
		c0-3.8,2.8-6.4,6.4-6.4c1,0,1.8,0.2,2.4,0.5h6.2v1.4h-4.3c1.2,1,2,2.7,2,4.6c0,3.7-2.8,6.4-6.3,6.4c-1,0-2.2-0.3-3-0.8
		c-0.8,0.6-1.5,1.4-1.5,2.6c0,1.3,0.8,2.4,3.5,2.4h3.9c4.1,0,6,1.3,6,4.2c0,3.2-3.4,6.2-8.6,6.2c-4.6,0-7.5-2-7.5-5.1
		C309.1,903.8,310.1,902.2,311.8,901z M316.7,909.1c4.1,0,6.7-2.3,6.7-4.6c0-2-1.5-2.8-4.2-2.8h-3.9c-0.4,0-1.3-0.1-2.3-0.3
		c-1.7,1.1-2.4,2.5-2.4,3.8C310.7,907.5,312.9,909.1,316.7,909.1z M321,889.4c0-3.1-2.1-5.1-4.7-5.1c-2.6,0-4.7,1.9-4.7,5.1
		c0,3.1,2.2,5.1,4.7,5.1C318.8,894.5,321,892.5,321,889.4z"/>
</g>
<g class="st0">
	<path class="st1" d="M55.8,985.6c8-8.1,12-12.6,12-16.8c0-3-1.6-5.4-5.3-5.4c-2.2,0-4.2,1.4-5.7,3.2l-1.1-1.1c1.8-2,4-3.6,6.9-3.6
		c4.3,0,6.8,2.7,6.8,6.8c0,4.8-4.4,9.5-11.1,16.6c1.3-0.1,2.7-0.2,4.1-0.2h8.3v1.5H55.8V985.6z"/>
	<path class="st1" d="M74.4,982.7c1.4,1.5,3.3,3,6.6,3c3.2,0,6-2.6,6-6.5c0-3.9-2.3-6.3-5.9-6.3c-1.9,0-3.1,0.6-4.5,1.6l-1.2-0.7
		l0.9-11.4h11.2v1.5h-9.7l-0.8,8.8c1.3-0.8,2.5-1.3,4.3-1.3c4.1,0,7.4,2.4,7.4,7.7c0,5.2-3.8,8.1-7.8,8.1c-3.9,0-6.1-1.7-7.6-3.3
		L74.4,982.7z"/>
</g>
<g class="st0">
	<path class="st1" d="M52.5,1014h1.7v21.6c0,3.6-1.3,5.3-4.1,5.3c-0.9,0-1.8-0.2-2.4-0.5l0.4-1.4c0.5,0.2,1.2,0.4,1.9,0.4
		c2.1,0,2.4-1.7,2.4-4V1014z M51.9,1008.1c0-1,0.7-1.5,1.5-1.5c0.8,0,1.6,0.6,1.6,1.5c0,0.9-0.7,1.5-1.6,1.5
		C52.6,1009.6,51.9,1009,51.9,1008.1z"/>
	<path class="st1" d="M72,1020.8c0.1-2.8-0.7-5.8-4.3-5.8c-2.5,0-4.6,1.2-5.8,2.1l-0.8-1.3c1.3-0.9,3.8-2.4,6.8-2.4
		c4.3,0,5.8,3.1,5.8,7v11.7h-1.4l-0.2-2.4H72c-1.9,1.5-4.1,2.8-6.5,2.8c-2.9,0-5.3-1.6-5.3-5C60.2,1023.7,63.9,1021.7,72,1020.8z
		 M65.8,1031.3c2.1,0,4-1,6.2-3v-6.2c-7.5,0.9-10,2.6-10,5.5C61.9,1030.2,63.7,1031.3,65.8,1031.3z"/>
	<path class="st1" d="M80.2,1014h1.4l0.2,2.8h0.1c1.9-1.9,3.8-3.3,6.3-3.3c3.8,0,5.5,2.3,5.5,7v11.7H92v-11.5c0-3.9-1.2-5.7-4.2-5.7
		c-2.2,0-3.7,1.1-6,3.4v13.8h-1.7V1014z"/>
</g>
<line class="st2" x1="0" y1="1050" x2="640" y2="1050"/>
<line class="st2" x1="148.5" y1="972.8" x2="148.5" y2="1026.8"/>
<g class="st0">
	<path class="st4" d="M210.3,985.9h-8v-1.5H220v1.5H212v23.5h-1.7V985.9z"/>
	<path class="st4" d="M222.6,991.2h1.4l0.2,3.4h0.1c1.2-2.2,3-3.8,5.2-3.8c0.7,0,1.2,0.1,1.8,0.4l-0.4,1.5c-0.6-0.2-1-0.3-1.7-0.3
		c-1.6,0-3.6,1.3-5,4.7v12.4h-1.7V991.2z"/>
	<path class="st4" d="M244.5,998c0.1-2.8-0.7-5.8-4.3-5.8c-2.5,0-4.6,1.2-5.8,2.1l-0.8-1.3c1.3-0.9,3.8-2.4,6.8-2.4
		c4.3,0,5.8,3.1,5.8,7v11.7h-1.4l-0.2-2.4h-0.1c-1.9,1.5-4.1,2.8-6.5,2.8c-2.9,0-5.3-1.6-5.3-5C232.8,1000.9,236.4,998.9,244.5,998z
		 M238.3,1008.5c2.1,0,4-1,6.2-3v-6.2c-7.5,0.9-10,2.6-10,5.5C234.5,1007.4,236.3,1008.5,238.3,1008.5z"/>
	<path class="st4" d="M252.1,985.3c0-1,0.7-1.5,1.5-1.5c0.8,0,1.5,0.6,1.5,1.5c0,0.9-0.7,1.5-1.5,1.5
		C252.8,986.8,252.1,986.2,252.1,985.3z M252.7,991.2h1.7v18.2h-1.7V991.2z"/>
	<path class="st4" d="M261.4,991.2h1.4l0.2,2.8h0.1c1.9-1.9,3.8-3.3,6.3-3.3c3.8,0,5.5,2.3,5.5,7v11.7h-1.7V998
		c0-3.9-1.2-5.7-4.2-5.7c-2.2,0-3.7,1.1-6,3.4v13.8h-1.7V991.2z"/>
	<path class="st4" d="M281,985.3c0-1,0.7-1.5,1.5-1.5c0.8,0,1.5,0.6,1.5,1.5c0,0.9-0.7,1.5-1.5,1.5C281.7,986.8,281,986.2,281,985.3
		z M281.7,991.2h1.7v18.2h-1.7V991.2z"/>
	<path class="st4" d="M290.4,991.2h1.4l0.2,2.8h0.1c1.9-1.9,3.8-3.3,6.3-3.3c3.8,0,5.5,2.3,5.5,7v11.7h-1.7V998
		c0-3.9-1.2-5.7-4.2-5.7c-2.2,0-3.7,1.1-6,3.4v13.8h-1.7V991.2z"/>
	<path class="st4" d="M311.8,1008.8v-0.2c-0.9-0.5-1.6-1.5-1.6-2.9c0-1.6,1.2-2.8,2-3.3v-0.2c-1.1-1-2.3-2.8-2.3-5
		c0-3.8,2.8-6.4,6.4-6.4c1,0,1.8,0.2,2.4,0.5h6.2v1.4h-4.3c1.2,1,2,2.7,2,4.6c0,3.7-2.8,6.4-6.3,6.4c-1,0-2.2-0.3-3-0.8
		c-0.8,0.6-1.5,1.4-1.5,2.6c0,1.3,0.8,2.4,3.5,2.4h3.9c4.1,0,6,1.3,6,4.2c0,3.2-3.4,6.2-8.6,6.2c-4.6,0-7.5-2-7.5-5.1
		C309.1,1011.6,310.1,1010,311.8,1008.8z M316.7,1016.9c4.1,0,6.7-2.3,6.7-4.6c0-2-1.5-2.8-4.2-2.8h-3.9c-0.4,0-1.3-0.1-2.3-0.3
		c-1.7,1.1-2.4,2.5-2.4,3.8C310.7,1015.3,312.9,1016.9,316.7,1016.9z M321,997.2c0-3.1-2.1-5.1-4.7-5.1c-2.6,0-4.7,1.9-4.7,5.1
		c0,3.1,2.2,5.1,4.7,5.1C318.8,1002.3,321,1000.2,321,997.2z"/>
</g>
<g class="st0">
	<path class="st1" d="M55.8,1093.3c8-8.1,12-12.6,12-16.8c0-3-1.6-5.4-5.3-5.4c-2.2,0-4.2,1.4-5.7,3.2l-1.1-1.1c1.8-2,4-3.6,6.9-3.6
		c4.3,0,6.8,2.7,6.8,6.8c0,4.8-4.4,9.5-11.1,16.6c1.3-0.1,2.7-0.2,4.1-0.2h8.3v1.5H55.8V1093.3z"/>
	<path class="st1" d="M87.4,1073.2c-1.1-1.3-2.5-2-4.1-2c-3.8,0-7.1,3-7.2,12c1.7-2.1,3.9-3.4,6.1-3.4c4.3,0,6.8,2.6,6.8,7.5
		c0,4.4-3,7.6-6.6,7.6c-4.9,0-7.9-4.1-7.9-11.5c0-10.2,4.3-13.7,8.9-13.7c2.3,0,3.9,1,5.1,2.4L87.4,1073.2z M87.3,1087.3
		c0-3.5-1.6-6.1-5.2-6.1c-1.7,0-3.9,1-5.9,3.6c0.3,5.1,2.3,8.6,6.2,8.6C85.2,1093.4,87.3,1090.7,87.3,1087.3z"/>
</g>
<g class="st0">
	<path class="st1" d="M52.5,1121.8h1.7v21.6c0,3.6-1.3,5.3-4.1,5.3c-0.9,0-1.8-0.2-2.4-0.5l0.4-1.4c0.5,0.2,1.2,0.4,1.9,0.4
		c2.1,0,2.4-1.7,2.4-4V1121.8z M51.9,1115.9c0-1,0.7-1.5,1.5-1.5c0.8,0,1.6,0.6,1.6,1.5c0,0.9-0.7,1.5-1.6,1.5
		C52.6,1117.4,51.9,1116.8,51.9,1115.9z"/>
	<path class="st1" d="M72,1128.6c0.1-2.8-0.7-5.8-4.3-5.8c-2.5,0-4.6,1.2-5.8,2.1l-0.8-1.3c1.3-0.9,3.8-2.4,6.8-2.4
		c4.3,0,5.8,3.1,5.8,7v11.7h-1.4l-0.2-2.4H72c-1.9,1.5-4.1,2.8-6.5,2.8c-2.9,0-5.3-1.6-5.3-5C60.2,1131.4,63.9,1129.5,72,1128.6z
		 M65.8,1139c2.1,0,4-1,6.2-3v-6.2c-7.5,0.9-10,2.6-10,5.5C61.9,1138,63.7,1139,65.8,1139z"/>
	<path class="st1" d="M80.2,1121.8h1.4l0.2,2.8h0.1c1.9-1.9,3.8-3.3,6.3-3.3c3.8,0,5.5,2.3,5.5,7v11.7H92v-11.5
		c0-3.9-1.2-5.7-4.2-5.7c-2.2,0-3.7,1.1-6,3.4v13.8h-1.7V1121.8z"/>
</g>
<line class="st2" x1="0" y1="1157.8" x2="640" y2="1157.8"/>
<line class="st2" x1="148.5" y1="1080.6" x2="148.5" y2="1134.6"/>
<g class="st0">
	<path class="st4" d="M204.9,1092.2h1.7v11H220v-11h1.7v25H220v-12.5h-13.4v12.5h-1.7V1092.2z"/>
	<path class="st4" d="M235.3,1098.5c4.3,0,7,3.1,7,8.4c0,0.5,0,0.9-0.1,1.4H229c0.1,4.6,2.8,7.9,6.9,7.9c2,0,3.5-0.6,4.9-1.6
		l0.7,1.3c-1.4,0.9-3.1,1.8-5.7,1.8c-4.7,0-8.4-3.6-8.4-9.5C227.3,1102.2,231.2,1098.5,235.3,1098.5z M240.7,1107
		c0-4.7-2.1-7.1-5.4-7.1c-3.1,0-5.9,2.7-6.3,7.1H240.7z"/>
	<path class="st4" d="M247.2,1099h1.4l0.2,3.4h0.1c1.2-2.2,3-3.8,5.2-3.8c0.7,0,1.2,0.1,1.8,0.4l-0.4,1.5c-0.6-0.2-1-0.3-1.7-0.3
		c-1.6,0-3.6,1.3-5,4.7v12.4h-1.7V1099z"/>
	<path class="st4" d="M257.6,1113.9c1.6,1.3,3.2,2.3,5.8,2.3c2.8,0,4.3-1.7,4.3-3.6c0-2.3-2.4-3.3-4.4-4c-2.8-1-5.8-2.1-5.8-5.2
		c0-2.7,2.1-4.9,5.9-4.9c1.9,0,3.9,0.8,5.2,1.9l-0.9,1.2c-1.2-0.9-2.5-1.6-4.4-1.6c-2.8,0-4.1,1.6-4.1,3.3c0,2,2.1,2.9,4.3,3.7
		c2.8,1.1,6,2,6,5.6c0,2.7-2.2,5.1-6.2,5.1c-2.7,0-5.1-1.1-6.7-2.5L257.6,1113.9z"/>
	<path class="st4" d="M274.7,1100.4h-2.8v-1.3l2.9-0.2l0.2-5.3h1.4v5.3h5.3v1.4h-5.3v11.9c0,2.3,0.6,3.9,3.1,3.9
		c0.7,0,1.6-0.3,2.3-0.6l0.5,1.4c-1.1,0.4-2.2,0.7-3,0.7c-3.5,0-4.6-2.2-4.6-5.5V1100.4z"/>
	<path class="st4" d="M292.2,1098.5c4.3,0,7,3.1,7,8.4c0,0.5,0,0.9-0.1,1.4h-13.1c0.1,4.6,2.8,7.9,6.9,7.9c2,0,3.5-0.6,4.9-1.6
		l0.7,1.3c-1.4,0.9-3.1,1.8-5.7,1.8c-4.7,0-8.4-3.6-8.4-9.5C284.2,1102.2,288.1,1098.5,292.2,1098.5z M297.5,1107
		c0-4.7-2.1-7.1-5.4-7.1c-3.1,0-5.9,2.7-6.3,7.1H297.5z"/>
	<path class="st4" d="M304.1,1089.9h1.7v25.1c0,0.8,0.3,1.2,0.8,1.2c0.2,0,0.3,0,0.7-0.1l0.3,1.4c-0.3,0.1-0.7,0.2-1.2,0.2
		c-1.5,0-2.2-0.9-2.2-2.9V1089.9z"/>
</g>
<g class="st0">
	<path class="st1" d="M55.8,1201.1c8-8.1,12-12.6,12-16.8c0-3-1.6-5.4-5.3-5.4c-2.2,0-4.2,1.4-5.7,3.2l-1.1-1.1c1.8-2,4-3.6,6.9-3.6
		c4.3,0,6.8,2.7,6.8,6.8c0,4.8-4.4,9.5-11.1,16.6c1.3-0.1,2.7-0.2,4.1-0.2h8.3v1.5H55.8V1201.1z"/>
	<path class="st1" d="M86.9,1179.4H74.1v-1.5H89v1c-5.8,7.7-7.3,13.8-7.6,23.3h-1.8C79.9,1192.4,82,1186.2,86.9,1179.4z"/>
</g>
<g class="st0">
	<path class="st1" d="M52.5,1229.5h1.7v21.6c0,3.6-1.3,5.3-4.1,5.3c-0.9,0-1.8-0.2-2.4-0.5l0.4-1.4c0.5,0.2,1.2,0.4,1.9,0.4
		c2.1,0,2.4-1.7,2.4-4V1229.5z M51.9,1223.6c0-1,0.7-1.5,1.5-1.5c0.8,0,1.6,0.6,1.6,1.5c0,0.9-0.7,1.5-1.6,1.5
		C52.6,1225.1,51.9,1224.5,51.9,1223.6z"/>
	<path class="st1" d="M72,1236.3c0.1-2.8-0.7-5.8-4.3-5.8c-2.5,0-4.6,1.2-5.8,2.1l-0.8-1.3c1.3-0.9,3.8-2.4,6.8-2.4
		c4.3,0,5.8,3.1,5.8,7v11.7h-1.4l-0.2-2.4H72c-1.9,1.5-4.1,2.8-6.5,2.8c-2.9,0-5.3-1.6-5.3-5C60.2,1239.2,63.9,1237.2,72,1236.3z
		 M65.8,1246.8c2.1,0,4-1,6.2-3v-6.2c-7.5,0.9-10,2.6-10,5.5C61.9,1245.8,63.7,1246.8,65.8,1246.8z"/>
	<path class="st1" d="M80.2,1229.5h1.4l0.2,2.8h0.1c1.9-1.9,3.8-3.3,6.3-3.3c3.8,0,5.5,2.3,5.5,7v11.7H92v-11.5
		c0-3.9-1.2-5.7-4.2-5.7c-2.2,0-3.7,1.1-6,3.4v13.8h-1.7V1229.5z"/>
</g>
<line class="st2" x1="0" y1="1265.6" x2="640" y2="1265.6"/>
<line class="st2" x1="148.5" y1="1188.3" x2="148.5" y2="1242.4"/>
<g class="st0">
	<path class="st4" d="M210.3,1201.5h-8v-1.5H220v1.5H212v23.5h-1.7V1201.5z"/>
	<path class="st4" d="M222.6,1206.7h1.4l0.2,3.4h0.1c1.2-2.2,3-3.8,5.2-3.8c0.7,0,1.2,0.1,1.8,0.4l-0.4,1.5c-0.6-0.2-1-0.3-1.7-0.3
		c-1.6,0-3.6,1.3-5,4.7v12.4h-1.7V1206.7z"/>
	<path class="st4" d="M244.5,1213.5c0.1-2.8-0.7-5.8-4.3-5.8c-2.5,0-4.6,1.2-5.8,2.1l-0.8-1.3c1.3-0.9,3.8-2.4,6.8-2.4
		c4.3,0,5.8,3.1,5.8,7v11.7h-1.4l-0.2-2.4h-0.1c-1.9,1.5-4.1,2.8-6.5,2.8c-2.9,0-5.3-1.6-5.3-5
		C232.8,1216.4,236.4,1214.4,244.5,1213.5z M238.3,1224c2.1,0,4-1,6.2-3v-6.2c-7.5,0.9-10,2.6-10,5.5
		C234.5,1223,236.3,1224,238.3,1224z"/>
	<path class="st4" d="M252.1,1200.8c0-1,0.7-1.5,1.5-1.5c0.8,0,1.5,0.6,1.5,1.5c0,0.9-0.7,1.5-1.5,1.5
		C252.8,1202.3,252.1,1201.7,252.1,1200.8z M252.7,1206.7h1.7v18.2h-1.7V1206.7z"/>
	<path class="st4" d="M261.4,1206.7h1.4l0.2,2.8h0.1c1.9-1.9,3.8-3.3,6.3-3.3c3.8,0,5.5,2.3,5.5,7v11.7h-1.7v-11.5
		c0-3.9-1.2-5.7-4.2-5.7c-2.2,0-3.7,1.1-6,3.4v13.8h-1.7V1206.7z"/>
	<path class="st4" d="M281,1200.8c0-1,0.7-1.5,1.5-1.5c0.8,0,1.5,0.6,1.5,1.5c0,0.9-0.7,1.5-1.5,1.5
		C281.7,1202.3,281,1201.7,281,1200.8z M281.7,1206.7h1.7v18.2h-1.7V1206.7z"/>
	<path class="st4" d="M290.4,1206.7h1.4l0.2,2.8h0.1c1.9-1.9,3.8-3.3,6.3-3.3c3.8,0,5.5,2.3,5.5,7v11.7h-1.7v-11.5
		c0-3.9-1.2-5.7-4.2-5.7c-2.2,0-3.7,1.1-6,3.4v13.8h-1.7V1206.7z"/>
	<path class="st4" d="M311.8,1224.3v-0.2c-0.9-0.5-1.6-1.5-1.6-2.9c0-1.6,1.2-2.8,2-3.3v-0.2c-1.1-1-2.3-2.8-2.3-5
		c0-3.8,2.8-6.4,6.4-6.4c1,0,1.8,0.2,2.4,0.5h6.2v1.4h-4.3c1.2,1,2,2.7,2,4.6c0,3.7-2.8,6.4-6.3,6.4c-1,0-2.2-0.3-3-0.8
		c-0.8,0.6-1.5,1.4-1.5,2.6c0,1.3,0.8,2.4,3.5,2.4h3.9c4.1,0,6,1.3,6,4.2c0,3.2-3.4,6.2-8.6,6.2c-4.6,0-7.5-2-7.5-5.1
		C309.1,1227.1,310.1,1225.5,311.8,1224.3z M316.7,1232.4c4.1,0,6.7-2.3,6.7-4.6c0-2-1.5-2.8-4.2-2.8h-3.9c-0.4,0-1.3-0.1-2.3-0.3
		c-1.7,1.1-2.4,2.5-2.4,3.8C310.7,1230.8,312.9,1232.4,316.7,1232.4z M321,1212.7c0-3.1-2.1-5.1-4.7-5.1c-2.6,0-4.7,1.9-4.7,5.1
		c0,3.1,2.2,5.1,4.7,5.1C318.8,1217.8,321,1215.8,321,1212.7z"/>
</g>
<g class="st0">
	<path class="st1" d="M55.8,1308.9c8-8.1,12-12.6,12-16.8c0-3-1.6-5.4-5.3-5.4c-2.2,0-4.2,1.4-5.7,3.2l-1.1-1.1c1.8-2,4-3.6,6.9-3.6
		c4.3,0,6.8,2.7,6.8,6.8c0,4.8-4.4,9.5-11.1,16.6c1.3-0.1,2.7-0.2,4.1-0.2h8.3v1.5H55.8V1308.9z"/>
	<path class="st1" d="M78.8,1296.9v-0.2c-1.8-1.2-3.5-3-3.5-5.6c0-3.5,2.8-5.9,6.3-5.9c4.1,0,6.6,2.7,6.6,6.3c0,2.7-2.1,5-3.5,6.2
		v0.2c2.1,1.3,4.3,2.9,4.3,6.2c0,3.5-3,6.3-7.4,6.3c-4.4,0-7.7-2.8-7.7-6.7C73.9,1300.4,76.5,1298.1,78.8,1296.9z M81.6,1309
		c3.4,0,5.7-2.2,5.7-5c0-3.7-3.6-5-7.4-6.5c-2.5,1.4-4.3,3.5-4.3,6.1C75.6,1306.6,78.2,1309,81.6,1309z M86.6,1291.6
		c0-2.7-1.8-5-5-5c-2.7,0-4.7,1.9-4.7,4.5c0,3.5,3.3,4.8,6.5,6.1C85.5,1295.5,86.6,1293.7,86.6,1291.6z"/>
</g>
<g class="st0">
	<path class="st1" d="M52.5,1337.3h1.7v21.6c0,3.6-1.3,5.3-4.1,5.3c-0.9,0-1.8-0.2-2.4-0.5l0.4-1.4c0.5,0.2,1.2,0.4,1.9,0.4
		c2.1,0,2.4-1.7,2.4-4V1337.3z M51.9,1331.4c0-1,0.7-1.5,1.5-1.5c0.8,0,1.6,0.6,1.6,1.5c0,0.9-0.7,1.5-1.6,1.5
		C52.6,1332.9,51.9,1332.3,51.9,1331.4z"/>
	<path class="st1" d="M72,1344.1c0.1-2.8-0.7-5.8-4.3-5.8c-2.5,0-4.6,1.2-5.8,2.1l-0.8-1.3c1.3-0.9,3.8-2.4,6.8-2.4
		c4.3,0,5.8,3.1,5.8,7v11.7h-1.4l-0.2-2.4H72c-1.9,1.5-4.1,2.8-6.5,2.8c-2.9,0-5.3-1.6-5.3-5C60.2,1347,63.9,1345,72,1344.1z
		 M65.8,1354.6c2.1,0,4-1,6.2-3v-6.2c-7.5,0.9-10,2.6-10,5.5C61.9,1353.5,63.7,1354.6,65.8,1354.6z"/>
	<path class="st1" d="M80.2,1337.3h1.4l0.2,2.8h0.1c1.9-1.9,3.8-3.3,6.3-3.3c3.8,0,5.5,2.3,5.5,7v11.7H92v-11.5
		c0-3.9-1.2-5.7-4.2-5.7c-2.2,0-3.7,1.1-6,3.4v13.8h-1.7V1337.3z"/>
</g>
<line class="st2" x1="0" y1="1373.3" x2="640" y2="1373.3"/>
<line class="st2" x1="148.5" y1="1296.1" x2="148.5" y2="1350.1"/>
<g class="st0">
	<path class="st4" d="M210.3,1309.2h-8v-1.5H220v1.5H212v23.5h-1.7V1309.2z"/>
	<path class="st4" d="M222.6,1314.5h1.4l0.2,3.4h0.1c1.2-2.2,3-3.8,5.2-3.8c0.7,0,1.2,0.1,1.8,0.4l-0.4,1.5c-0.6-0.2-1-0.3-1.7-0.3
		c-1.6,0-3.6,1.3-5,4.7v12.4h-1.7V1314.5z"/>
	<path class="st4" d="M244.5,1321.3c0.1-2.8-0.7-5.8-4.3-5.8c-2.5,0-4.6,1.2-5.8,2.1l-0.8-1.3c1.3-0.9,3.8-2.4,6.8-2.4
		c4.3,0,5.8,3.1,5.8,7v11.7h-1.4l-0.2-2.4h-0.1c-1.9,1.5-4.1,2.8-6.5,2.8c-2.9,0-5.3-1.6-5.3-5
		C232.8,1324.2,236.4,1322.2,244.5,1321.3z M238.3,1331.8c2.1,0,4-1,6.2-3v-6.2c-7.5,0.9-10,2.6-10,5.5
		C234.5,1330.7,236.3,1331.8,238.3,1331.8z"/>
	<path class="st4" d="M252.1,1308.6c0-1,0.7-1.5,1.5-1.5c0.8,0,1.5,0.6,1.5,1.5c0,0.9-0.7,1.5-1.5,1.5
		C252.8,1310.1,252.1,1309.5,252.1,1308.6z M252.7,1314.5h1.7v18.2h-1.7V1314.5z"/>
	<path class="st4" d="M261.4,1314.5h1.4l0.2,2.8h0.1c1.9-1.9,3.8-3.3,6.3-3.3c3.8,0,5.5,2.3,5.5,7v11.7h-1.7v-11.5
		c0-3.9-1.2-5.7-4.2-5.7c-2.2,0-3.7,1.1-6,3.4v13.8h-1.7V1314.5z"/>
	<path class="st4" d="M281,1308.6c0-1,0.7-1.5,1.5-1.5c0.8,0,1.5,0.6,1.5,1.5c0,0.9-0.7,1.5-1.5,1.5
		C281.7,1310.1,281,1309.5,281,1308.6z M281.7,1314.5h1.7v18.2h-1.7V1314.5z"/>
	<path class="st4" d="M290.4,1314.5h1.4l0.2,2.8h0.1c1.9-1.9,3.8-3.3,6.3-3.3c3.8,0,5.5,2.3,5.5,7v11.7h-1.7v-11.5
		c0-3.9-1.2-5.7-4.2-5.7c-2.2,0-3.7,1.1-6,3.4v13.8h-1.7V1314.5z"/>
	<path class="st4" d="M311.8,1332.1v-0.2c-0.9-0.5-1.6-1.5-1.6-2.9c0-1.6,1.2-2.8,2-3.3v-0.2c-1.1-1-2.3-2.8-2.3-5
		c0-3.8,2.8-6.4,6.4-6.4c1,0,1.8,0.2,2.4,0.5h6.2v1.4h-4.3c1.2,1,2,2.7,2,4.6c0,3.7-2.8,6.4-6.3,6.4c-1,0-2.2-0.3-3-0.8
		c-0.8,0.6-1.5,1.4-1.5,2.6c0,1.3,0.8,2.4,3.5,2.4h3.9c4.1,0,6,1.3,6,4.2c0,3.2-3.4,6.2-8.6,6.2c-4.6,0-7.5-2-7.5-5.1
		C309.1,1334.9,310.1,1333.3,311.8,1332.1z M316.7,1340.2c4.1,0,6.7-2.3,6.7-4.6c0-2-1.5-2.8-4.2-2.8h-3.9c-0.4,0-1.3-0.1-2.3-0.3
		c-1.7,1.1-2.4,2.5-2.4,3.8C310.7,1338.6,312.9,1340.2,316.7,1340.2z M321,1320.5c0-3.1-2.1-5.1-4.7-5.1c-2.6,0-4.7,1.9-4.7,5.1
		c0,3.1,2.2,5.1,4.7,5.1C318.8,1325.6,321,1323.5,321,1320.5z"/>
</g>
<g class="st0">
	<path class="st1" d="M55.8,1416.6c8-8.1,12-12.6,12-16.8c0-3-1.6-5.4-5.3-5.4c-2.2,0-4.2,1.4-5.7,3.2l-1.1-1.1c1.8-2,4-3.6,6.9-3.6
		c4.3,0,6.8,2.7,6.8,6.8c0,4.8-4.4,9.5-11.1,16.6c1.3-0.1,2.7-0.2,4.1-0.2h8.3v1.5H55.8V1416.6z"/>
	<path class="st1" d="M75.6,1414.7c1.1,1.3,2.5,2,4.1,2c3.8,0,7.1-3,7.2-12c-1.7,2-3.9,3.3-6.2,3.3c-4.2,0-6.7-2.6-6.7-7.5
		c0-4.4,3-7.6,6.6-7.6c4.8,0,7.9,4.1,7.9,11.4c0,10.2-4.2,13.8-8.9,13.8c-2.2,0-3.9-1-5.1-2.4L75.6,1414.7z M86.9,1403
		c-0.3-5.1-2.3-8.5-6.3-8.5c-2.8,0-4.9,2.7-4.9,6.1c0,3.5,1.6,6.1,5.3,6.1C82.7,1406.7,84.9,1405.6,86.9,1403z"/>
</g>
<g class="st0">
	<path class="st1" d="M52.5,1445.1h1.7v21.6c0,3.6-1.3,5.3-4.1,5.3c-0.9,0-1.8-0.2-2.4-0.5l0.4-1.4c0.5,0.2,1.2,0.4,1.9,0.4
		c2.1,0,2.4-1.7,2.4-4V1445.1z M51.9,1439.2c0-1,0.7-1.5,1.5-1.5c0.8,0,1.6,0.6,1.6,1.5c0,0.9-0.7,1.5-1.6,1.5
		C52.6,1440.7,51.9,1440.1,51.9,1439.2z"/>
	<path class="st1" d="M72,1451.9c0.1-2.8-0.7-5.8-4.3-5.8c-2.5,0-4.6,1.2-5.8,2.1l-0.8-1.3c1.3-0.9,3.8-2.4,6.8-2.4
		c4.3,0,5.8,3.1,5.8,7v11.7h-1.4L72,1461H72c-1.9,1.5-4.1,2.8-6.5,2.8c-2.9,0-5.3-1.6-5.3-5C60.2,1454.7,63.9,1452.8,72,1451.9z
		 M65.8,1462.3c2.1,0,4-1,6.2-3v-6.2c-7.5,0.9-10,2.6-10,5.5C61.9,1461.3,63.7,1462.3,65.8,1462.3z"/>
	<path class="st1" d="M80.2,1445.1h1.4l0.2,2.8h0.1c1.9-1.9,3.8-3.3,6.3-3.3c3.8,0,5.5,2.3,5.5,7v11.7H92v-11.5
		c0-3.9-1.2-5.7-4.2-5.7c-2.2,0-3.7,1.1-6,3.4v13.8h-1.7V1445.1z"/>
</g>
<line class="st2" x1="0" y1="1481.1" x2="640" y2="1481.1"/>
<line class="st2" x1="148.5" y1="1403.9" x2="148.5" y2="1457.9"/>
<g class="st0">
	<path class="st4" d="M204.9,1415.5h1.7v11H220v-11h1.7v25H220V1428h-13.4v12.5h-1.7V1415.5z"/>
	<path class="st4" d="M235.3,1421.8c4.3,0,7,3.1,7,8.4c0,0.5,0,0.9-0.1,1.4H229c0.1,4.6,2.8,7.9,6.9,7.9c2,0,3.5-0.6,4.9-1.6
		l0.7,1.3c-1.4,0.9-3.1,1.8-5.7,1.8c-4.7,0-8.4-3.6-8.4-9.5C227.3,1425.5,231.2,1421.8,235.3,1421.8z M240.7,1430.3
		c0-4.7-2.1-7.1-5.4-7.1c-3.1,0-5.9,2.7-6.3,7.1H240.7z"/>
	<path class="st4" d="M247.2,1422.3h1.4l0.2,3.4h0.1c1.2-2.2,3-3.8,5.2-3.8c0.7,0,1.2,0.1,1.8,0.4l-0.4,1.5c-0.6-0.2-1-0.3-1.7-0.3
		c-1.6,0-3.6,1.3-5,4.7v12.4h-1.7V1422.3z"/>
	<path class="st4" d="M257.6,1437.2c1.6,1.3,3.2,2.3,5.8,2.3c2.8,0,4.3-1.7,4.3-3.6c0-2.3-2.4-3.3-4.4-4c-2.8-1-5.8-2.1-5.8-5.2
		c0-2.7,2.1-4.9,5.9-4.9c1.9,0,3.9,0.8,5.2,1.9l-0.9,1.2c-1.2-0.9-2.5-1.6-4.4-1.6c-2.8,0-4.1,1.6-4.1,3.3c0,2,2.1,2.9,4.3,3.7
		c2.8,1.1,6,2,6,5.6c0,2.7-2.2,5.1-6.2,5.1c-2.7,0-5.1-1.1-6.7-2.5L257.6,1437.2z"/>
	<path class="st4" d="M274.7,1423.7h-2.8v-1.3l2.9-0.2l0.2-5.3h1.4v5.3h5.3v1.4h-5.3v11.9c0,2.3,0.6,3.9,3.1,3.9
		c0.7,0,1.6-0.3,2.3-0.6l0.5,1.4c-1.1,0.4-2.2,0.7-3,0.7c-3.5,0-4.6-2.2-4.6-5.5V1423.7z"/>
	<path class="st4" d="M292.2,1421.8c4.3,0,7,3.1,7,8.4c0,0.5,0,0.9-0.1,1.4h-13.1c0.1,4.6,2.8,7.9,6.9,7.9c2,0,3.5-0.6,4.9-1.6
		l0.7,1.3c-1.4,0.9-3.1,1.8-5.7,1.8c-4.7,0-8.4-3.6-8.4-9.5C284.2,1425.5,288.1,1421.8,292.2,1421.8z M297.5,1430.3
		c0-4.7-2.1-7.1-5.4-7.1c-3.1,0-5.9,2.7-6.3,7.1H297.5z"/>
	<path class="st4" d="M304.1,1413.2h1.7v25.1c0,0.8,0.3,1.2,0.8,1.2c0.2,0,0.3,0,0.7-0.1l0.3,1.4c-0.3,0.1-0.7,0.2-1.2,0.2
		c-1.5,0-2.2-0.9-2.2-2.9V1413.2z"/>
</g>
<g class="st0">
	<path class="st1" d="M56.3,1521.3c1.4,1.6,3.4,3.1,6.7,3.1c3.3,0,5.7-2.1,5.7-5.4c0-3.3-2.4-5.6-8.5-5.6v-1.5
		c5.6,0,7.6-2.4,7.6-5.3c0-2.7-1.9-4.5-4.9-4.5c-2.2,0-4.2,1.2-5.6,2.7l-1-1.1c1.7-1.6,3.8-3,6.6-3c3.8,0,6.6,2.1,6.6,5.9
		c0,3.2-2,5.1-4.6,6v0.2c3,0.6,5.5,2.9,5.5,6.3c0,4.2-3.2,6.9-7.4,6.9c-3.9,0-6.2-1.8-7.7-3.4L56.3,1521.3z"/>
	<path class="st1" d="M74.2,1513.2c0-8.1,2.6-12.5,7.3-12.5s7.3,4.4,7.3,12.5c0,8.1-2.6,12.7-7.3,12.7S74.2,1521.3,74.2,1513.2z
		 M87,1513.2c0-7.4-2.2-11.1-5.5-11.1c-3.3,0-5.5,3.6-5.5,11.1c0,7.4,2.2,11.2,5.5,11.2C84.9,1524.5,87,1520.6,87,1513.2z"/>
</g>
<g class="st0">
	<path class="st1" d="M52.5,1552.8h1.7v21.6c0,3.6-1.3,5.3-4.1,5.3c-0.9,0-1.8-0.2-2.4-0.5l0.4-1.4c0.5,0.2,1.2,0.4,1.9,0.4
		c2.1,0,2.4-1.7,2.4-4V1552.8z M51.9,1546.9c0-1,0.7-1.5,1.5-1.5c0.8,0,1.6,0.6,1.6,1.5c0,0.9-0.7,1.5-1.6,1.5
		C52.6,1548.4,51.9,1547.8,51.9,1546.9z"/>
	<path class="st1" d="M72,1559.6c0.1-2.8-0.7-5.8-4.3-5.8c-2.5,0-4.6,1.2-5.8,2.1l-0.8-1.3c1.3-0.9,3.8-2.4,6.8-2.4
		c4.3,0,5.8,3.1,5.8,7v11.7h-1.4l-0.2-2.4H72c-1.9,1.5-4.1,2.8-6.5,2.8c-2.9,0-5.3-1.6-5.3-5C60.2,1562.5,63.9,1560.6,72,1559.6z
		 M65.8,1570.1c2.1,0,4-1,6.2-3v-6.2c-7.5,0.9-10,2.6-10,5.5C61.9,1569.1,63.7,1570.1,65.8,1570.1z"/>
	<path class="st1" d="M80.2,1552.8h1.4l0.2,2.8h0.1c1.9-1.9,3.8-3.3,6.3-3.3c3.8,0,5.5,2.3,5.5,7v11.7H92v-11.5
		c0-3.9-1.2-5.7-4.2-5.7c-2.2,0-3.7,1.1-6,3.4v13.8h-1.7V1552.8z"/>
</g>
<line class="st2" x1="0" y1="1588.9" x2="640" y2="1588.9"/>
<line class="st2" x1="148.5" y1="1511.6" x2="148.5" y2="1565.7"/>
<g class="st0">
	<path class="st4" d="M210.3,1524.8h-8v-1.5H220v1.5H212v23.5h-1.7V1524.8z"/>
	<path class="st4" d="M222.6,1530h1.4l0.2,3.4h0.1c1.2-2.2,3-3.8,5.2-3.8c0.7,0,1.2,0.1,1.8,0.4l-0.4,1.5c-0.6-0.2-1-0.3-1.7-0.3
		c-1.6,0-3.6,1.3-5,4.7v12.4h-1.7V1530z"/>
	<path class="st4" d="M244.5,1536.8c0.1-2.8-0.7-5.8-4.3-5.8c-2.5,0-4.6,1.2-5.8,2.1l-0.8-1.3c1.3-0.9,3.8-2.4,6.8-2.4
		c4.3,0,5.8,3.1,5.8,7v11.7h-1.4l-0.2-2.4h-0.1c-1.9,1.5-4.1,2.8-6.5,2.8c-2.9,0-5.3-1.6-5.3-5
		C232.8,1539.7,236.4,1537.8,244.5,1536.8z M238.3,1547.3c2.1,0,4-1,6.2-3v-6.2c-7.5,0.9-10,2.6-10,5.5
		C234.5,1546.3,236.3,1547.3,238.3,1547.3z"/>
	<path class="st4" d="M252.1,1524.1c0-1,0.7-1.5,1.5-1.5c0.8,0,1.5,0.6,1.5,1.5c0,0.9-0.7,1.5-1.5,1.5
		C252.8,1525.6,252.1,1525,252.1,1524.1z M252.7,1530h1.7v18.2h-1.7V1530z"/>
	<path class="st4" d="M261.4,1530h1.4l0.2,2.8h0.1c1.9-1.9,3.8-3.3,6.3-3.3c3.8,0,5.5,2.3,5.5,7v11.7h-1.7v-11.5
		c0-3.9-1.2-5.7-4.2-5.7c-2.2,0-3.7,1.1-6,3.4v13.8h-1.7V1530z"/>
	<path class="st4" d="M281,1524.1c0-1,0.7-1.5,1.5-1.5c0.8,0,1.5,0.6,1.5,1.5c0,0.9-0.7,1.5-1.5,1.5
		C281.7,1525.6,281,1525,281,1524.1z M281.7,1530h1.7v18.2h-1.7V1530z"/>
	<path class="st4" d="M290.4,1530h1.4l0.2,2.8h0.1c1.9-1.9,3.8-3.3,6.3-3.3c3.8,0,5.5,2.3,5.5,7v11.7h-1.7v-11.5
		c0-3.9-1.2-5.7-4.2-5.7c-2.2,0-3.7,1.1-6,3.4v13.8h-1.7V1530z"/>
	<path class="st4" d="M311.8,1547.6v-0.2c-0.9-0.5-1.6-1.5-1.6-2.9c0-1.6,1.2-2.8,2-3.3v-0.2c-1.1-1-2.3-2.8-2.3-5
		c0-3.8,2.8-6.4,6.4-6.4c1,0,1.8,0.2,2.4,0.5h6.2v1.4h-4.3c1.2,1,2,2.7,2,4.6c0,3.7-2.8,6.4-6.3,6.4c-1,0-2.2-0.3-3-0.8
		c-0.8,0.6-1.5,1.4-1.5,2.6c0,1.3,0.8,2.4,3.5,2.4h3.9c4.1,0,6,1.3,6,4.2c0,3.2-3.4,6.2-8.6,6.2c-4.6,0-7.5-2-7.5-5.1
		C309.1,1550.4,310.1,1548.8,311.8,1547.6z M316.7,1555.7c4.1,0,6.7-2.3,6.7-4.6c0-2-1.5-2.8-4.2-2.8h-3.9c-0.4,0-1.3-0.1-2.3-0.3
		c-1.7,1.1-2.4,2.5-2.4,3.8C310.7,1554.1,312.9,1555.7,316.7,1555.7z M321,1536c0-3.1-2.1-5.1-4.7-5.1c-2.6,0-4.7,1.9-4.7,5.1
		c0,3.1,2.2,5.1,4.7,5.1C318.8,1541.1,321,1539.1,321,1536z"/>
</g>
<g class="st0">
	<path class="st1" d="M56.3,1629.1c1.4,1.6,3.4,3.1,6.7,3.1c3.3,0,5.7-2.1,5.7-5.4c0-3.3-2.4-5.6-8.5-5.6v-1.5
		c5.6,0,7.6-2.4,7.6-5.3c0-2.7-1.9-4.5-4.9-4.5c-2.2,0-4.2,1.2-5.6,2.7l-1-1.1c1.7-1.6,3.8-3,6.6-3c3.8,0,6.6,2.1,6.6,5.9
		c0,3.2-2,5.1-4.6,6v0.2c3,0.6,5.5,2.9,5.5,6.3c0,4.2-3.2,6.9-7.4,6.9c-3.9,0-6.2-1.8-7.7-3.4L56.3,1629.1z"/>
	<path class="st1" d="M75.6,1631.8h5.7v-20.1H77v-1.1c2-0.3,3.5-0.9,4.7-1.5H83v22.8h5.3v1.5H75.6V1631.8z"/>
</g>
<g class="st0">
	<path class="st1" d="M52.5,1660.6h1.7v21.6c0,3.6-1.3,5.3-4.1,5.3c-0.9,0-1.8-0.2-2.4-0.5l0.4-1.4c0.5,0.2,1.2,0.4,1.9,0.4
		c2.1,0,2.4-1.7,2.4-4V1660.6z M51.9,1654.7c0-1,0.7-1.5,1.5-1.5c0.8,0,1.6,0.6,1.6,1.5c0,0.9-0.7,1.5-1.6,1.5
		C52.6,1656.2,51.9,1655.6,51.9,1654.7z"/>
	<path class="st1" d="M72,1667.4c0.1-2.8-0.7-5.8-4.3-5.8c-2.5,0-4.6,1.2-5.8,2.1l-0.8-1.3c1.3-0.9,3.8-2.4,6.8-2.4
		c4.3,0,5.8,3.1,5.8,7v11.7h-1.4l-0.2-2.4H72c-1.9,1.5-4.1,2.8-6.5,2.8c-2.9,0-5.3-1.6-5.3-5C60.2,1670.3,63.9,1668.3,72,1667.4z
		 M65.8,1677.9c2.1,0,4-1,6.2-3v-6.2c-7.5,0.9-10,2.6-10,5.5C61.9,1676.8,63.7,1677.9,65.8,1677.9z"/>
	<path class="st1" d="M80.2,1660.6h1.4l0.2,2.8h0.1c1.9-1.9,3.8-3.3,6.3-3.3c3.8,0,5.5,2.3,5.5,7v11.7H92v-11.5
		c0-3.9-1.2-5.7-4.2-5.7c-2.2,0-3.7,1.1-6,3.4v13.8h-1.7V1660.6z"/>
</g>
<line class="st2" x1="148.5" y1="1619.4" x2="148.5" y2="1673.4"/>
<g class="st0">
	<path class="st4" d="M210.3,1632.5h-8v-1.5H220v1.5H212v23.5h-1.7V1632.5z"/>
	<path class="st4" d="M222.6,1637.8h1.4l0.2,3.4h0.1c1.2-2.2,3-3.8,5.2-3.8c0.7,0,1.2,0.1,1.8,0.4l-0.4,1.5c-0.6-0.2-1-0.3-1.7-0.3
		c-1.6,0-3.6,1.3-5,4.7v12.4h-1.7V1637.8z"/>
	<path class="st4" d="M244.5,1644.6c0.1-2.8-0.7-5.8-4.3-5.8c-2.5,0-4.6,1.2-5.8,2.1l-0.8-1.3c1.3-0.9,3.8-2.4,6.8-2.4
		c4.3,0,5.8,3.1,5.8,7v11.7h-1.4l-0.2-2.4h-0.1c-1.9,1.5-4.1,2.8-6.5,2.8c-2.9,0-5.3-1.6-5.3-5
		C232.8,1647.5,236.4,1645.5,244.5,1644.6z M238.3,1655.1c2.1,0,4-1,6.2-3v-6.2c-7.5,0.9-10,2.6-10,5.5
		C234.5,1654,236.3,1655.1,238.3,1655.1z"/>
	<path class="st4" d="M252.1,1631.9c0-1,0.7-1.5,1.5-1.5c0.8,0,1.5,0.6,1.5,1.5c0,0.9-0.7,1.5-1.5,1.5
		C252.8,1633.4,252.1,1632.8,252.1,1631.9z M252.7,1637.8h1.7v18.2h-1.7V1637.8z"/>
	<path class="st4" d="M261.4,1637.8h1.4l0.2,2.8h0.1c1.9-1.9,3.8-3.3,6.3-3.3c3.8,0,5.5,2.3,5.5,7v11.7h-1.7v-11.5
		c0-3.9-1.2-5.7-4.2-5.7c-2.2,0-3.7,1.1-6,3.4v13.8h-1.7V1637.8z"/>
	<path class="st4" d="M281,1631.9c0-1,0.7-1.5,1.5-1.5c0.8,0,1.5,0.6,1.5,1.5c0,0.9-0.7,1.5-1.5,1.5
		C281.7,1633.4,281,1632.8,281,1631.9z M281.7,1637.8h1.7v18.2h-1.7V1637.8z"/>
	<path class="st4" d="M290.4,1637.8h1.4l0.2,2.8h0.1c1.9-1.9,3.8-3.3,6.3-3.3c3.8,0,5.5,2.3,5.5,7v11.7h-1.7v-11.5
		c0-3.9-1.2-5.7-4.2-5.7c-2.2,0-3.7,1.1-6,3.4v13.8h-1.7V1637.8z"/>
	<path class="st4" d="M311.8,1655.4v-0.2c-0.9-0.5-1.6-1.5-1.6-2.9c0-1.6,1.2-2.8,2-3.3v-0.2c-1.1-1-2.3-2.8-2.3-5
		c0-3.8,2.8-6.4,6.4-6.4c1,0,1.8,0.2,2.4,0.5h6.2v1.4h-4.3c1.2,1,2,2.7,2,4.6c0,3.7-2.8,6.4-6.3,6.4c-1,0-2.2-0.3-3-0.8
		c-0.8,0.6-1.5,1.4-1.5,2.6c0,1.3,0.8,2.4,3.5,2.4h3.9c4.1,0,6,1.3,6,4.2c0,3.2-3.4,6.2-8.6,6.2c-4.6,0-7.5-2-7.5-5.1
		C309.1,1658.2,310.1,1656.6,311.8,1655.4z M316.7,1663.5c4.1,0,6.7-2.3,6.7-4.6c0-2-1.5-2.8-4.2-2.8h-3.9c-0.4,0-1.3-0.1-2.3-0.3
		c-1.7,1.1-2.4,2.5-2.4,3.8C310.7,1661.9,312.9,1663.5,316.7,1663.5z M321,1643.8c0-3.1-2.1-5.1-4.7-5.1c-2.6,0-4.7,1.9-4.7,5.1
		c0,3.1,2.2,5.1,4.7,5.1C318.8,1648.9,321,1646.8,321,1643.8z"/>
</g>
<g id="Qjxcu2.tif">
	<g>
		<path class="st6" d="M554.5,152.5c17.8-0.2,32.6,14.7,32.5,32.6c-0.1,17.6-14.7,32.5-32.7,32.3c-17.6-0.1-32.4-14.8-32.2-32.7
			C522.2,167,536.6,152.5,554.5,152.5z M554.4,155.4c-16.5,0.3-29.5,13-29.5,29.6c0,16.4,12.9,29.4,29.4,29.5
			C571,214.6,584,201.5,584,185C584,168.4,571.1,155.6,554.4,155.4z"/>
		<path class="st6" d="M554.5,197.2c-4.3,0-8.5,0-12.8,0c-0.3,0-0.7,0-1,0c-0.8-0.1-1.2-0.6-1.2-1.4s0.4-1.3,1.2-1.4
			c0.4,0,0.8,0,1.1,0c8.4,0,16.9,0,25.3,0c0.3,0,0.7,0,1,0c0.8,0.1,1.3,0.5,1.3,1.4s-0.4,1.3-1.3,1.4c-0.3,0-0.7,0-1,0
			C562.9,197.2,558.7,197.2,554.5,197.2z"/>
		<path class="st6" d="M547.8,181c0,2.3-1.8,4.1-4.2,4.1c-2.3,0-4.1-1.8-4-4.2c0-2.3,1.8-4,4.1-4C546.1,176.8,547.8,178.6,547.8,181
			z"/>
		<path class="st6" d="M565.2,185c-2.3,0-4.1-1.8-4-4.2c0-2.3,1.8-4.1,4.2-4c2.3,0,4,1.8,4,4.1C569.4,183.3,567.6,185.1,565.2,185z"
			/>
	</g>
</g>
<g id="IyBYVV.tif">
	<g>
		<path class="st7" d="M554.5,337.5c-17.8,0.2-32.5-14.7-32.5-32.4c0-17.8,14.6-32.5,32.4-32.6c17.8,0,32.7,14.7,32.6,32.6
			C586.8,323.1,572.4,337.5,554.5,337.5z M554.3,334.7c16.6-0.2,29.6-13,29.6-29.5c0-16.6-13-29.6-29.7-29.6
			c-16.5,0-29.4,13-29.4,29.5C524.9,321.5,537.8,334.4,554.3,334.7z"/>
		<path class="st7" d="M553.3,324.1c-6.6-0.2-12.5-3.9-17.3-9.8c-0.6-0.7-0.7-1.5,0-2.2c0.6-0.6,1.6-0.4,2.2,0.4
			c2.5,3,5.4,5.5,9,7.1c6.6,2.9,12.7,1.7,18.4-2.3c1.6-1.2,3.1-2.5,4.4-4c0.2-0.3,0.5-0.6,0.8-0.9c0.6-0.6,1.3-0.8,2-0.3
			c0.8,0.6,0.7,1.3,0.2,2.1c-0.8,1.1-1.7,2.1-2.7,3C565.9,321.3,560.8,324,553.3,324.1z"/>
		<path class="st7" d="M543.6,305.2c-2.3,0-4-1.9-4-4.2c0-2.3,1.9-4,4.3-4c2.2,0,4,1.9,4,4.2C547.7,303.5,545.9,305.2,543.6,305.2z"
			/>
		<path class="st7" d="M565.3,305.2c-2.3,0-4.1-1.8-4.1-4.1c0-2.3,1.8-4.1,4.2-4.1c2.3,0,4,1.8,4,4.1
			C569.4,303.4,567.6,305.2,565.3,305.2z"/>
	</g>
</g>
<g id="IyBYVV.tif_1_">
	<g>
		<path class="st7" d="M554.5,457.6c-17.8,0.2-32.5-14.7-32.5-32.4c0-17.8,14.6-32.5,32.4-32.6c17.8,0,32.7,14.7,32.6,32.6
			C586.8,443.2,572.4,457.6,554.5,457.6z M554.3,454.8c16.6-0.2,29.6-13,29.6-29.5c0-16.6-13-29.6-29.7-29.6
			c-16.5,0-29.4,13-29.4,29.5C524.9,441.6,537.8,454.5,554.3,454.8z"/>
		<path class="st7" d="M553.3,444.2c-6.6-0.2-12.5-3.9-17.3-9.8c-0.6-0.7-0.7-1.5,0-2.2c0.6-0.6,1.6-0.4,2.2,0.4
			c2.5,3,5.4,5.5,9,7.1c6.6,2.9,12.7,1.7,18.4-2.3c1.6-1.2,3.1-2.5,4.4-4c0.2-0.3,0.5-0.6,0.8-0.9c0.6-0.6,1.3-0.8,2-0.3
			c0.8,0.6,0.7,1.3,0.2,2.1c-0.8,1.1-1.7,2.1-2.7,3C565.9,441.4,560.8,444.1,553.3,444.2z"/>
		<path class="st7" d="M543.6,425.2c-2.3,0-4-1.9-4-4.2c0-2.3,1.9-4,4.3-4c2.2,0,4,1.9,4,4.2C547.7,423.5,545.9,425.3,543.6,425.2z"
			/>
		<path class="st7" d="M565.3,425.2c-2.3,0-4.1-1.8-4.1-4.1c0-2.3,1.8-4.1,4.2-4.1c2.3,0,4,1.8,4,4.1
			C569.4,423.4,567.6,425.2,565.3,425.2z"/>
	</g>
</g>
<g id="_x32_KYlMN.tif">
	<g>
		<path class="st8" d="M520.6,537.7c0.2-8.4,4.1-14.6,11.8-18.1c7.5-3.4,15.7-1.8,21.6,4c1,0.9,1.4,0.9,2.4,0
			c5.9-5.6,12.8-7.2,20.4-4.5c7.5,2.7,11.8,8.2,12.8,16c0.9,6.7-1.1,12.8-4.8,18.3c-3.8,5.8-8.8,10.4-14.3,14.5
			c-4.8,3.6-9.9,6.6-14.6,10.4c-0.5,0.4-0.9,0.4-1.4,0c-6.4-5-13.5-9-19.6-14.4c-5.2-4.5-9.6-9.6-12.2-16.1
			C521.3,544.6,520.5,541.2,520.6,537.7z M524.2,537.8c0.1,0.9,0.2,1.8,0.3,2.8c0.1,0.3,0.1,0.6,0.1,0.9c1.3,7.6,5.7,13.3,11.2,18.3
			c5.7,5.3,12.3,9.2,18.4,13.8c0.6,0.5,1.1,0.4,1.7,0c4.6-3.5,9.6-6.6,14.2-10.2c4.8-3.8,9.2-7.9,12.3-13.3
			c2.8-4.9,4.3-10.1,3.2-15.8c-1.3-6.1-5-10.3-11.1-12c-5.9-1.7-11.2-0.4-15.7,3.9c-1.1,1.1-2,2.3-2.9,3.6c-0.6,1-1.1,0.9-1.7-0.1
			c-0.3-0.6-0.7-1.1-1.1-1.7c-3.6-4.7-8.4-6.9-14.4-6.4C531.7,522.3,524.4,528.1,524.2,537.8z"/>
	</g>
</g>
<text transform="matrix(1 0 0 1 -632.3478 215.9565)" style="font-family:'SourceSansPro-Regular'; font-size:38px;">Slaap</text>
<text transform="matrix(1 0 0 1 -632.3478 334.2176)" style="font-family:'SourceSansPro-Regular'; font-size:38px;">Humeur</text>
<text transform="matrix(1 0 0 1 -632.3478 452.4781)" style="font-family:'SourceSansPro-Regular'; font-size:38px;">Herstel</text>
<text transform="matrix(1 0 0 1 -632.3478 577.3717)" style="font-family:'SourceSansPro-Regular'; font-size:38px;">Hartslag</text>
<text transform="matrix(1 0 0 1 -337.6342 217.3237)" style="font-family:'SourceSansPro-Light'; font-size:38px;">08:03 uur</text>
<text transform="matrix(1 0 0 1 -309.8578 578.7392)" style="font-family:'SourceSansPro-Light'; font-size:38px;">72 BPM</text>
<text transform="matrix(1 0 0 1 -636.4719 49.183)" class="st1" style="font-family:'SourceSansPro-Regular'; font-size:38px;">21</text>
<text transform="matrix(1 0 0 1 -639.1719 93.7829)" class="st1" style="font-family:'SourceSansPro-Regular'; font-size:38px;">jan</text>
<line class="st2" x1="-690" y1="112.6" x2="-50" y2="112.6"/>
<line class="st3" x1="-638.3" y1="261.5" x2="-101.7" y2="261.5"/>
<line class="st3" x1="-638.3" y1="379.7" x2="-101.7" y2="379.7"/>
<line class="st3" x1="-638.3" y1="498" x2="-101.7" y2="498"/>
<line class="st2" x1="-690" y1="636.9" x2="-50" y2="636.9"/>
<line class="st2" x1="-541.5" y1="35.3" x2="-541.5" y2="89.4"/>
<text transform="matrix(1 0 0 1 -488.6666 71.9835)" class="st4" style="font-family:'SourceSansPro-Regular'; font-size:38px;">Training</text>
<g>
	<path class="st5" d="M-107.6,54c0.6,0.6,1,1,1.4,1.4c-5.1,5.1-10.2,10.2-15.2,15.2c-5-5-10.1-10.1-15.2-15.2
		c0.4-0.4,0.8-0.8,1.3-1.3c4.6,4.6,9.2,9.2,13.8,13.8C-116.8,63.3-112.2,58.7-107.6,54z"/>
</g>
<text transform="matrix(1 0 0 1 -635.7878 681.34)" class="st1" style="font-family:'SourceSansPro-Light'; font-size:38px;">22</text>
<text transform="matrix(1 0 0 1 -640.9878 726.9399)" class="st1" style="font-family:'SourceSansPro-Light'; font-size:38px;">jan</text>
<line class="st2" x1="-690" y1="744.7" x2="-50" y2="744.7"/>
<line class="st2" x1="-541.5" y1="667.5" x2="-541.5" y2="721.5"/>
<text transform="matrix(1 0 0 1 -488.6666 704.1404)" class="st4" style="font-family:'SourceSansPro-Light'; font-size:38px;">Training</text>
<text transform="matrix(1 0 0 1 -635.7878 789.1069)" class="st1" style="font-family:'SourceSansPro-Light'; font-size:38px;">23</text>
<text transform="matrix(1 0 0 1 -640.9878 834.7069)" class="st1" style="font-family:'SourceSansPro-Light'; font-size:38px;">jan</text>
<line class="st2" x1="-690" y1="852.5" x2="-50" y2="852.5"/>
<line class="st2" x1="-541.5" y1="775.3" x2="-541.5" y2="829.3"/>
<text transform="matrix(1 0 0 1 -488.6666 811.9075)" class="st4" style="font-family:'SourceSansPro-Light'; font-size:38px;">Herstel</text>
<text transform="matrix(1 0 0 1 -635.7878 896.8737)" class="st1" style="font-family:'SourceSansPro-Light'; font-size:38px;">24</text>
<text transform="matrix(1 0 0 1 -640.9878 942.4737)" class="st1" style="font-family:'SourceSansPro-Light'; font-size:38px;">jan</text>
<line class="st2" x1="-690" y1="960.3" x2="-50" y2="960.3"/>
<line class="st2" x1="-541.5" y1="883" x2="-541.5" y2="937.1"/>
<text transform="matrix(1 0 0 1 -488.6666 919.6741)" class="st4" style="font-family:'SourceSansPro-Light'; font-size:38px;">Training</text>
<text transform="matrix(1 0 0 1 -635.7878 1004.6407)" class="st1" style="font-family:'SourceSansPro-Light'; font-size:38px;">25</text>
<text transform="matrix(1 0 0 1 -640.9878 1050.2407)" class="st1" style="font-family:'SourceSansPro-Light'; font-size:38px;">jan</text>
<line class="st2" x1="-690" y1="1068" x2="-50" y2="1068"/>
<line class="st2" x1="-541.5" y1="990.8" x2="-541.5" y2="1044.8"/>
<text transform="matrix(1 0 0 1 -488.6666 1027.4412)" class="st4" style="font-family:'SourceSansPro-Light'; font-size:38px;">Training</text>
<text transform="matrix(1 0 0 1 -635.7878 1112.4073)" class="st1" style="font-family:'SourceSansPro-Light'; font-size:38px;">26</text>
<text transform="matrix(1 0 0 1 -640.9878 1158.0073)" class="st1" style="font-family:'SourceSansPro-Light'; font-size:38px;">jan</text>
<line class="st2" x1="-690" y1="1175.8" x2="-50" y2="1175.8"/>
<line class="st2" x1="-541.5" y1="1098.6" x2="-541.5" y2="1152.6"/>
<text transform="matrix(1 0 0 1 -488.6666 1135.2078)" class="st4" style="font-family:'SourceSansPro-Light'; font-size:38px;">Herstel</text>
<text transform="matrix(1 0 0 1 -635.7878 1220.1742)" class="st1" style="font-family:'SourceSansPro-Light'; font-size:38px;">27</text>
<text transform="matrix(1 0 0 1 -640.9878 1265.7742)" class="st1" style="font-family:'SourceSansPro-Light'; font-size:38px;">jan</text>
<line class="st2" x1="-690" y1="1283.6" x2="-50" y2="1283.6"/>
<line class="st2" x1="-541.5" y1="1206.3" x2="-541.5" y2="1260.4"/>
<text transform="matrix(1 0 0 1 -488.6666 1242.9745)" class="st4" style="font-family:'SourceSansPro-Light'; font-size:38px;">Training</text>
<text transform="matrix(1 0 0 1 -635.7878 1327.941)" class="st1" style="font-family:'SourceSansPro-Light'; font-size:38px;">28</text>
<text transform="matrix(1 0 0 1 -640.9878 1373.541)" class="st1" style="font-family:'SourceSansPro-Light'; font-size:38px;">jan</text>
<line class="st2" x1="-690" y1="1391.3" x2="-50" y2="1391.3"/>
<line class="st2" x1="-541.5" y1="1314.1" x2="-541.5" y2="1368.1"/>
<text transform="matrix(1 0 0 1 -488.6666 1350.7415)" class="st4" style="font-family:'SourceSansPro-Light'; font-size:38px;">Training</text>
<text transform="matrix(1 0 0 1 -635.7878 1435.7078)" class="st1" style="font-family:'SourceSansPro-Light'; font-size:38px;">29</text>
<text transform="matrix(1 0 0 1 -640.9878 1481.3077)" class="st1" style="font-family:'SourceSansPro-Light'; font-size:38px;">jan</text>
<line class="st2" x1="-690" y1="1499.1" x2="-50" y2="1499.1"/>
<line class="st2" x1="-541.5" y1="1421.9" x2="-541.5" y2="1475.9"/>
<text transform="matrix(1 0 0 1 -488.6666 1458.5081)" class="st4" style="font-family:'SourceSansPro-Light'; font-size:38px;">Herstel</text>
<text transform="matrix(1 0 0 1 -635.7878 1543.4749)" class="st1" style="font-family:'SourceSansPro-Light'; font-size:38px;">30</text>
<text transform="matrix(1 0 0 1 -640.9878 1589.0748)" class="st1" style="font-family:'SourceSansPro-Light'; font-size:38px;">jan</text>
<line class="st2" x1="-690" y1="1606.9" x2="-50" y2="1606.9"/>
<line class="st2" x1="-541.5" y1="1529.6" x2="-541.5" y2="1583.7"/>
<text transform="matrix(1 0 0 1 -488.6666 1566.2754)" class="st4" style="font-family:'SourceSansPro-Light'; font-size:38px;">Training</text>
<text transform="matrix(1 0 0 1 -635.7878 1651.2415)" class="st1" style="font-family:'SourceSansPro-Light'; font-size:38px;">31</text>
<text transform="matrix(1 0 0 1 -640.9878 1696.8414)" class="st1" style="font-family:'SourceSansPro-Light'; font-size:38px;">jan</text>
<line class="st2" x1="-541.5" y1="1637.4" x2="-541.5" y2="1691.4"/>
<text transform="matrix(1 0 0 1 -488.6666 1674.0419)" class="st4" style="font-family:'SourceSansPro-Light'; font-size:38px;">Training</text>
<g id="Qjxcu2.tif_1_">
	<g>
		<path class="st6" d="M-135.5,170.5c17.8-0.2,32.6,14.7,32.5,32.6c-0.1,17.6-14.7,32.5-32.7,32.3c-17.6-0.1-32.4-14.8-32.2-32.7
			C-167.8,185-153.4,170.5-135.5,170.5z M-135.6,173.4c-16.5,0.3-29.5,13-29.5,29.6c0,16.4,12.9,29.4,29.4,29.5
			c16.7,0.1,29.7-12.9,29.7-29.5C-106,186.4-118.9,173.6-135.6,173.4z"/>
		<path class="st6" d="M-135.5,215.2c-4.3,0-8.5,0-12.8,0c-0.3,0-0.7,0-1,0c-0.8-0.1-1.2-0.6-1.2-1.4s0.4-1.3,1.2-1.4
			c0.4,0,0.8,0,1.1,0c8.4,0,16.9,0,25.3,0c0.3,0,0.7,0,1,0c0.8,0.1,1.3,0.5,1.3,1.4s-0.4,1.3-1.3,1.4c-0.3,0-0.7,0-1,0
			C-127.1,215.2-131.3,215.2-135.5,215.2z"/>
		<path class="st6" d="M-142.2,199c0,2.3-1.8,4.1-4.2,4.1c-2.3,0-4.1-1.8-4-4.2c0-2.3,1.8-4,4.1-4
			C-143.9,194.8-142.2,196.6-142.2,199z"/>
		<path class="st6" d="M-124.8,203c-2.3,0-4.1-1.8-4-4.2c0-2.3,1.8-4.1,4.2-4c2.3,0,4,1.8,4,4.1C-120.6,201.3-122.4,203.1-124.8,203
			z"/>
	</g>
</g>
<g id="IyBYVV.tif_3_">
	<g>
		<path class="st7" d="M-135.5,355.5c-17.8,0.2-32.5-14.7-32.5-32.4c0-17.8,14.6-32.5,32.4-32.6c17.8,0,32.7,14.7,32.6,32.6
			C-103.2,341.1-117.6,355.5-135.5,355.5z M-135.7,352.7c16.6-0.2,29.6-13,29.6-29.5c0-16.6-13-29.6-29.7-29.6
			c-16.5,0-29.4,13-29.4,29.5C-165.1,339.5-152.2,352.4-135.7,352.7z"/>
		<path class="st7" d="M-136.7,342.1c-6.6-0.2-12.5-3.9-17.3-9.8c-0.6-0.7-0.7-1.5,0-2.2c0.6-0.6,1.6-0.4,2.2,0.4
			c2.5,3,5.4,5.5,9,7.1c6.6,2.9,12.7,1.7,18.4-2.3c1.6-1.2,3.1-2.5,4.4-4c0.2-0.3,0.5-0.6,0.8-0.9c0.6-0.6,1.3-0.8,2-0.3
			c0.8,0.6,0.7,1.3,0.2,2.1c-0.8,1.1-1.7,2.1-2.7,3C-124.1,339.3-129.2,342-136.7,342.1z"/>
		<path class="st7" d="M-146.4,323.2c-2.3,0-4-1.9-4-4.2c0-2.3,1.9-4,4.3-4c2.2,0,4,1.9,4,4.2C-142.3,321.5-144.1,323.2-146.4,323.2
			z"/>
		<path class="st7" d="M-124.7,323.2c-2.3,0-4.1-1.8-4.1-4.1c0-2.3,1.8-4.1,4.2-4.1c2.3,0,4,1.8,4,4.1
			C-120.6,321.4-122.4,323.2-124.7,323.2z"/>
	</g>
</g>
<g id="IyBYVV.tif_2_">
	<g>
		<path class="st7" d="M-135.5,475.6c-17.8,0.2-32.5-14.7-32.5-32.4c0-17.8,14.6-32.5,32.4-32.6c17.8,0,32.7,14.7,32.6,32.6
			C-103.2,461.2-117.6,475.6-135.5,475.6z M-135.7,472.8c16.6-0.2,29.6-13,29.6-29.5c0-16.6-13-29.6-29.7-29.6
			c-16.5,0-29.4,13-29.4,29.5C-165.1,459.6-152.2,472.5-135.7,472.8z"/>
		<path class="st7" d="M-136.7,462.2c-6.6-0.2-12.5-3.9-17.3-9.8c-0.6-0.7-0.7-1.5,0-2.2c0.6-0.6,1.6-0.4,2.2,0.4
			c2.5,3,5.4,5.5,9,7.1c6.6,2.9,12.7,1.7,18.4-2.3c1.6-1.2,3.1-2.5,4.4-4c0.2-0.3,0.5-0.6,0.8-0.9c0.6-0.6,1.3-0.8,2-0.3
			c0.8,0.6,0.7,1.3,0.2,2.1c-0.8,1.1-1.7,2.1-2.7,3C-124.1,459.4-129.2,462.1-136.7,462.2z"/>
		<path class="st7" d="M-146.4,443.2c-2.3,0-4-1.9-4-4.2c0-2.3,1.9-4,4.3-4c2.2,0,4,1.9,4,4.2C-142.3,441.5-144.1,443.3-146.4,443.2
			z"/>
		<path class="st7" d="M-124.7,443.2c-2.3,0-4.1-1.8-4.1-4.1c0-2.3,1.8-4.1,4.2-4.1c2.3,0,4,1.8,4,4.1
			C-120.6,441.4-122.4,443.2-124.7,443.2z"/>
	</g>
</g>
<g id="_x32_KYlMN.tif_1_">
	<g>
		<path class="st8" d="M-169.4,555.7c0.2-8.4,4.1-14.6,11.8-18.1c7.5-3.4,15.7-1.8,21.6,4c1,0.9,1.4,0.9,2.4,0
			c5.9-5.6,12.8-7.2,20.4-4.5c7.5,2.7,11.8,8.2,12.8,16c0.9,6.7-1.1,12.8-4.8,18.3c-3.8,5.8-8.8,10.4-14.3,14.5
			c-4.8,3.6-9.9,6.6-14.6,10.4c-0.5,0.4-0.9,0.4-1.4,0c-6.4-5-13.5-9-19.6-14.4c-5.2-4.5-9.6-9.6-12.2-16.1
			C-168.7,562.6-169.5,559.2-169.4,555.7z M-165.8,555.8c0.1,0.9,0.2,1.8,0.3,2.8c0.1,0.3,0.1,0.6,0.1,0.9
			c1.3,7.6,5.7,13.3,11.2,18.3c5.7,5.3,12.3,9.2,18.4,13.8c0.6,0.5,1.1,0.4,1.7,0c4.6-3.5,9.6-6.6,14.2-10.2
			c4.8-3.8,9.2-7.9,12.3-13.3c2.8-4.9,4.3-10.1,3.2-15.8c-1.3-6.1-5-10.3-11.1-12c-5.9-1.7-11.2-0.4-15.7,3.9
			c-1.1,1.1-2,2.3-2.9,3.6c-0.6,1-1.1,0.9-1.7-0.1c-0.3-0.6-0.7-1.1-1.1-1.7c-3.6-4.7-8.4-6.9-14.4-6.4
			C-158.3,540.3-165.6,546.1-165.8,555.8z"/>
	</g>
</g>
<g class="st0">
	<path class="st1" d="M54,73.3h3.1v20.6c0,3.8-1.4,6.2-5.1,6.2c-1.1,0-2.1-0.2-2.7-0.5l0.6-2.4c0.5,0.2,1.1,0.3,1.7,0.3
		c1.8,0,2.3-1.4,2.3-3.6V73.3z M53.4,67.5c0-1.2,1-2,2.2-2c1.2,0,2.1,0.8,2.1,2c0,1.2-0.9,2-2.1,2C54.4,69.5,53.4,68.7,53.4,67.5z"
		/>
	<path class="st1" d="M73.8,80.1c0-2.4-0.8-4.6-3.8-4.6c-2.2,0-4.1,1-5.5,2l-1.3-2.2c1.7-1.1,4.3-2.4,7.3-2.4c4.5,0,6.4,3,6.4,7.6
		v11.3h-2.6L74,89.6H74c-1.8,1.4-3.8,2.7-6.1,2.7c-3.1,0-5.4-1.9-5.4-5.2C62.4,83,65.9,81,73.8,80.1z M68.7,89.7
		c1.8,0,3.3-0.9,5.1-2.5v-5.1c-6.2,0.8-8.3,2.3-8.3,4.6C65.5,88.9,66.9,89.7,68.7,89.7z"/>
	<path class="st1" d="M82.8,73.3h2.6l0.3,2.7h0.1c1.7-1.7,3.6-3.1,6.2-3.1c3.9,0,5.6,2.5,5.6,7.2v11.7h-3.1V80.5
		c0-3.5-1.1-4.9-3.5-4.9c-1.9,0-3.2,1-5.1,2.8v13.4h-3.1V73.3z"/>
</g>
</svg>
