<?xml version="1.0" encoding="utf-8"?>
<!-- Generator: Adobe Illustrator 19.2.0, SVG Export Plug-In . SVG Version: 6.00 Build 0)  -->
<svg version="1.1" id="Layer_1" xmlns="http://www.w3.org/2000/svg" xmlns:xlink="http://www.w3.org/1999/xlink" x="0px" y="0px"
	 viewBox="0 0 120.5 106.1" style="enable-background:new 0 0 120.5 106.1;" xml:space="preserve">
<style type="text/css">
	.st0{fill:#E51D1F;}
</style>
<g id="_x32_KYlMN.tif">
	<g>
		<path class="st0" d="M0,34.7C0.4,20,7.2,9.2,20.5,3.1c13-5.9,27.4-3.1,37.6,7c1.7,1.6,2.5,1.5,4.2,0C72.6,0.3,84.6-2.5,97.9,2.3
			c13,4.7,20.6,14.3,22.3,27.9c1.5,11.6-2,22.3-8.3,32c-6.6,10.2-15.4,18.1-25,25.3c-8.3,6.3-17.3,11.5-25.5,18.1
			c-0.9,0.7-1.6,0.7-2.4,0c-11.1-8.8-23.6-15.7-34.2-25.1c-9-7.9-16.8-16.7-21.3-28C1.3,46.8-0.1,40.9,0,34.7z M6.4,34.9
			c0.2,1.6,0.3,3.2,0.5,4.9c0.1,0.5,0.1,1,0.2,1.5c2.3,13.2,10,23.2,19.6,32c9.9,9.2,21.4,16.1,32.1,24.1c1.1,0.8,1.9,0.7,2.9,0
			c8.1-6.1,16.8-11.5,24.7-17.8c8.3-6.6,16-13.8,21.4-23.2c4.9-8.5,7.5-17.7,5.5-27.5C111.1,18.2,104.5,11,94,8
			c-10.3-3-19.6-0.7-27.4,6.8c-1.9,1.9-3.5,4-5,6.2c-1.1,1.7-1.9,1.5-2.9-0.1c-0.6-1-1.3-1.9-2-2.9C50.4,9.8,42,6,31.5,6.9
			C19.4,7.9,6.7,17.9,6.4,34.9z"/>
	</g>
</g>
</svg>
