<?xml version="1.0" encoding="utf-8"?>
<!-- Generator: Adobe Illustrator 19.2.0, SVG Export Plug-In . SVG Version: 6.00 Build 0)  -->
<svg version="1.1" id="Layer_1" xmlns="http://www.w3.org/2000/svg" xmlns:xlink="http://www.w3.org/1999/xlink" x="0px" y="0px"
	 viewBox="0 0 149.6 149.7" style="enable-background:new 0 0 149.6 149.7;" xml:space="preserve">
<style type="text/css">
	.st0{fill:#222222;}
</style>
<g id="_x34_YKbV6.tif">
	<g>
		<path class="st0" d="M30.2,135.6c-5.5-5.5-10.9-10.9-16.3-16.3c3.7-5.2,7.5-10.7,11.4-16c1-1.3,1-2.3,0.3-3.8
			c-1.2-2.4-2-5.1-3.3-7.5c-0.4-0.9-1.4-1.8-2.3-2c-6.6-1.3-13.2-2.4-20-3.7c0-7.6,0-15.1,0-23c4.5-0.8,9-2,13.6-2.2
			c5.8-0.4,9.4-2.3,11.1-8.4c1-3.5,1.3-5.7-1-8.6c-3.5-4.4-6.5-9.2-9.6-13.7c5.4-5.4,10.7-10.7,16.3-16.3c3.5,2.5,7.6,4.9,11.1,8
			c4.2,3.7,8,4.6,13.4,1.9c3.4-1.7,5.1-3.1,5.5-6.9c0.6-5.7,1.8-11.3,2.7-17c7.7,0,15.1,0,22.9,0C86.9,5,88.1,10,88.6,15
			c0.4,5,2.3,7.9,7.4,9.7c4.2,1.5,6.9,1.5,10.3-1.4c4.1-3.5,8.7-6.4,13.1-9.5c0.4,0.3,0.7,0.5,1,0.7c5.1,5.1,10.2,10.1,15.4,15.3
			c-1.4,2.1-2.8,4.1-4.2,6.1c-2.6,3.7-5.1,7.4-7.8,11c-0.8,1.1-0.8,1.9-0.2,3.1c1.3,2.6,2.2,5.4,3.5,8c0.4,0.8,1.4,1.7,2.2,1.8
			c6.7,1.2,13.4,2.3,20.3,3.4c0,7.6,0,15.2,0,23c-5.9,1-11.8,2.3-17.8,3.1c-3.1,0.4-5,1.3-5.6,4.6c-0.3,1.5-1,3.1-1.8,4.3
			c-1.6,2.3-1,4.1,0.6,6.1c3.8,4.9,7.3,10.1,10.9,15c-5.5,5.4-10.9,10.7-16.4,16.2c-5.2-3.6-10.8-7.5-16.3-11.4
			c-1.3-1-2.3-1-3.8-0.3c-2.4,1.3-5.1,2.1-7.5,3.3c-0.9,0.4-1.8,1.4-2,2.3c-1.3,6.7-2.5,13.4-3.7,20.2c-7.7,0-15.2,0-23,0
			c-1-5.7-2.1-11.3-2.8-17c-0.4-3.7-1.5-6.1-5.4-6.6c-1-0.1-2.1-0.6-3-1.2c-3-2.1-5.3-1.2-7.9,0.9C39.5,129.2,34.7,132.4,30.2,135.6
			z M30.7,128c5.1-3.6,10.2-7.2,15.4-10.6c0.7-0.5,2-0.6,2.8-0.3c4.8,1.8,9.5,3.8,14.2,5.9c0.7,0.3,1.6,1.2,1.7,1.9
			c1.1,5.7,1.9,11.5,3,17.2c0.1,0.7,0.9,1.8,1.4,1.8c4,0.2,8,0.1,12,0.1c1.1-6.2,2.1-12.2,3.1-18.2c0.3-1.5,0.7-2.5,2.5-3.1
			c4.4-1.5,8.7-3.3,12.8-5.4c1.7-0.8,2.7-0.8,4.2,0.3c5,3.6,10.1,7,14.8,10.3c3.2-3.2,6.1-6.2,9.3-9.3c-3.5-4.8-7.1-9.9-10.7-15
			c-0.9-1.2-1-2.2-0.3-3.6c1.7-3.3,3.7-6.5,4.4-10c0.9-4.6,3.4-5.8,7.5-6.2c5-0.5,9.9-1.7,14.9-2.5c0-4.5,0-8.6,0-12.9
			c-0.7-0.2-1.3-0.4-2-0.5c-5.4-0.9-10.8-1.8-16.3-2.6c-1.7-0.3-2.6-1-3.2-2.7c-1.5-4.2-3.2-8.4-5.1-12.4c-0.8-1.7-0.9-2.9,0.3-4.5
			c3.6-5,7-10,10.3-14.7c-3.2-3.2-6.2-6.2-9.3-9.3c-4.8,3.5-9.9,7.1-14.9,10.8c-1.3,0.9-2.2,0.9-3.6,0.2c-4.2-2-8.5-3.9-12.8-5.4
			c-1.9-0.7-2.6-1.6-2.9-3.4c-1-6-2-11.9-3.1-17.9c-4.4,0-8.7,0-12.9,0c-0.1,0.5-0.2,1-0.3,1.5C67,13,66,18.5,65.2,24
			c-0.3,1.7-0.9,2.6-2.7,3.2c-4.3,1.4-8.5,3.2-12.7,5.1c-1.6,0.8-2.6,0.9-4.2-0.2c-4.9-3.7-10-7.1-14.6-10.4
			c-3.2,3.2-6.2,6.2-9.3,9.2c3.4,4.8,6.8,9.9,10.4,14.9c0.9,1.2,1,2.1,0.2,3.5c-1.4,2.4-2.6,5-3.7,7.6s-1.4,6.1-3.4,7.6
			c-2,1.6-5.5,1.2-8.4,1.7c-3.7,0.6-7.5,1.3-11.1,1.9c0,4.6,0,8.8,0,13c5.9,1,11.6,2.1,17.4,3c2,0.3,3.1,0.9,3.7,3.1
			c0.8,3,1.6,6.3,3.4,8.8c3.2,4.4,2.3,7.7-1,11.4c-3,3.5-5.4,7.5-8,11.1C24.6,121.9,27.6,124.8,30.7,128z"/>
		<path class="st0" d="M74.6,101.8c-14.9-0.2-26.9-12.4-26.8-27.2C48,59.8,60.4,47.7,75.2,47.9c14.7,0.2,26.8,12.6,26.6,27.2
			C101.6,89.9,89.3,102,74.6,101.8z M53.8,75c0,11.7,9.5,21,21.3,20.9c11.5,0,20.9-9.5,20.8-21.1c0-11.6-9.5-21-21-20.9
			C63.1,53.9,53.7,63.3,53.8,75z"/>
	</g>
</g>
</svg>
