<?xml version="1.0" encoding="utf-8"?>
<!-- Generator: Adobe Illustrator 19.2.0, SVG Export Plug-In . SVG Version: 6.00 Build 0)  -->
<svg version="1.1" id="Layer_1" xmlns="http://www.w3.org/2000/svg" xmlns:xlink="http://www.w3.org/1999/xlink" x="0px" y="0px"
	 viewBox="0 0 132.3 132.4" style="enable-background:new 0 0 132.3 132.4;" xml:space="preserve">
<style type="text/css">
	.st0{fill:#222222;}
</style>
<g id="qpCP4V.tif">
	<g>
		<path class="st0" d="M132.3,66.1c0,36.8-29.4,66.2-66.2,66.2C29.5,132.4,0,102.9,0,66.3C0,29.6,29.4,0.3,66,0
			C102.3-0.3,132.7,30,132.3,66.1z M6.3,66.2c0.6,33.6,26.5,59.8,59.9,59.7c33.5-0.1,59.6-26.2,59.6-59.6
			c0.1-33.5-26-59.8-59.7-59.8C32.7,6.5,6.9,32.7,6.3,66.2z"/>
		<path class="st0" d="M63,48c0-4,0.1-8,0-12c-0.1-2.6,1.1-3,3.3-3c2.1,0,3.2,0.4,3.1,2.9c-0.1,8.2,0,16.3-0.1,24.5
			c0,2.1,0.6,2.8,2.7,2.7c8.2-0.1,16.3,0.1,24.5-0.1c2.7-0.1,2.9,1.2,2.9,3.4c0,2.2-0.6,3.1-2.9,3.1c-8-0.1-16,0.1-24-0.1
			c-2.6-0.1-3.2,0.8-3.2,3.3c0.1,7.9,0,15.8,0.1,23.7c0,2.4-0.8,3.1-3.2,3.1c-2.2,0-3.3-0.5-3.3-3c0.1-8.1,0-16.2,0.1-24.2
			c0-2.2-0.6-2.9-2.8-2.9c-8.1,0.1-16.2,0-24.2,0.1c-2.5,0-3-1-3-3.2c0-2.3,0.6-3.2,3.1-3.2c8,0.1,16,0,24,0.1c2.5,0,3.1-0.8,3-3.2
			C62.9,56,63,52,63,48z"/>
	</g>
</g>
</svg>
