<?xml version="1.0" encoding="utf-8"?>
<!-- Generator: Adobe Illustrator 19.2.0, SVG Export Plug-In . SVG Version: 6.00 Build 0)  -->
<svg version="1.1" id="Layer_1" xmlns="http://www.w3.org/2000/svg" xmlns:xlink="http://www.w3.org/1999/xlink" x="0px" y="0px"
	 viewBox="0 0 138.4 138.4" style="enable-background:new 0 0 138.4 138.4;" xml:space="preserve">
<style type="text/css">
	.st0{fill:#222222;}
</style>
<g id="E9yqIN.tif">
	<g>
		<path class="st0" d="M69,138.4c-19.5,0-39,0-58.5,0C3.4,138.4,0,135,0,127.8C0,88.7,0,49.6,0,10.5C0,3.5,3.4,0,10.4,0
			c32,0,64,0,96,0c2.4,0,4.1,0.7,5.7,2.4c7.9,8,15.9,16,23.9,23.9c1.7,1.6,2.4,3.4,2.4,5.7c-0.1,32,0,64,0,96
			c0,6.9-3.5,10.4-10.3,10.4C108.4,138.4,88.7,138.4,69,138.4z M6.3,69.3c0,19.4,0,38.8,0,58.2c0,3.4,1.1,4.5,4.5,4.5
			c3.3,0,6.7-0.1,10,0.1c2.5,0.1,3.3-0.6,3.3-3.2c-0.1-15.5-0.1-31-0.1-46.5C24,75,27,72,34.3,72c23.2,0,46.5,0,69.7,0
			c7.3,0,10.3,3,10.3,10.3c0,15.7,0,31.3,0,47c0,2,0.6,2.8,2.7,2.7c3.5-0.1,7,0,10.5,0c3.4,0,4.5-1.1,4.5-4.5c0-31.2,0-62.3,0-93.5
			c0-1.6-0.5-2.8-1.7-4c-7.5-7.4-14.9-14.8-22.3-22.2c-0.6-0.6-1.2-1.7-2.2-1.2c-0.9,0.4-0.5,1.5-0.5,2.3c0,13.6,0,27.2,0,40.7
			c0,5.6-2.1,7.7-7.7,7.7c-21.9,0-43.8,0-65.7,0c-5.9,0-7.9-2-7.9-8c0-13.3,0-26.7,0-40c0-2.2-0.4-3.2-2.9-3.1
			c-3.2,0.2-6.5,0-9.7,0.1c-4.2,0-5.1,0.9-5.1,5.2C6.3,30.8,6.3,50,6.3,69.3z M69.4,132c11.9,0,23.8,0,35.7,0c2.1,0,2.9-0.5,2.9-2.8
			c-0.1-15.6,0-31.2-0.1-46.7c0-3.4-0.8-4.2-4.1-4.2c-23.2,0-46.3,0-69.5,0c-3.3,0-4.1,0.8-4.1,4.2c0,15.6,0,31.2-0.1,46.7
			c0,2.2,0.7,2.8,2.9,2.8C45.2,132,57.3,132,69.4,132z M64.4,51c10.6,0,21.1,0,31.7,0c2.1,0,2.9-0.5,2.9-2.8C99,35.2,99,22.2,99,9.1
			c0-2-0.5-2.8-2.6-2.8C75.2,6.4,54.1,6.4,33,6.3c-2.1,0-2.7,0.8-2.7,2.8c0.1,13.1,0.1,26.1,0,39.2c0,2.3,0.8,2.8,2.9,2.8
			C43.6,51,54,51,64.4,51z"/>
		<path class="st0" d="M12,120.1c0-3,0.1-3.1,3.3-3.1c2.9,0,2.9,0.1,3,3.4c0.1,2.6-1,3.1-3.3,3C12.1,123.3,12,123.3,12,120.1z"/>
		<path class="st0" d="M123.1,123.4c-3,0-3.1-0.1-3.1-3.3c0-3,0.1-2.9,3.4-3.1c2.5-0.1,3.1,1,3,3.2
			C126.2,123.3,126.2,123.4,123.1,123.4z"/>
		<path class="st0" d="M93.3,29c0,4.1,0,8.2,0,12.2c0,3.1-1,4.1-4.2,4.2c-2.5,0-5,0-7.5,0c-2.3,0-3.6-1.2-3.6-3.6
			c0-8.7,0-17.5,0-26.2c0-2.4,1.2-3.5,3.6-3.5c2.6,0,5.2,0,7.7,0c2.9,0,3.9,1.1,4,3.9C93.3,20.3,93.3,24.6,93.3,29z M87,28.7
			c0-2.8,0-5.7,0-8.5c0-0.9,0-1.7-1.2-1.8c-1.3-0.1-1.5,0.8-1.5,1.8c0,5.7,0,11.3,0,17c0,0.9,0,1.7,1.2,1.8c1.3,0.1,1.5-0.8,1.5-1.8
			C87,34.4,87,31.5,87,28.7z"/>
	</g>
</g>
</svg>
