<?xml version="1.0" encoding="utf-8"?>
<!-- Generator: Adobe Illustrator 19.2.0, SVG Export Plug-In . SVG Version: 6.00 Build 0)  -->
<svg version="1.1" id="Layer_1" xmlns="http://www.w3.org/2000/svg" xmlns:xlink="http://www.w3.org/1999/xlink" x="0px" y="0px"
	 viewBox="0 0 149.9 150" style="enable-background:new 0 0 149.9 150;" xml:space="preserve">
<style type="text/css">
	.st0{fill:#222222;}
</style>
<g id="D37KkK.tif">
	<g>
		<path class="st0" d="M26.8,12c0.8-3.7-1-7.7,2.3-10.6c2.5-2.1,5.6-1.3,8.4-1.4c3-0.2,6,0.4,6.9,3.7c0.7,2.6,0.6,5.4,0.9,8.2
			c19.8,0,39.6,0,59.6,0c0.9-3.5-1.5-8.5,2.8-10.6c2.8-1.4,6.7-1.5,9.9-1.1c7.2,0.9,5,6.9,5.6,11.8c0.9,0,1.7,0,2.6,0
			c5.8,0,11.7,0,17.5,0c4.5,0,6.8,2.3,6.8,6.8c0,41.5,0,83,0,124.5c0,4.4-2.3,6.7-6.6,6.7c-45.6,0-91.2,0-136.7,0
			c-4.2,0-6.6-2.3-6.6-6.5c0-41.7,0-83.3,0-125c0-4.2,2.3-6.4,6.6-6.5c5.9,0,11.8,0,17.7,0C25.1,12,25.9,12,26.8,12z M143.9,48.1
			c-46.1,0-92,0-137.8,0c0,32,0,63.9,0,95.7c46,0,91.9,0,137.8,0C143.9,111.9,143.9,80.1,143.9,48.1z M6,41.9c46.1,0,91.9,0,137.8,0
			c0-8,0-15.9,0-23.7c-7.1,0-13.9,0-20.8,0c-0.5,4.7,1.6,10.7-5.6,11.7c-3.3,0.4-6.9,1.1-10-1c-4-2.7-1.8-7.2-2.7-10.7
			c-20,0-39.8,0-59.7,0c-0.5,5,1.6,11.7-6.9,11.8c-3.1,0-6.4,0.9-9.1-1.4c-3.3-2.8-1.5-6.9-2.2-10.4c-6.9,0-13.8,0-20.8,0
			C6,26.1,6,33.9,6,41.9z M116.8,24c0-6.1,0-12,0-17.8c-2,0-3.9,0-5.7,0c0,6,0,11.9,0,17.8C113.1,24,114.9,24,116.8,24z M33,23.8
			c1.9,0,3.8,0,5.8,0c0-5.9,0-11.7,0-17.7c-2,0-3.8,0-5.8,0C33,12,33,17.8,33,23.8z"/>
		<path class="st0" d="M75,63c17.4,0,34.8,0,52.2,0c3.9,0,4.7,0.8,4.7,4.6c0,19.9,0,39.8,0,59.7c0,3.7-0.9,4.6-4.5,4.6
			c-35,0-70,0-105,0c-3.6,0-4.5-0.9-4.5-4.4c0-20,0-40,0-60c0-3.9,0.8-4.6,4.7-4.6C40.1,63,57.5,63,75,63z M105.1,111.1
			c0,5.1,0,10,0,14.8c7,0,13.9,0,20.7,0c0-5,0-9.9,0-14.8C118.9,111.1,112.1,111.1,105.1,111.1z M78.1,111.1c0,5.2,0,10,0,14.8
			c7.1,0,13.9,0,20.7,0c0-5.1,0-9.9,0-14.8C91.8,111.1,85,111.1,78.1,111.1z M71.9,111.2c-7,0-13.9,0-20.8,0c0,5,0,9.8,0,14.7
			c7,0,14,0,20.8,0C71.9,120.8,71.9,116,71.9,111.2z M24.1,111.1c0,5.2,0,10,0,14.7c7.1,0,13.9,0,20.7,0c0-5.1,0-9.9,0-14.7
			C37.8,111.1,31,111.1,24.1,111.1z M105.1,90.1c0,5.1,0,10,0,14.8c7,0,13.9,0,20.7,0c0-5,0-9.9,0-14.8
			C118.9,90.1,112.1,90.1,105.1,90.1z M78.1,90.1c0,5.1,0,10,0,14.8c7,0,13.9,0,20.7,0c0-5,0-9.9,0-14.8
			C91.9,90.1,85.1,90.1,78.1,90.1z M51,104.9c7.1,0,14,0,20.8,0c0-5,0-9.9,0-14.7c-7,0-13.9,0-20.8,0C51,95.1,51,99.9,51,104.9z
			 M44.9,90.1c-7.1,0-14,0-20.8,0c0,5,0,9.9,0,14.7c7,0,13.9,0,20.8,0C44.9,99.9,44.9,95.1,44.9,90.1z M125.9,69.1
			c-7.1,0-13.9,0-20.8,0c0,5,0,9.9,0,14.8c7,0,13.9,0,20.8,0C125.9,78.9,125.9,74.1,125.9,69.1z M78,83.9c7.1,0,13.9,0,20.8,0
			c0-5,0-9.9,0-14.7c-7,0-13.9,0-20.8,0C78,74.1,78,78.9,78,83.9z M71.9,69.1c-7,0-13.9,0-20.8,0c0,5,0,9.9,0,14.8
			c7,0,13.9,0,20.8,0C71.9,79,71.9,74.2,71.9,69.1z M24,83.9c7.1,0,14,0,20.8,0c0-5,0-9.9,0-14.7c-7,0-13.9,0-20.8,0
			C24,74.1,24,78.9,24,83.9z"/>
	</g>
</g>
</svg>
