<?xml version="1.0" encoding="utf-8"?>
<!-- Generator: Adobe Illustrator 19.2.0, SVG Export Plug-In . SVG Version: 6.00 Build 0)  -->
<svg version="1.1" id="Layer_1" xmlns="http://www.w3.org/2000/svg" xmlns:xlink="http://www.w3.org/1999/xlink" x="0px" y="0px"
	 viewBox="0 0 144.5 144.4" style="enable-background:new 0 0 144.5 144.4;" xml:space="preserve">
<style type="text/css">
	.st0{fill:#222222;}
</style>
<g id="MgLB5v.tif">
	<g>
		<path class="st0" d="M72.3,144.4c-39.6,0.5-72.3-32.6-72.3-72C-0.1,32.9,32.5,0.1,72,0c39.7-0.1,72.7,32.8,72.4,72.5
			C144.2,112.3,112.2,144.4,72.3,144.4z M71.9,138.1c36.9-0.4,65.9-28.6,66.1-65.6c0.2-36.8-28.6-66-65.8-66
			C35.6,6.6,6.7,35.2,6.5,72C6.4,108.5,34.9,137.3,71.9,138.1z"/>
		<path class="st0" d="M105.4,102.3c0,1.3-0.6,2.3-1.7,2.8c-1.4,0.6-2.8,0.3-3.9-0.7c-2.8-2.5-5.9-4.5-9.3-6.3
			c-15.1-7.8-31.6-5.1-44.4,5.2c-2.8,2.3-4.9,2.7-6.3,0.9c-1.4-1.7-0.7-3.7,2.1-6c17.8-15.2,44.6-14.8,61.8,0.9
			C104.7,100,105.4,100.9,105.4,102.3z"/>
		<path class="st0" d="M48.4,54.1c5.2,0.1,9.1,4.1,9,9.4c-0.1,5.1-4.2,9-9.4,8.9c-5-0.1-8.9-4.1-8.9-9.2C39.1,58,43.2,54,48.4,54.1z
			"/>
		<path class="st0" d="M105.4,63.4c0,5.2-4.1,9.1-9.3,9c-5.2-0.1-9.1-4.1-9-9.4c0.1-5.1,4.1-8.9,9.2-8.9
			C101.5,54.1,105.4,58.1,105.4,63.4z"/>
	</g>
</g>
</svg>
