<?xml version="1.0" encoding="utf-8"?>
<!-- Generator: Adobe Illustrator 19.2.0, SVG Export Plug-In . SVG Version: 6.00 Build 0)  -->
<svg version="1.1" id="Layer_1" xmlns="http://www.w3.org/2000/svg" xmlns:xlink="http://www.w3.org/1999/xlink" x="0px" y="0px"
	 viewBox="0 0 111.5 105.6" style="enable-background:new 0 0 111.5 105.6;" xml:space="preserve">
<style type="text/css">
	.st0{fill:#E51D1F;}
</style>
<g id="qgA6H0.tif">
	<g>
		<path class="st0" d="M27.2,63.3c0-21.6,16.1-39.7,37.5-42c2.5-0.3,2.9,0.1,2.4,2.7c-3,19.9,9,35.5,24.4,40.3
			c5.7,1.8,11.4,2,17.3,1.2c2.5-0.4,2.9,0,2.6,2.6c-2.5,19.6-17.9,35-37.4,37.2C49.2,108.1,27.2,88.4,27.2,63.3z M33.5,63.7
			c0.1,0.9,0.3,2.4,0.4,3.9C36,85.2,50.7,99.2,69.8,98.9c15.3-0.2,27.4-9.4,32.7-23.7c1-2.6,0.9-2.8-1.9-2.9
			c-21.7-0.6-39.8-18.7-40.4-40.5c-0.1-2.4-0.8-2.5-2.8-1.9C43.4,34.8,33.6,48.3,33.5,63.7z"/>
		<path class="st0" d="M29.9,18.3c-1.7-0.2-2.7-1.3-2.7-3.3c0.1-2-0.6-2.9-2.7-2.7c-2,0.1-3.4-0.9-3.5-3c-0.1-1.9,1.2-3.3,3.5-3.2
			c2.1,0.1,2.8-0.8,2.7-2.8c0-2,1.2-3.3,3.2-3.3s3.1,1.3,3,3.2c-0.1,2.1,0.5,3,2.8,2.9c1.9-0.1,3.2,1,3.2,3c0,2.2-1.3,3.3-3.3,3.2
			C34,12.2,33.4,13,33.4,15C33.5,17.3,32.2,18.4,29.9,18.3z"/>
		<path class="st0" d="M12.5,42.2c0,2-4.2,6.2-6.2,6.2c-1.7,0-6.2-4.2-6.3-5.9c-0.1-2.2,4.6-6.7,6.8-6.5
			C8.3,36.2,12.5,40.6,12.5,42.2z"/>
	</g>
</g>
</svg>
