<?xml version="1.0" encoding="utf-8"?>
<!-- Generator: Adobe Illustrator 19.2.0, SVG Export Plug-In . SVG Version: 6.00 Build 0)  -->
<svg version="1.1" id="Layer_1" xmlns="http://www.w3.org/2000/svg" xmlns:xlink="http://www.w3.org/1999/xlink" x="0px" y="0px"
	 viewBox="0 0 149.9 125.9" style="enable-background:new 0 0 149.9 125.9;" xml:space="preserve">
<style type="text/css">
	.st0{fill:#222222;}
</style>
<g id="hWGKCs.tif">
	<g>
		<path class="st0" d="M44.2,119.9c-0.7-0.4-2.5-0.8-3.3-1.9c-1.4-2-3.3-2.2-5.3-2.5c-7.4-1.2-14.8-2.3-22.2-3.5
			c-1.6-0.2-2.9-0.3-4.4,0.8c-2.6,1.9-6,1.1-7.9-1.6c-1.8-2.5-1.3-5.8,1.1-7.9c2.4-2,6-2.1,7.8,0.4c1.5,2,3.3,2.2,5.3,2.6
			c7.4,1.2,14.8,2.3,22.2,3.5c1.5,0.2,3,0.5,4.4-0.8c0.7-0.7,2.1-1.2,3-0.9c2.2,0.7,3.5-0.7,4.8-1.8c5.8-4.6,11.6-9.2,17.4-13.9
			c0.9-0.7,1.6-2,1.9-3.2c0.7-3.2,3.3-5.5,6.3-5.3c3.1,0.2,5.3,2.7,5.6,6c0.1,1,0.6,2.2,1.3,3c6.5,6.7,13.2,13.2,19.8,19.8
			c1.8,1.8,4.4,1.8,6.1,0.2c9.4-8.6,18.7-17.3,28-26c0.9-0.9,1.6-2.3,1.8-3.5c0.6-3.3,3.3-5.7,6.4-5.5c3.1,0.2,5.6,3,5.6,6
			c-0.1,3.3-2.8,5.7-6.2,5.9c-1,0.1-2.3,0.5-3,1.2c-9.4,8.6-18.8,17.2-28.1,25.9c-0.9,0.8-1.4,2.1-1.6,3.3c-0.6,3.2-3,5.6-6.1,5.5
			s-5.5-2.5-5.9-5.7c-0.2-1.2-0.7-2.6-1.5-3.4c-6.4-6.6-12.9-13-19.4-19.5c-2-2-5-2.2-7.2-0.4c-6,4.9-12.1,9.7-18.1,14.6
			c-0.9,0.7-1.6,2-1.8,3.2C50.2,117.6,47.9,119.8,44.2,119.9z"/>
		<path class="st0" d="M149.9,6.1c-0.1,3.2-2.7,5.6-6,5.9c-1.2,0.1-2.6,0.6-3.4,1.4c-9.4,8.5-18.7,17.1-27.9,25.7
			c-0.9,0.8-1.4,2.1-1.6,3.3c-0.5,3-2.7,5.3-5.6,5.5c-2.8,0.2-5.2-1.7-6.2-4.5c-0.3-1-1-2.1-1.9-2.6c-5.8-3.6-11.6-7.1-17.5-10.6
			c-0.9-0.5-2.3-0.3-3.4-0.5c-4.6-0.9-7.1,2.7-10.1,5c-4.5,3.5-9,7.1-13.4,10.8c-0.9,0.8-1.6,2-1.8,3.2c-0.8,3.9-4.3,6-8.1,4.9
			c-1-0.3-2.3-0.3-3.2,0.2c-8.7,3.9-17.4,8-26,12.1c-0.9,0.4-1.7,1.3-2.1,2.2c-1.5,3.3-4.6,4.8-7.8,3.5c-3-1.2-4.5-4.6-3.4-7.6
			c1.2-3.1,4.4-4.5,7.8-3.4c0.8,0.3,2,0.3,2.8-0.1c8.9-4,17.7-8.1,26.5-12.3c0.8-0.4,1.5-1.2,1.9-2.1c1.3-2.8,3.5-4.2,6.5-4
			c0.9,0,1.9-0.2,2.6-0.8c6.2-4.9,12.5-9.7,18.6-14.8c1-0.8,1.7-2.2,2-3.4c0.7-2.8,2.9-5,5.7-5.1c2.7-0.1,5,1.8,6,4.4
			c0.4,1.1,1.3,2.3,2.2,2.9c5.7,3.6,11.6,6.9,17.3,10.4c1.8,1.1,6.3,0.6,7.8-0.8c9.4-8.7,18.9-17.4,28.2-26.1
			c0.8-0.8,1.4-2.2,1.6-3.3c0.6-3.3,3.3-5.7,6.4-5.5C147.4,0.3,150,3,149.9,6.1z"/>
	</g>
</g>
</svg>
