<?xml version="1.0" encoding="utf-8"?>
<!-- Generator: Adobe Illustrator 19.2.0, SVG Export Plug-In . SVG Version: 6.00 Build 0)  -->
<svg version="1.1" id="Layer_1" xmlns="http://www.w3.org/2000/svg" xmlns:xlink="http://www.w3.org/1999/xlink" x="0px" y="0px"
	 viewBox="0 0 150.4 150.5" style="enable-background:new 0 0 150.4 150.5;" xml:space="preserve">
<style type="text/css">
	.st0{fill:#222222;}
</style>
<g id="_x32_EYEhE.tif">
	<g>
		<path class="st0" d="M0,75.1C0,33.5,33.6,0.2,75.2,0c41.2-0.2,75.5,34.2,75.2,75.7c-0.3,40.9-34.3,75.1-75.9,74.8
			C33.7,150.1-0.5,116.2,0,75.1z M74.8,144c38.4-0.4,69-30.1,69-68.7c0.1-38.5-30.1-68.8-68.8-68.9C37.2,6.5,6.5,36.3,6.4,75.2
			C6.4,113.3,36.3,143.3,74.8,144z"/>
		<path class="st0" d="M78.3,41.7c0,7.5,0,15,0,22.5c0,1.5,0.4,2.4,1.7,3.3c4,2.7,5.4,7,3.8,11.1c-1.7,4.2-5.8,6.5-10.5,5.6
			c-1.6-0.3-2.5,0.2-3.5,1.2c-4.7,4.7-9.4,9.4-14.1,14.1c-0.5,0.5-1,1.1-1.6,1.6c-1.8,1.6-3.9,1.7-5.1,0.4c-1.3-1.3-1.2-3.4,0.5-5.1
			c4.9-5,9.8-10,14.8-14.8c1.5-1.5,2.4-2.8,1.9-5.2c-0.7-3.6,0.8-6.6,3.8-8.6c1.7-1.1,2.1-2.3,2-4.1c-0.1-14.2,0-28.3,0-42.5
			c0-0.7,0-1.5,0-2.2c0.1-2.5,1.3-3.9,3.2-3.9c1.9,0,3.1,1.4,3.1,4C78.3,26.5,78.3,34.1,78.3,41.7z"/>
	</g>
</g>
</svg>
