<?xml version="1.0" encoding="utf-8"?>
<!-- Generator: Adobe Illustrator 19.2.0, SVG Export Plug-In . SVG Version: 6.00 Build 0)  -->
<svg version="1.1" id="Layer_1" xmlns="http://www.w3.org/2000/svg" xmlns:xlink="http://www.w3.org/1999/xlink" x="0px" y="0px"
	 viewBox="0 0 150 150.1" style="enable-background:new 0 0 150 150.1;" xml:space="preserve">
<style type="text/css">
	.st0{fill:#222222;}
</style>
<g id="hhkpAi.tif">
	<g>
		<path class="st0" d="M124.4,129.2c4.6,4.6,9.1,9,13.5,13.5c0.5,0.5,1,1.1,1.6,1.6c1.5,1.4,2.2,3,0.6,4.8c-1.2,1.4-3,1.2-4.8-0.5
			c-3.5-3.5-6.9-7-10.4-10.4c-1.6-1.6-3.2-3.1-4.7-4.6c-30.2,22-60.2,22-90.5-0.2c-2.8,2.8-5.6,5.8-8.6,8.7c-2,2-4,4-6,6
			c-2.1,2-3.7,2.4-5.2,1c-1.4-1.4-1.2-3.1,0.9-5.2c4.3-4.3,8.6-8.6,12.9-12.9c0.6-0.6,1.3-1.1,2.1-1.7C9.7,111.9,3.1,91.7,7.3,68.5
			c3.1-17.4,12-31.5,25.9-42.2c27.4-21.2,67.3-18.2,91.1,6.5C149.4,58.8,151.4,100.8,124.4,129.2z M74.8,144
			c34.8,0,63.2-28,63.2-62.4C138.1,46.2,110.1,18,74.8,18C40,17.9,12,46.2,12,81.5C12,115.8,40.4,144,74.8,144z"/>
		<path class="st0" d="M46.1,5.5C32.6,19,19.1,32.5,5.6,46C-2.2,36.1-2,20.7,7,10.3C17.2-1.4,33.7-3.3,46.1,5.5z M36.7,7.6
			c-8-3.6-18.5-0.9-24.8,6c-6.1,6.6-7.4,17.7-4.2,22.9c0.6-0.5,1.1-1,1.6-1.5C18.4,25.9,27.4,16.9,36.7,7.6z"/>
		<path class="st0" d="M144.4,46.2c-13.5-13.5-27-27-40.5-40.5c10.6-8.1,26.3-7.5,36.6,2C151.5,17.8,153.1,34.5,144.4,46.2z
			 M142.6,36.1c3.3-6.6,0.9-17.3-5.4-23.5c-7.4-7.3-18.5-8-23.2-5.2C123.5,16.9,133.1,26.5,142.6,36.1z"/>
		<path class="st0" d="M72,78c0-3.7,0-7,0-10.3c0-11.2,0-22.5,0-33.7c0-2.6,1.1-4.1,3.1-4c2.4,0.2,2.9,1.9,2.8,3.9
			c0,15.3,0,30.6,0,46C78,83,77,84,74,84c-9.3,0-18.7,0-28,0c-2.8,0-4-1-4-3s1.3-2.9,4-2.9c7.7,0,15.3,0,23,0C69.9,78,70.8,78,72,78
			z"/>
	</g>
</g>
</svg>
